<?xml version="1.0" encoding="utf-8"?>
<!-- Generator: Adobe Illustrator 23.0.1, SVG Export Plug-In . SVG Version: 6.00 Build 0)  -->
<svg version="1.1" id="Layer_1" xmlns="http://www.w3.org/2000/svg" xmlns:xlink="http://www.w3.org/1999/xlink" x="0px" y="0px"
	 viewBox="0 0 130 130" style="enable-background:new 0 0 130 130;" xml:space="preserve">
<style type="text/css">
	.st0{fill:#222222;}
	.st1{fill:#2BACE2;}
	.st2{fill:#FFFFFF;}
	.st3{fill:#1899CF;}
	.st4{fill:#2BABE2;}
	.st5{fill:#57A8D6;}
	.st6{fill:#1999CE;}
	.st7{fill:#1899CE;}
	.st8{fill:#1596C9;}
	.st9{fill:#42B7DC;}
	.st10{fill:#2BABE1;}
	.st11{fill:#2BAAE0;}
	.st12{fill:#21A2D6;}
	.st13{fill:#23A0D4;}
	.st14{fill:#222323;}
	.st15{fill:#232323;}
	.st16{fill:#2BACE3;}
	.st17{fill:#222324;}
</style>
<g>
	<path class="st0" d="M120.86,65.08c0,10.37,0,20.74,0.01,31.11c0,0.38-0.1,0.58-0.44,0.77c-10.29,5.92-20.58,11.86-30.86,17.79
		c-7.35,4.25-14.72,8.47-22.05,12.77c-1,0.59-1.69,0.6-2.7,0c-6.41-3.77-12.87-7.47-19.32-11.19c-7.33-4.23-14.66-8.47-21.98-12.7
		c-3.9-2.25-7.8-4.5-11.71-6.74c-0.25-0.15-0.35-0.3-0.35-0.6c0.01-20.81,0.01-41.63-0.01-62.44c0-0.39,0.2-0.51,0.46-0.67
		c12.67-7.31,25.33-14.62,37.99-21.93c5.24-3.02,10.47-6.04,15.7-9.07c0.4-0.23,0.71-0.22,1.11,0.01
		c7.34,4.25,14.68,8.48,22.02,12.71c7.38,4.26,14.76,8.53,22.13,12.79c3.2,1.85,6.4,3.7,9.62,5.54c0.28,0.16,0.36,0.33,0.36,0.64
		C120.86,44.28,120.86,54.68,120.86,65.08z M64.34,29.72c-0.57-0.61-0.8-1.35-0.77-2.19c-0.05,0-0.09,0-0.14,0
		c-0.11,0.38-0.21,0.76-0.32,1.14c-0.24,0.77-0.14,1.53,0.1,2.28c0.25,0.77,0.74,1.37,1.46,1.75l-0.01-0.01
		c1.34,0.98,3.64,0.91,4.94-0.22c0.4-0.35,0.66-0.87,0.98-1.31c0.04-0.06,0.1-0.11,0.13-0.17c0.66-1.68,0.14-3.66-1.6-4.66
		c-0.69-0.4-1.38-0.24-1.85,0.35c-0.52,0.65-0.34,1.59,0.46,2.29c0.03,0.05,0.06,0.09,0.1,0.14c0.3,0.32,0.54,0.65,0.31,1.12
		c-0.22,0.45-0.56,0.68-1.07,0.65c-0.19-0.01-0.37,0-0.56,0C65.69,30.66,64.96,30.3,64.34,29.72z M74.84,50.77
		c-0.14,0.01-0.29,0.01-0.43,0.02c-1.33,0.14-2.66,0.34-4,0.43c-2.42,0.16-4.84,0.24-7.25,0.37c-0.13,0.01-0.25,0.08-0.38,0.13
		c0.88,0.05,1.73,0.08,2.58,0.04c3.2-0.14,6.39-0.28,9.59-0.46c1.12-0.06,2.24-0.22,3.35-0.33c1.23-0.15,2.46-0.28,3.68-0.46
		c2.46-0.35,4.92-0.75,7.29-1.54c0.9-0.3,1.76-0.71,2.62-1.09c0.12-0.05,0.19-0.23,0.24-0.36c0.01-0.03-0.11-0.16-0.19-0.18
		c-0.39-0.09-0.78-0.18-1.17-0.22c-0.4-0.04-0.81-0.06-1.21-0.03c-0.78,0.07-1.62-0.02-2.31,0.44c-1.16,0.77-2.44,1.21-3.76,1.58
		C80.67,49.93,77.76,50.4,74.84,50.77z M49.07,43.76c-0.6,0.24-1.13,0.58-1.49,1.12c-0.3,0.44-0.28,0.88,0.13,1.2
		c0.45,0.35,0.94,0.67,1.47,0.88c2.07,0.84,4.26,1.07,6.47,1.22c2.45,0.16,4.9,0.03,7.33-0.34c0.66-0.1,1.3-0.35,1.93-0.58
		c0.14-0.05,0.32-0.28,0.3-0.4c-0.02-0.16-0.19-0.37-0.34-0.43c-0.44-0.16-0.9-0.31-1.37-0.37c-1.11-0.14-2.22-0.13-3.3,0.2
		c-0.25,0.08-0.5,0.17-0.13,0.46c0.27,0.21,0.17,0.38-0.14,0.41c-0.59,0.07-1.17,0.16-1.76,0.19c-1.62,0.07-3.23-0.14-4.8-0.51
		c-0.77-0.18-1.54-0.47-2.26-0.82c-0.75-0.37-0.85-1.04-0.26-1.62c0.4-0.4,0.9-0.71,1.36-1.05c1.06-0.42,2.13-0.85,3.18-1.28
		c0.1-0.04,0.18-0.14,0.27-0.21c-0.1-0.02-0.21-0.08-0.31-0.05c-1.14,0.27-2.3,0.5-3.42,0.85C50.96,42.94,50.03,43.38,49.07,43.76z
		 M74.39,49.9c-2.44,0.38-4.88,0.76-7.32,1.13c0.26,0.07,0.54,0.08,0.81,0.06c0.88-0.07,1.75-0.13,2.63-0.23
		c1.33-0.16,2.65-0.34,3.98-0.51c0.09,0,0.17,0.02,0.26,0c2.44-0.46,4.9-0.86,7.24-1.75c1.05-0.4,2.1-0.81,2.97-1.55
		c0.86-0.73,0.83-1.64-0.05-2.33c-0.28-0.22-0.58-0.43-0.89-0.6c-2.13-1.14-4.41-1.55-6.8-1.28c-0.36,0.04-0.72,0.09-1.06,0.19
		c-0.19,0.05-0.34,0.23-0.5,0.35c0.16,0.12,0.3,0.29,0.48,0.36c0.4,0.15,0.83,0.25,1.24,0.37c1.07,0.31,2.11,0.7,3.01,1.37
		c0.89,0.66,0.93,1.46,0.05,2.13c-0.53,0.41-1.13,0.77-1.76,0.99C77.26,49.09,75.82,49.48,74.39,49.9z M66.6,37.86
		c0.08-0.01,0.18,0,0.25-0.03c2.16-0.86,3.59-2.39,4.23-4.63c0.13-0.46,0.14-0.95,0.21-1.43c-0.04-0.01-0.09-0.02-0.13-0.03
		c-0.51,0.91-1.18,1.67-2.04,2.25c-0.08,0.03-0.16,0.05-0.24,0.09c-1.22,0.65-2.48,0.82-3.82,0.43c-0.89-0.26-1.65-0.71-2.34-1.31
		c-0.39-0.6-0.86-1.16-1.16-1.8c-0.51-1.11-0.51-2.26,0.06-3.38c0.1-0.2,0.21-0.41,0.32-0.61c0.46-0.86,0.93-1.72,1.61-2.44
		c0.62-0.66,1.27-1.29,1.79-2.02c1-1.4,1.58-2.95,1.24-4.71c-0.15-0.75-0.28-1.52-0.82-2.03c-0.12,0.8-0.17,1.65-0.39,2.45
		c-0.46,1.68-1.52,2.99-2.82,4.11c-1.33,1.15-2.53,2.4-3.42,3.94c-1.01,1.75-1.34,3.63-1.1,5.62c0.05,0.45,0.22,0.89,0.33,1.33
		c0.02,0.08,0.02,0.17,0.05,0.25c0.43,1.22,1.18,2.21,2.17,3.01c0.88,0.71,1.91,1.13,3.05,1.22c0.59,0.05,1.19,0.04,1.78,0
		C65.81,38.09,66.2,37.95,66.6,37.86z M58.78,51.05c2.21-0.11,4.39-0.15,6.55-0.35c2.15-0.2,4.29-0.52,6.42-0.84
		c1.55-0.23,3.06-0.67,4.51-1.28c0.72-0.3,1.41-0.67,1.9-1.31c0.42-0.54,0.38-1.05-0.17-1.45c-0.33-0.24-0.71-0.47-1.1-0.58
		c-1.12-0.3-2.25-0.56-3.39-0.79c-0.98-0.19-1.97-0.41-2.97-0.45c-1.42-0.05-2.85,0.03-4.28,0.13c-0.62,0.05-1.24,0.26-1.83,0.47
		c-0.45,0.16-0.45,0.47-0.02,0.69c0.3,0.15,0.65,0.23,0.98,0.32c0.85,0.25,1.73,0.42,2.55,0.74c0.58,0.23,0.59,0.67,0.09,1.05
		c-0.23,0.17-0.47,0.36-0.74,0.43c-1.04,0.29-2.08,0.58-3.13,0.79c-2.37,0.46-4.77,0.48-7.16,0.3c-2.31-0.18-4.61-0.51-6.91-0.83
		c-1.14-0.16-2.26-0.46-3.25-1.09c-0.97-0.62-1.11-1.54-0.31-2.36c0.87-0.89,2-1.34,3.14-1.75c0.14-0.05,0.25-0.16,0.37-0.24
		c-0.15-0.04-0.31-0.12-0.45-0.1c-0.64,0.11-1.28,0.22-1.91,0.39c-1.34,0.38-2.69,0.74-4,1.22c-1.12,0.41-2.22,0.9-3.04,1.84
		c-0.66,0.76-0.63,1.49,0.13,2.14c0.83,0.71,1.85,1.07,2.88,1.33c1.76,0.46,3.53,0.84,5.35,0.9c0.27,0.01,0.54,0.04,0.82,0.07
		c0.82,0.1,1.63,0.25,2.45,0.3C54.45,50.88,56.63,50.96,58.78,51.05z M51.14,88.66c0.6,0,1.16,0.01,1.72-0.01
		c0.08,0,0.2-0.16,0.23-0.26c0.35-1.6,0.69-3.21,1.03-4.81c0.21-0.97,0.41-1.94,0.62-2.91c0.12,0.24,0.15,0.47,0.16,0.71
		c0.15,2.35,0.29,4.7,0.45,7.04c0.01,0.08,0.15,0.22,0.24,0.23c0.43,0.02,0.87,0,1.3,0.02c0.25,0.01,0.33-0.06,0.38-0.32
		c0.53-2.54,1.07-5.07,1.61-7.6c0.42-1.97,0.83-3.94,1.26-5.91c0.06-0.27,0.01-0.32-0.25-0.31c-0.39,0.02-0.78,0.03-1.17,0
		c-0.34-0.03-0.46,0.09-0.53,0.42c-0.51,2.45-1.03,4.9-1.56,7.35c-0.02,0.08-0.06,0.15-0.1,0.22c-0.2-2.24-0.33-4.46-0.47-6.68
		c-0.03-0.43,0.07-1.05-0.16-1.23c-0.28-0.22-0.86-0.04-1.3-0.08c-0.38-0.04-0.51,0.1-0.58,0.46c-0.73,3.49-1.48,6.98-2.22,10.48
		C51.59,86.51,51.37,87.57,51.14,88.66z M85.03,64.14c0.04,0,0.08,0,0.12,0c0.09,1.34,0.17,2.68,0.26,4.01
		c0.07,1.18,0.16,2.36,0.22,3.54c0.01,0.27,0.1,0.34,0.36,0.32c0.39-0.02,0.78-0.03,1.17,0c0.26,0.02,0.35-0.08,0.4-0.31
		c0.94-4.46,1.88-8.93,2.84-13.39c0.06-0.28-0.05-0.28-0.25-0.27c-0.4,0.01-0.81,0.03-1.21-0.01c-0.32-0.03-0.41,0.11-0.47,0.39
		c-0.37,1.82-0.76,3.63-1.15,5.45c-0.15,0.69-0.3,1.37-0.45,2.06c-0.12-0.18-0.14-0.34-0.15-0.51c-0.13-2.18-0.25-4.35-0.38-6.53
		c-0.05-0.85-0.06-0.85-0.9-0.85c-0.2,0-0.41,0.02-0.61-0.01c-0.31-0.04-0.41,0.09-0.47,0.38c-0.37,1.83-0.77,3.66-1.16,5.49
		c-0.55,2.6-1.11,5.21-1.67,7.81c-0.05,0.24,0.01,0.3,0.24,0.29c0.43-0.02,0.87-0.02,1.3,0c0.23,0.01,0.31-0.06,0.36-0.3
		c0.36-1.75,0.73-3.49,1.11-5.24C84.7,65.71,84.87,64.93,85.03,64.14z M89.22,77.05c0.01-1.52-0.53-2.36-1.47-2.59
		c-0.64-0.16-1.27-0.13-1.87,0.12c-1.33,0.55-1.99,1.65-2.29,2.99c-0.5,2.26-0.98,4.53-1.45,6.8c-0.16,0.77-0.32,1.56-0.35,2.34
		c-0.04,1.02,0.54,1.82,1.38,2.02c0.96,0.23,1.86,0.1,2.67-0.51c0.86-0.65,1.35-1.53,1.57-2.56c0.44-2.01,0.87-4.02,1.29-6.04
		C88.9,78.66,89.08,77.7,89.22,77.05z M80.22,74.31c-0.39,0.09-0.8,0.13-1.17,0.28c-1.25,0.51-1.92,1.54-2.22,2.79
		c-0.41,1.75-0.77,3.51-1.13,5.27c-0.26,1.24-0.54,2.48-0.72,3.73c-0.16,1.13,0.44,2.1,1.36,2.33c1.06,0.26,2.03,0.07,2.87-0.66
		c0.79-0.68,1.21-1.56,1.42-2.56c0.4-1.84,0.79-3.68,1.18-5.53c0.22-1.04,0.46-2.08,0.58-3.14C82.56,75.34,81.66,74.37,80.22,74.31z
		 M62.16,69.04c-0.05,0-0.1,0-0.16,0c0,0.87,0.01,1.73-0.01,2.6c-0.01,0.29,0.05,0.41,0.37,0.39c0.43-0.03,0.87-0.03,1.3,0
		c0.33,0.02,0.41-0.08,0.41-0.4c0.01-1.78,0.06-3.55,0.08-5.33c0-0.61,0.12-1.08,0.59-1.58c1.16-1.26,1.5-2.87,1.39-4.54
		c-0.08-1.21-0.69-1.85-1.88-2.02c-0.91-0.12-1.84-0.08-2.76-0.08c-0.09,0-0.23,0.18-0.25,0.3c-0.52,2.4-1.04,4.81-1.55,7.22
		c-0.43,2.03-0.86,4.05-1.29,6.08c-0.06,0.28-0.01,0.38,0.3,0.36c0.45-0.03,0.9-0.02,1.34,0c0.3,0.02,0.38-0.09,0.43-0.38
		c0.35-1.75,0.74-3.49,1.09-5.24c0.06-0.3,0.2-0.28,0.41-0.29c0.32-0.01,0.2,0.22,0.2,0.36C62.16,67.34,62.16,68.19,62.16,69.04z
		 M37.04,83.37c0.18,0,0.33,0.02,0.49,0c0.29-0.04,0.34,0.07,0.27,0.34c-0.1,0.38-0.14,0.76-0.24,1.14
		c-0.15,0.58-0.3,1.17-0.51,1.73c-0.12,0.33-0.45,0.44-0.8,0.35c-0.34-0.09-0.34-0.39-0.34-0.67c0-0.11,0.01-0.23,0.03-0.34
		c0.6-2.83,1.2-5.66,1.82-8.48c0.06-0.3,0.22-0.61,0.43-0.82c0.15-0.14,0.48-0.19,0.7-0.14C39,76.5,39.11,76.81,39.14,77
		c0.03,0.21-0.02,0.43-0.06,0.64c-0.11,0.56-0.23,1.13-0.36,1.69c-0.05,0.21,0,0.29,0.22,0.28c0.52-0.01,1.04,0.01,1.56-0.01
		c0.1,0,0.26-0.12,0.28-0.21c0.18-0.81,0.4-1.63,0.49-2.45c0.19-1.77-1.01-2.83-2.76-2.51c-1.52,0.28-2.32,1.34-2.74,2.7
		c-0.3,0.97-0.46,1.99-0.67,2.99c-0.44,2.04-0.88,4.08-1.29,6.12c-0.35,1.74,0.79,2.93,2.4,2.5c0.44-0.12,0.84-0.41,1.28-0.64
		c-0.09,0.69,0.4,0.58,0.85,0.56c0.07,0,0.15-0.01,0.22,0c0.21,0.02,0.3-0.04,0.34-0.27c0.1-0.6,0.24-1.18,0.37-1.77
		c0.33-1.55,0.66-3.1,0.99-4.64c0.05-0.23,0.06-0.37-0.27-0.36c-0.76,0.03-1.53,0.02-2.29,0c-0.22,0-0.31,0.08-0.35,0.27
		C37.24,82.37,37.14,82.85,37.04,83.37z M69.21,65.71c0.01,0.1,0.03,0.19,0.03,0.27c0.05,1.9,0.1,3.81,0.13,5.71
		c0,0.26,0.06,0.35,0.33,0.33c0.42-0.03,0.84-0.03,1.25,0c0.34,0.02,0.43-0.07,0.42-0.42c-0.06-2.86-0.11-5.71-0.14-8.57
		c0-0.23,0.07-0.49,0.19-0.68c0.79-1.3,1.61-2.59,2.41-3.89c0.08-0.12,0.15-0.25,0.25-0.41c-0.61,0-1.13,0.02-1.64-0.01
		c-0.27-0.01-0.41,0.09-0.54,0.32c-0.72,1.28-1.46,2.54-2.2,3.81c-0.14,0.24-0.29,0.48-0.44,0.73c-0.03-0.01-0.05-0.02-0.08-0.03
		c0.34-1.59,0.68-3.18,1.03-4.82c-0.58,0-1.13,0.02-1.67-0.01c-0.32-0.02-0.41,0.1-0.47,0.39c-0.35,1.72-0.73,3.43-1.09,5.15
		c-0.58,2.72-1.15,5.43-1.73,8.15c-0.05,0.24,0.01,0.3,0.24,0.29c0.5-0.02,1.01,0.01,1.51-0.02c0.1-0.01,0.27-0.14,0.29-0.24
		c0.25-1.08,0.5-2.16,0.69-3.25C68.15,67.48,68.48,66.53,69.21,65.71z M93.03,71.44c-0.09,0.61,0.31,0.62,0.76,0.58
		c0.1-0.01,0.22,0.03,0.3-0.01c0.12-0.05,0.29-0.15,0.31-0.25c0.46-2.14,0.9-4.28,1.36-6.42c0.06-0.28-0.04-0.28-0.24-0.28
		c-0.46,0.01-0.92,0-1.39,0c-0.39,0-0.91-0.13-1.13,0.07c-0.25,0.22-0.23,0.74-0.31,1.13c-0.11,0.51-0.1,0.52,0.42,0.52
		c0.23,0,0.29,0.04,0.23,0.29c-0.18,0.73-0.3,1.47-0.48,2.19c-0.07,0.28-0.19,0.6-0.38,0.8c-0.15,0.15-0.48,0.25-0.68,0.19
		c-0.15-0.04-0.26-0.36-0.32-0.57c-0.04-0.14,0.01-0.31,0.04-0.47c0.33-1.58,0.66-3.15,1-4.73c0.28-1.29,0.55-2.59,0.86-3.87
		c0.13-0.54,0.56-0.82,0.93-0.72c0.34,0.09,0.46,0.47,0.34,1.04c-0.13,0.59-0.25,1.18-0.39,1.77c-0.05,0.23-0.06,0.38,0.27,0.36
		c0.49-0.03,0.98,0,1.47-0.02c0.1,0,0.26-0.1,0.28-0.17c0.17-0.99,0.42-1.98,0.46-2.98c0.05-1.14-0.71-1.92-1.79-2
		c-0.49-0.03-1.03,0.01-1.48,0.19c-1.29,0.5-1.94,1.58-2.24,2.87c-0.37,1.6-0.7,3.21-1.03,4.81c-0.28,1.35-0.63,2.7-0.81,4.06
		c-0.23,1.76,0.96,2.62,2.46,2.21C92.25,71.96,92.61,71.67,93.03,71.44z M43.37,88.66c0.61,0,1.17-0.01,1.73,0
		c0.23,0.01,0.32-0.07,0.39-0.29c0.25-0.78,0.51-1.55,0.8-2.32c0.04-0.12,0.22-0.25,0.34-0.26c0.49-0.03,0.98-0.01,1.47-0.02
		c0.2,0,0.27,0.04,0.25,0.27c-0.07,0.77-0.11,1.55-0.18,2.33c-0.02,0.25,0.05,0.29,0.27,0.29c0.46-0.01,0.92-0.02,1.38,0
		c0.31,0.02,0.38-0.09,0.4-0.38c0.05-1.2,0.12-2.39,0.2-3.59c0.2-3.3,0.4-6.59,0.61-9.89c0.02-0.25-0.06-0.29-0.27-0.28
		c-0.61,0.01-1.21,0.02-1.82,0c-0.32-0.01-0.47,0.08-0.58,0.39c-1.19,3.31-2.39,6.62-3.59,9.92C44.3,86.1,43.84,87.37,43.37,88.66z
		 M50.65,72.02c0.61,0,1.15-0.01,1.7,0c0.22,0.01,0.32-0.06,0.39-0.28c0.24-0.75,0.52-1.49,0.75-2.25c0.08-0.28,0.21-0.35,0.48-0.34
		c0.42,0.02,0.84,0.03,1.26,0c0.34-0.03,0.37,0.11,0.34,0.4c-0.07,0.73-0.11,1.47-0.17,2.2c-0.02,0.21,0.02,0.28,0.24,0.27
		c0.4-0.02,0.81-0.03,1.21,0c0.42,0.04,0.55-0.08,0.57-0.52c0.1-2.18,0.26-4.35,0.39-6.52c0.13-2.2,0.26-4.41,0.39-6.61
		c0.02-0.24-0.03-0.33-0.29-0.32c-0.61,0.02-1.21,0.02-1.82,0c-0.29-0.01-0.42,0.07-0.52,0.36c-0.73,2.04-1.48,4.08-2.22,6.12
		C52.46,67,51.56,69.49,50.65,72.02z M72.17,74.56c0-0.01,0-0.02,0-0.03c-0.32,0-0.64,0.03-0.95-0.01
		c-0.38-0.05-0.48,0.12-0.55,0.45c-0.44,2.14-0.9,4.28-1.36,6.42c-0.49,2.32-0.98,4.64-1.48,6.97c-0.06,0.26,0.02,0.32,0.27,0.31
		c0.48-0.02,0.95-0.02,1.43,0c0.27,0.01,0.35-0.08,0.41-0.34c0.34-1.66,0.7-3.32,1.04-4.98c0.05-0.23,0.12-0.32,0.37-0.34
		c0.99-0.07,1.89-0.4,2.6-1.11c1.37-1.37,1.9-3.08,1.78-4.97c-0.09-1.38-0.88-2.15-2.23-2.35C73.07,74.5,72.62,74.56,72.17,74.56z
		 M96.27,84.5c-0.18,0.02-0.38,0.04-0.57,0.07c-0.49,0.08-1.18,0-1.42,0.29c-0.29,0.35-0.24,1.01-0.27,1.54
		c-0.07,1.09,0.36,1.88,1.16,2.21c1.34,0.55,3.06,0.12,3.88-1.06c1-1.43,1.41-3,0.77-4.7c-0.45-1.18-0.99-2.32-1.49-3.48
		c-0.39-0.9-0.42-1.8,0.1-2.64c0.13-0.21,0.48-0.42,0.72-0.41c0.35,0,0.44,0.38,0.45,0.69c0,0.36-0.06,0.72-0.07,1.07
		c0,0.07,0.12,0.2,0.18,0.2c0.53-0.03,1.07-0.06,1.59-0.13c0.11-0.01,0.27-0.17,0.28-0.28c0.06-0.48,0.11-0.98,0.1-1.46
		c-0.03-1.29-0.74-1.99-2.02-2.03c-1.4-0.05-2.63,0.78-3.26,2.15c-0.63,1.37-0.59,2.74-0.04,4.11c0.42,1.05,0.91,2.08,1.37,3.12
		c0.39,0.91,0.35,1.8-0.15,2.65c-0.2,0.34-0.5,0.59-0.92,0.49c-0.44-0.1-0.51-0.49-0.5-0.85C96.16,85.54,96.23,85.04,96.27,84.5z
		 M44.52,72.02c0.6,0,1.15-0.02,1.7,0.01c0.29,0.01,0.39-0.09,0.45-0.37c0.33-1.62,0.69-3.24,1.01-4.86c0.06-0.32,0.2-0.39,0.48-0.4
		c0.83-0.04,1.6-0.31,2.22-0.86c1.65-1.45,2.22-3.33,1.97-5.45c-0.12-1.06-0.82-1.8-1.92-1.94c-0.85-0.11-1.73-0.07-2.59-0.1
		c-0.25-0.01-0.36,0.05-0.42,0.33c-0.39,1.93-0.81,3.86-1.22,5.78C45.63,66.77,45.08,69.37,44.52,72.02z M38.16,69.74
		c0.03,1.01,0.2,1.79,1.09,2.2c1.07,0.49,2.68,0.26,3.52-0.58c1.07-1.08,1.59-2.44,1.38-3.93c-0.13-0.95-0.54-1.86-0.88-2.78
		c-0.28-0.75-0.66-1.47-0.95-2.22c-0.32-0.82-0.19-1.62,0.31-2.34c0.12-0.17,0.42-0.3,0.62-0.27c0.16,0.02,0.38,0.28,0.4,0.46
		c0.05,0.39,0.04,0.8-0.03,1.19c-0.06,0.32,0.06,0.32,0.3,0.3c0.49-0.06,0.98-0.09,1.46-0.16c0.11-0.02,0.27-0.16,0.28-0.26
		c0.06-0.5,0.14-1.01,0.11-1.5c-0.07-1.05-0.51-1.7-1.34-1.83c-0.58-0.09-1.22-0.1-1.78,0.06c-1.64,0.46-2.81,2.61-2.55,4.44
		c0.16,1.1,0.6,2.09,1.05,3.09c0.32,0.69,0.63,1.39,0.86,2.11c0.26,0.82,0.06,1.61-0.49,2.27c-0.15,0.18-0.52,0.3-0.76,0.26
		c-0.17-0.03-0.41-0.35-0.42-0.55c-0.04-0.49,0.02-1,0.06-1.49c0.01-0.16,0.05-0.28-0.19-0.26c-0.53,0.06-1.06,0.09-1.59,0.16
		c-0.1,0.01-0.25,0.15-0.26,0.25C38.27,68.85,38.21,69.37,38.16,69.74z M67.02,74.53c-1.96,0-3.89,0-5.83,0.01
		c-0.07,0-0.19,0.11-0.21,0.19c-0.13,0.54-0.23,1.1-0.37,1.64c-0.08,0.29,0.06,0.31,0.28,0.3c0.4-0.01,0.81,0.02,1.21-0.01
		c0.33-0.02,0.41,0.06,0.34,0.4c-0.57,2.64-1.13,5.29-1.69,7.93c-0.26,1.21-0.51,2.42-0.77,3.67c0.54,0,1.05-0.03,1.55,0.01
		c0.43,0.04,0.57-0.12,0.66-0.53c0.77-3.72,1.56-7.43,2.34-11.15c0.05-0.24,0.13-0.34,0.39-0.33c0.46,0.02,0.92,0.02,1.38-0.01
		c0.11-0.01,0.27-0.14,0.3-0.24C66.75,75.8,66.87,75.18,67.02,74.53z M88.17,88.66c1.57,0,3.11,0,4.65-0.01
		c0.08,0,0.19-0.13,0.22-0.22c0.12-0.47,0.21-0.96,0.33-1.43c0.06-0.24-0.05-0.26-0.24-0.26c-0.71,0.01-1.42-0.01-2.12,0.01
		c-0.29,0.01-0.34-0.09-0.28-0.35c0.36-1.66,0.72-3.32,1.07-4.98c0.47-2.19,0.93-4.39,1.41-6.58c0.05-0.23,0.02-0.34-0.26-0.32
		c-0.48,0.02-0.95,0.02-1.43,0c-0.26-0.01-0.36,0.06-0.41,0.34c-0.52,2.53-1.07,5.07-1.61,7.6C89.04,84.51,88.61,86.56,88.17,88.66z
		 M77.49,70.11c-0.84,0-1.62-0.01-2.4,0.01c-0.27,0.01-0.31-0.09-0.26-0.32c0.16-0.72,0.31-1.44,0.46-2.15
		c0.65-3.05,1.3-6.11,1.97-9.16c0.09-0.42-0.03-0.48-0.39-0.45c-0.37,0.03-0.75,0.04-1.12,0c-0.39-0.04-0.5,0.12-0.57,0.48
		c-0.46,2.26-0.95,4.51-1.42,6.76c-0.47,2.24-0.95,4.47-1.43,6.74c1.54,0,3.06,0,4.57-0.01c0.09,0,0.22-0.12,0.25-0.21
		C77.27,71.25,77.37,70.7,77.49,70.11z M40.35,88.66c0.59,0,1.15-0.02,1.71,0.01c0.28,0.01,0.39-0.07,0.45-0.36
		c0.53-2.54,1.07-5.07,1.61-7.6c0.41-1.93,0.81-3.86,1.24-5.78c0.07-0.32,0.02-0.43-0.33-0.4c-0.45,0.03-0.9,0.02-1.34,0
		c-0.27-0.01-0.36,0.08-0.41,0.35c-0.5,2.4-1.02,4.79-1.53,7.18C41.28,84.24,40.82,86.43,40.35,88.66z M82.95,58.06
		c-0.6,0-1.14,0.02-1.67-0.01c-0.31-0.02-0.41,0.09-0.48,0.39c-0.61,2.94-1.25,5.88-1.87,8.82c-0.33,1.57-0.66,3.15-1,4.76
		c0.63,0,1.24,0.01,1.84-0.01c0.09,0,0.23-0.17,0.26-0.28c0.64-2.97,1.27-5.93,1.9-8.9C82.27,61.25,82.61,59.68,82.95,58.06z
		 M88.69,43.83c-0.55,0.08-1.19,0.17-1.83,0.29c-0.12,0.02-0.22,0.16-0.33,0.24c0.08,0.09,0.14,0.2,0.23,0.28
		c0.13,0.11,0.28,0.2,0.42,0.31c0.49,0.4,0.57,0.85,0.15,1.3c-0.31,0.34-0.72,0.59-1.08,0.88c-0.06,0.05-0.09,0.15-0.14,0.23
		c0.07,0.01,0.14,0.04,0.2,0.02c0.74-0.25,1.49-0.47,2.2-0.78c0.74-0.33,1.47-0.72,2.15-1.17c0.23-0.15,0.44-0.6,0.37-0.83
		c-0.08-0.26-0.45-0.52-0.75-0.6C89.81,43.87,89.3,43.89,88.69,43.83z M72.11,101.67c-0.04-0.25-0.06-0.49-0.13-0.7
		c-0.14-0.46-0.45-0.69-0.87-0.69c-0.42,0-0.79,0.22-0.86,0.69c-0.08,0.47-0.06,0.97,0.03,1.43c0.07,0.37,0.39,0.57,0.81,0.58
		c0.43,0.01,0.72-0.2,0.87-0.58C72.04,102.16,72.06,101.9,72.11,101.67z M76.34,101.58c0.05,0.28,0.06,0.51,0.13,0.72
		c0.14,0.47,0.44,0.68,0.88,0.68c0.44,0,0.79-0.21,0.86-0.68c0.07-0.49,0.03-1.02-0.07-1.5c-0.08-0.36-0.43-0.52-0.81-0.51
		c-0.36,0.01-0.65,0.17-0.78,0.51C76.44,101.05,76.4,101.34,76.34,101.58z M54.2,101.65c-0.01,0-0.01,0-0.02,0
		c0.02,0.43-0.11,1.02,0.11,1.24c0.23,0.22,0.81,0.07,1.24,0.08c0.04,0,0.1,0.02,0.13,0c0.08-0.07,0.15-0.15,0.22-0.22
		c-0.08-0.07-0.15-0.19-0.24-0.2c-0.21-0.03-0.44,0.01-0.65-0.02c-0.1-0.02-0.23-0.13-0.25-0.23c-0.08-0.32,0.02-0.53,0.41-0.46
		c0.1,0.02,0.21,0.02,0.3-0.01c0.07-0.02,0.18-0.12,0.17-0.17c-0.01-0.09-0.08-0.21-0.16-0.24c-0.1-0.04-0.23-0.01-0.34-0.01
		c-0.22,0.01-0.41,0.03-0.41-0.32c0.01-0.32,0.13-0.4,0.41-0.37c0.16,0.02,0.32,0.02,0.47-0.01c0.1-0.02,0.18-0.11,0.27-0.17
		c-0.08-0.08-0.16-0.23-0.25-0.24c-1.43-0.15-1.43-0.15-1.43,1.26C54.2,101.59,54.2,101.62,54.2,101.65z M57.93,103.02
		c0.51-0.04,0.87-0.3,0.95-0.71c0.09-0.45-0.1-0.72-0.64-0.91c-0.12-0.04-0.26-0.07-0.36-0.15c-0.09-0.07-0.19-0.21-0.17-0.3
		c0.02-0.1,0.17-0.22,0.27-0.23c0.15-0.02,0.3,0.08,0.45,0.09c0.11,0,0.23-0.07,0.34-0.11c-0.05-0.1-0.08-0.28-0.14-0.29
		c-0.32-0.05-0.65-0.11-0.96-0.06c-0.35,0.06-0.51,0.37-0.51,0.71c0,0.33,0.18,0.57,0.51,0.68c0.15,0.05,0.32,0.08,0.44,0.17
		c0.11,0.08,0.26,0.28,0.22,0.34c-0.06,0.12-0.23,0.25-0.37,0.26c-0.15,0.01-0.32-0.12-0.48-0.13c-0.11-0.01-0.23,0.08-0.35,0.13
		c0.05,0.1,0.07,0.24,0.15,0.28C57.49,102.89,57.72,102.95,57.93,103.02z M67.84,102.51c0.18-0.19,0.32-0.33,0.45-0.48
		c0.14-0.15,0.28-0.29,0.4-0.45c0.29-0.43,0.21-0.94-0.17-1.18c-0.45-0.27-1.09-0.11-1.3,0.35c-0.04,0.09-0.02,0.2-0.03,0.3
		c0.14-0.01,0.28,0,0.41-0.03c0.05-0.01,0.07-0.15,0.12-0.17c0.15-0.06,0.33-0.15,0.46-0.1c0.09,0.03,0.19,0.28,0.16,0.39
		c-0.07,0.22-0.19,0.45-0.34,0.63c-0.24,0.29-0.53,0.53-0.78,0.81c-0.07,0.08-0.08,0.2-0.12,0.31c0.1,0.03,0.2,0.08,0.3,0.08
		c0.42,0.01,0.84,0.02,1.25,0c0.1-0.01,0.2-0.12,0.29-0.18c-0.1-0.09-0.2-0.23-0.31-0.25C68.39,102.48,68.15,102.51,67.84,102.51z
		 M60.85,101.85c0,0.22-0.01,0.43,0,0.65c0.02,0.19-0.14,0.48,0.28,0.47c0.4-0.01,0.25-0.27,0.26-0.45c0.02-0.48,0.03-0.95,0-1.43
		c-0.02-0.3,0.09-0.39,0.37-0.35c0.07,0.01,0.16,0.03,0.21-0.01c0.08-0.04,0.2-0.14,0.19-0.19c-0.02-0.09-0.12-0.24-0.19-0.24
		c-0.56-0.02-1.12-0.02-1.69,0c-0.07,0-0.17,0.15-0.19,0.24c-0.01,0.05,0.13,0.2,0.19,0.19c0.61-0.11,0.61,0.26,0.57,0.69
		C60.84,101.56,60.85,101.7,60.85,101.85z M74.12,101.12c0,0.29-0.01,0.66,0,1.03c0.01,0.26,0.03,0.51-0.36,0.46
		c-0.05-0.01-0.16,0.12-0.16,0.18c0,0.06,0.11,0.16,0.17,0.16c0.37,0.02,0.75,0.02,1.12,0c0.06,0,0.17-0.1,0.17-0.16
		c0-0.06-0.1-0.19-0.15-0.18c-0.31,0.02-0.31-0.16-0.31-0.38c0.01-0.53,0.01-1.07,0-1.6c0-0.35-0.19-0.45-0.49-0.26
		c-0.11,0.07-0.21,0.16-0.29,0.25c-0.13,0.16-0.24,0.33-0.37,0.49C73.67,101.12,73.88,101.12,74.12,101.12z"/>
	<path class="st1" d="M58.78,51.05c-2.15-0.1-4.33-0.18-6.5-0.3c-0.82-0.05-1.63-0.2-2.45-0.3c-0.27-0.03-0.54-0.06-0.82-0.07
		c-1.82-0.06-3.6-0.45-5.35-0.9c-1.03-0.27-2.04-0.62-2.88-1.33c-0.76-0.65-0.79-1.38-0.13-2.14c0.82-0.94,1.92-1.43,3.04-1.84
		c1.31-0.48,2.66-0.84,4-1.22c0.62-0.18,1.27-0.28,1.91-0.39c0.14-0.02,0.3,0.06,0.45,0.1c-0.12,0.08-0.24,0.19-0.37,0.24
		c-1.15,0.41-2.28,0.87-3.14,1.75c-0.8,0.82-0.66,1.74,0.31,2.36c0.99,0.63,2.11,0.93,3.25,1.09c2.3,0.32,4.6,0.66,6.91,0.83
		c2.39,0.18,4.79,0.16,7.16-0.3c1.05-0.21,2.09-0.5,3.13-0.79c0.27-0.07,0.51-0.26,0.74-0.43c0.5-0.38,0.49-0.82-0.09-1.05
		c-0.82-0.32-1.7-0.5-2.55-0.74c-0.33-0.09-0.67-0.17-0.98-0.32c-0.43-0.22-0.42-0.53,0.02-0.69c0.59-0.21,1.21-0.43,1.83-0.47
		c1.42-0.11,2.85-0.18,4.28-0.13c0.99,0.03,1.99,0.25,2.97,0.45c1.14,0.23,2.27,0.49,3.39,0.79c0.39,0.11,0.77,0.34,1.1,0.58
		c0.56,0.4,0.6,0.91,0.17,1.45c-0.5,0.63-1.18,1.01-1.9,1.31c-1.45,0.61-2.96,1.05-4.51,1.28c-2.14,0.32-4.27,0.65-6.42,0.84
		C63.17,50.9,60.98,50.94,58.78,51.05z"/>
	<path class="st2" d="M51.14,88.66c0.23-1.09,0.45-2.15,0.67-3.2c0.74-3.49,1.49-6.98,2.22-10.48c0.07-0.36,0.2-0.5,0.58-0.46
		c0.44,0.04,1.02-0.14,1.3,0.08c0.23,0.18,0.13,0.8,0.16,1.23c0.14,2.22,0.27,4.44,0.47,6.68c0.03-0.07,0.08-0.14,0.1-0.22
		c0.52-2.45,1.05-4.9,1.56-7.35c0.07-0.33,0.19-0.45,0.53-0.42c0.39,0.04,0.78,0.02,1.17,0c0.25-0.01,0.31,0.04,0.25,0.31
		c-0.43,1.97-0.84,3.94-1.26,5.91c-0.54,2.53-1.09,5.07-1.61,7.6c-0.05,0.25-0.14,0.33-0.38,0.32c-0.43-0.02-0.87,0.01-1.3-0.02
		c-0.09,0-0.24-0.14-0.24-0.23c-0.16-2.35-0.3-4.7-0.45-7.04c-0.01-0.24-0.04-0.47-0.16-0.71c-0.21,0.97-0.41,1.94-0.62,2.91
		c-0.34,1.6-0.68,3.21-1.03,4.81c-0.02,0.1-0.14,0.26-0.23,0.26C52.3,88.67,51.74,88.66,51.14,88.66z"/>
	<path class="st2" d="M85.03,64.14c-0.17,0.78-0.33,1.56-0.5,2.34c-0.37,1.75-0.75,3.49-1.11,5.24c-0.05,0.24-0.13,0.31-0.36,0.3
		c-0.43-0.02-0.87-0.02-1.3,0c-0.23,0.01-0.29-0.04-0.24-0.29c0.56-2.6,1.11-5.21,1.67-7.81c0.39-1.83,0.78-3.66,1.16-5.49
		c0.06-0.3,0.16-0.43,0.47-0.38c0.2,0.03,0.4,0.01,0.61,0.01c0.84,0,0.85,0,0.9,0.85c0.13,2.18,0.25,4.35,0.38,6.53
		c0.01,0.17,0.03,0.33,0.15,0.51c0.15-0.69,0.3-1.37,0.45-2.06c0.39-1.82,0.78-3.63,1.15-5.45c0.06-0.28,0.14-0.42,0.47-0.39
		c0.4,0.04,0.81,0.01,1.21,0.01c0.2,0,0.31-0.01,0.25,0.27c-0.96,4.46-1.9,8.92-2.84,13.39c-0.05,0.23-0.14,0.33-0.4,0.31
		c-0.39-0.03-0.78-0.02-1.17,0c-0.26,0.02-0.35-0.06-0.36-0.32c-0.06-1.18-0.14-2.36-0.22-3.54c-0.08-1.34-0.17-2.68-0.26-4.01
		C85.11,64.15,85.07,64.15,85.03,64.14z"/>
	<path class="st2" d="M89.22,77.05c-0.13,0.65-0.32,1.61-0.52,2.57c-0.43,2.01-0.85,4.03-1.29,6.04c-0.23,1.03-0.71,1.91-1.57,2.56
		c-0.81,0.61-1.71,0.74-2.67,0.51c-0.84-0.2-1.42-0.99-1.38-2.02c0.03-0.78,0.19-1.57,0.35-2.34c0.47-2.27,0.95-4.54,1.45-6.8
		c0.3-1.34,0.96-2.44,2.29-2.99c0.6-0.25,1.23-0.27,1.87-0.12C88.69,74.69,89.22,75.52,89.22,77.05z M87.16,77.01
		c-0.08-0.14-0.17-0.43-0.36-0.55c-0.29-0.17-0.61-0.03-0.78,0.26c-0.16,0.26-0.28,0.57-0.34,0.87c-0.44,1.98-0.86,3.96-1.28,5.94
		c-0.17,0.82-0.35,1.63-0.5,2.45c-0.05,0.3-0.03,0.65,0.31,0.76c0.35,0.12,0.66-0.03,0.84-0.36c0.12-0.23,0.22-0.47,0.27-0.72
		c0.38-1.73,0.75-3.46,1.12-5.18C86.67,79.37,86.9,78.26,87.16,77.01z"/>
	<path class="st2" d="M80.22,74.31c1.44,0.06,2.34,1.03,2.17,2.52c-0.12,1.05-0.37,2.1-0.58,3.14c-0.38,1.85-0.78,3.69-1.18,5.53
		c-0.21,1-0.63,1.88-1.42,2.56c-0.84,0.73-1.81,0.92-2.87,0.66c-0.92-0.23-1.53-1.2-1.36-2.33c0.18-1.25,0.46-2.49,0.72-3.73
		c0.37-1.76,0.72-3.52,1.13-5.27c0.3-1.26,0.97-2.28,2.22-2.79C79.42,74.44,79.83,74.4,80.22,74.31z M80.36,77
		c-0.1-0.15-0.19-0.44-0.38-0.55c-0.32-0.17-0.62,0.02-0.81,0.31c-0.12,0.19-0.21,0.41-0.26,0.63c-0.44,2.04-0.87,4.07-1.3,6.11
		c-0.18,0.86-0.36,1.71-0.52,2.58c-0.05,0.27,0.01,0.57,0.33,0.67c0.32,0.09,0.63-0.02,0.78-0.31c0.16-0.3,0.28-0.63,0.35-0.96
		c0.41-1.84,0.79-3.68,1.18-5.52C79.94,79.01,80.13,78.07,80.36,77z"/>
	<path class="st2" d="M62.16,69.04c0-0.85,0-1.7,0-2.55c0-0.14,0.12-0.37-0.2-0.36c-0.21,0-0.35-0.01-0.41,0.29
		c-0.35,1.75-0.74,3.49-1.09,5.24c-0.06,0.28-0.14,0.39-0.43,0.38c-0.45-0.02-0.9-0.03-1.34,0c-0.3,0.02-0.36-0.08-0.3-0.36
		c0.44-2.03,0.86-4.05,1.29-6.08c0.51-2.41,1.03-4.81,1.55-7.22c0.03-0.12,0.16-0.3,0.25-0.3c0.92,0,1.86-0.04,2.76,0.08
		c1.19,0.16,1.8,0.81,1.88,2.02c0.11,1.67-0.24,3.28-1.39,4.54c-0.47,0.51-0.58,0.97-0.59,1.58c-0.01,1.78-0.06,3.55-0.08,5.33
		c0,0.32-0.08,0.43-0.41,0.4c-0.43-0.03-0.87-0.03-1.3,0c-0.32,0.02-0.37-0.1-0.37-0.39c0.02-0.87,0.01-1.73,0.01-2.6
		C62.06,69.04,62.11,69.04,62.16,69.04z M64.08,61.5c0.01-0.96-0.27-1.36-0.91-1.4c-0.1-0.01-0.28,0.1-0.29,0.18
		c-0.28,1.23-0.53,2.47-0.8,3.71c-0.06,0.27,0.08,0.25,0.25,0.23c0.52-0.07,0.9-0.36,1.17-0.8C63.9,62.79,64.03,62.09,64.08,61.5z"
		/>
	<path class="st2" d="M37.04,83.37c0.1-0.52,0.2-1,0.29-1.48c0.04-0.2,0.13-0.28,0.35-0.27c0.76,0.02,1.53,0.02,2.29,0
		c0.32-0.01,0.32,0.13,0.27,0.36c-0.33,1.55-0.66,3.1-0.99,4.64c-0.13,0.59-0.27,1.18-0.37,1.77c-0.04,0.23-0.13,0.29-0.34,0.27
		c-0.07-0.01-0.14,0-0.22,0c-0.44,0.02-0.94,0.12-0.85-0.56c-0.44,0.22-0.84,0.52-1.28,0.64c-1.61,0.43-2.75-0.76-2.4-2.5
		c0.41-2.04,0.86-4.08,1.29-6.12c0.21-1,0.37-2.01,0.67-2.99c0.42-1.36,1.22-2.41,2.74-2.7c1.75-0.33,2.95,0.74,2.76,2.51
		c-0.09,0.83-0.31,1.64-0.49,2.45c-0.02,0.09-0.18,0.21-0.28,0.21c-0.52,0.02-1.04,0-1.56,0.01c-0.23,0.01-0.27-0.07-0.22-0.28
		c0.13-0.56,0.25-1.12,0.36-1.69c0.04-0.21,0.09-0.43,0.06-0.64c-0.03-0.19-0.13-0.5-0.26-0.53c-0.22-0.05-0.55-0.01-0.7,0.14
		c-0.21,0.21-0.36,0.52-0.43,0.82c-0.62,2.82-1.22,5.65-1.82,8.48c-0.02,0.11-0.03,0.23-0.03,0.34c0,0.28,0,0.58,0.34,0.67
		c0.34,0.09,0.67-0.02,0.8-0.35c0.21-0.56,0.36-1.15,0.51-1.73c0.1-0.37,0.15-0.76,0.24-1.14c0.07-0.26,0.02-0.37-0.27-0.34
		C37.37,83.39,37.21,83.37,37.04,83.37z"/>
	<path class="st2" d="M69.21,65.71c-0.73,0.82-1.05,1.77-1.23,2.81c-0.19,1.09-0.44,2.17-0.69,3.25C67.26,71.87,67.1,72,67,72.01
		c-0.5,0.03-1.01,0-1.51,0.02c-0.23,0.01-0.29-0.05-0.24-0.29c0.58-2.71,1.15-5.43,1.73-8.15c0.36-1.72,0.74-3.43,1.09-5.15
		c0.06-0.29,0.15-0.41,0.47-0.39c0.54,0.03,1.09,0.01,1.67,0.01c-0.35,1.63-0.69,3.23-1.03,4.82c0.03,0.01,0.05,0.02,0.08,0.03
		c0.15-0.24,0.3-0.48,0.44-0.73c0.73-1.27,1.47-2.54,2.2-3.81c0.13-0.22,0.26-0.33,0.54-0.32c0.52,0.03,1.04,0.01,1.64,0.01
		c-0.1,0.17-0.17,0.29-0.25,0.41c-0.81,1.3-1.62,2.59-2.41,3.89c-0.12,0.19-0.19,0.45-0.19,0.68c0.04,2.86,0.08,5.72,0.14,8.57
		c0.01,0.34-0.09,0.44-0.42,0.42c-0.42-0.03-0.84-0.03-1.25,0c-0.27,0.02-0.33-0.07-0.33-0.33c-0.03-1.9-0.08-3.81-0.13-5.71
		C69.23,65.9,69.22,65.81,69.21,65.71z"/>
	<path class="st2" d="M93.03,71.44c-0.42,0.23-0.79,0.52-1.2,0.63c-1.5,0.41-2.7-0.46-2.46-2.21c0.18-1.37,0.53-2.71,0.81-4.06
		c0.34-1.61,0.67-3.21,1.03-4.81c0.3-1.29,0.95-2.37,2.24-2.87c0.45-0.18,0.99-0.22,1.48-0.19c1.09,0.08,1.84,0.86,1.79,2
		c-0.04,1-0.29,1.99-0.46,2.98c-0.01,0.07-0.18,0.17-0.28,0.17c-0.49,0.02-0.98-0.01-1.47,0.02c-0.32,0.02-0.32-0.14-0.27-0.36
		c0.13-0.59,0.26-1.18,0.39-1.77c0.12-0.57,0-0.95-0.34-1.04c-0.37-0.1-0.79,0.18-0.93,0.72c-0.31,1.29-0.58,2.58-0.86,3.87
		c-0.34,1.58-0.67,3.15-1,4.73c-0.03,0.15-0.09,0.33-0.04,0.47c0.06,0.21,0.17,0.52,0.32,0.57c0.2,0.06,0.53-0.04,0.68-0.19
		c0.2-0.2,0.31-0.51,0.38-0.8c0.18-0.73,0.3-1.47,0.48-2.19c0.06-0.25,0-0.29-0.23-0.29c-0.51-0.01-0.52-0.02-0.42-0.52
		c0.08-0.39,0.06-0.92,0.31-1.13c0.22-0.2,0.74-0.07,1.13-0.07c0.46-0.01,0.92,0,1.39,0c0.21,0,0.3,0,0.24,0.28
		c-0.46,2.14-0.9,4.28-1.36,6.42c-0.02,0.1-0.19,0.19-0.31,0.25c-0.08,0.04-0.2,0-0.3,0.01C93.34,72.07,92.94,72.05,93.03,71.44z"/>
	<path class="st2" d="M43.37,88.66c0.47-1.29,0.93-2.56,1.39-3.82c1.2-3.31,2.41-6.61,3.59-9.92c0.11-0.32,0.26-0.41,0.58-0.39
		c0.6,0.03,1.21,0.02,1.82,0c0.22,0,0.29,0.04,0.27,0.28c-0.21,3.3-0.41,6.59-0.61,9.89c-0.07,1.2-0.15,2.39-0.2,3.59
		c-0.01,0.29-0.09,0.4-0.4,0.38c-0.46-0.03-0.92-0.02-1.38,0c-0.22,0.01-0.3-0.04-0.27-0.29c0.07-0.77,0.11-1.55,0.18-2.33
		c0.02-0.23-0.04-0.27-0.25-0.27c-0.49,0.01-0.98-0.01-1.47,0.02c-0.12,0.01-0.3,0.14-0.34,0.26c-0.28,0.77-0.55,1.54-0.8,2.32
		c-0.07,0.22-0.17,0.29-0.39,0.29C44.54,88.65,43.97,88.66,43.37,88.66z M48.93,78.81c-0.03,0-0.06-0.01-0.09-0.01
		c-0.03,0.03-0.06,0.06-0.08,0.09c-0.51,1.48-1.01,2.95-1.53,4.43c-0.09,0.26,0.02,0.26,0.21,0.26c0.29-0.01,0.58-0.01,0.86,0
		c0.2,0.01,0.27-0.06,0.28-0.26c0.03-0.56,0.09-1.12,0.14-1.68C48.79,80.69,48.86,79.75,48.93,78.81z"/>
	<path class="st2" d="M50.65,72.02c0.92-2.53,1.82-5.02,2.72-7.5c0.74-2.04,1.49-4.07,2.22-6.12c0.1-0.28,0.23-0.37,0.52-0.36
		c0.61,0.02,1.21,0.02,1.82,0c0.26-0.01,0.31,0.07,0.29,0.32c-0.14,2.2-0.26,4.41-0.39,6.61c-0.13,2.17-0.29,4.35-0.39,6.52
		c-0.02,0.45-0.15,0.56-0.57,0.52c-0.4-0.04-0.81-0.02-1.21,0c-0.22,0.01-0.26-0.07-0.24-0.27c0.06-0.73,0.1-1.47,0.17-2.2
		c0.03-0.29,0-0.42-0.34-0.4c-0.42,0.03-0.84,0.02-1.26,0c-0.27-0.01-0.4,0.06-0.48,0.34c-0.23,0.76-0.51,1.49-0.75,2.25
		c-0.07,0.22-0.17,0.29-0.39,0.28C51.8,72.01,51.25,72.02,50.65,72.02z M54.38,67c0.4,0,0.74-0.01,1.09,0.01
		c0.23,0.01,0.32-0.05,0.34-0.3c0.1-1.38,0.21-2.76,0.32-4.14c0.01-0.1,0-0.21,0-0.31c-0.03,0-0.07-0.01-0.1-0.01
		C55.48,63.81,54.94,65.37,54.38,67z"/>
	<path class="st2" d="M72.17,74.56c0.45,0,0.9-0.05,1.34,0.01c1.35,0.2,2.14,0.97,2.23,2.35c0.12,1.88-0.41,3.6-1.78,4.97
		c-0.71,0.71-1.61,1.05-2.6,1.11c-0.26,0.02-0.33,0.11-0.37,0.34c-0.34,1.66-0.71,3.32-1.04,4.98c-0.05,0.26-0.13,0.36-0.41,0.34
		c-0.48-0.02-0.95-0.02-1.43,0c-0.25,0.01-0.32-0.05-0.27-0.31c0.5-2.32,0.99-4.64,1.48-6.97c0.45-2.14,0.91-4.28,1.36-6.42
		c0.07-0.33,0.17-0.5,0.55-0.45c0.31,0.04,0.63,0.01,0.95,0.01C72.17,74.54,72.17,74.55,72.17,74.56z M73.63,78.18
		c0.04-1.15-0.2-1.44-0.94-1.51c-0.11-0.01-0.31,0.11-0.33,0.19c-0.28,1.25-0.54,2.5-0.81,3.75c-0.05,0.22,0.03,0.26,0.24,0.26
		c0.66-0.01,1.18-0.32,1.39-0.96C73.4,79.23,73.54,78.52,73.63,78.18z"/>
	<path class="st2" d="M96.27,84.5c-0.04,0.53-0.11,1.03-0.11,1.53c0,0.36,0.06,0.75,0.5,0.85c0.43,0.1,0.72-0.15,0.92-0.49
		c0.5-0.85,0.55-1.74,0.15-2.65c-0.45-1.04-0.94-2.06-1.37-3.12c-0.55-1.36-0.59-2.74,0.04-4.11c0.63-1.37,1.86-2.2,3.26-2.15
		c1.29,0.04,2,0.74,2.02,2.03c0.01,0.49-0.04,0.98-0.1,1.46c-0.01,0.11-0.18,0.27-0.28,0.28c-0.53,0.07-1.06,0.11-1.59,0.13
		c-0.06,0-0.18-0.13-0.18-0.2c0.01-0.36,0.08-0.72,0.07-1.07c0-0.31-0.1-0.69-0.45-0.69c-0.25,0-0.59,0.2-0.72,0.41
		c-0.52,0.84-0.49,1.74-0.1,2.64c0.5,1.16,1.05,2.3,1.49,3.48c0.64,1.69,0.23,3.27-0.77,4.7c-0.83,1.18-2.55,1.61-3.88,1.06
		c-0.8-0.33-1.23-1.12-1.16-2.21c0.03-0.53-0.02-1.19,0.27-1.54c0.24-0.29,0.93-0.21,1.42-0.29C95.9,84.54,96.09,84.53,96.27,84.5z"
		/>
	<path class="st2" d="M44.52,72.02c0.56-2.65,1.11-5.25,1.66-7.85c0.41-1.93,0.83-3.85,1.22-5.78c0.06-0.28,0.17-0.34,0.42-0.33
		c0.86,0.04,1.74-0.01,2.59,0.1c1.1,0.14,1.8,0.87,1.92,1.94c0.25,2.12-0.32,4-1.97,5.45c-0.62,0.55-1.39,0.82-2.22,0.86
		c-0.28,0.01-0.42,0.08-0.48,0.4c-0.32,1.62-0.68,3.24-1.01,4.86c-0.06,0.27-0.15,0.38-0.45,0.37C45.67,72,45.12,72.02,44.52,72.02z
		 M50.31,61.63c0.02-1.1-0.24-1.42-0.92-1.48c-0.2-0.02-0.32,0.02-0.36,0.24c-0.25,1.23-0.51,2.45-0.78,3.67
		c-0.05,0.23,0.03,0.26,0.24,0.26c0.64-0.02,1.14-0.29,1.35-0.89C50.07,62.74,50.21,62.02,50.31,61.63z"/>
	<path class="st2" d="M38.16,69.74c0.05-0.37,0.11-0.89,0.2-1.4c0.02-0.1,0.16-0.24,0.26-0.25c0.53-0.07,1.06-0.1,1.59-0.16
		c0.24-0.03,0.2,0.1,0.19,0.26c-0.04,0.5-0.1,1-0.06,1.49c0.02,0.2,0.25,0.52,0.42,0.55c0.24,0.04,0.6-0.08,0.76-0.26
		c0.55-0.65,0.75-1.45,0.49-2.27c-0.22-0.72-0.54-1.42-0.86-2.11c-0.45-1-0.9-1.98-1.05-3.09c-0.26-1.83,0.91-3.98,2.55-4.44
		c0.56-0.16,1.2-0.15,1.78-0.06c0.82,0.13,1.26,0.78,1.34,1.83c0.03,0.5-0.05,1.01-0.11,1.5c-0.01,0.1-0.18,0.24-0.28,0.26
		c-0.48,0.07-0.97,0.1-1.46,0.16c-0.24,0.03-0.35,0.02-0.3-0.3c0.07-0.39,0.08-0.8,0.03-1.19c-0.02-0.18-0.25-0.44-0.4-0.46
		c-0.2-0.02-0.5,0.11-0.62,0.27c-0.5,0.71-0.63,1.52-0.31,2.34c0.29,0.75,0.67,1.46,0.95,2.22c0.34,0.91,0.75,1.83,0.88,2.78
		c0.2,1.5-0.31,2.85-1.38,3.93c-0.83,0.84-2.44,1.07-3.52,0.58C38.36,71.53,38.19,70.75,38.16,69.74z"/>
	<path class="st3" d="M58.36,33.64c-0.11-0.44-0.28-0.88-0.33-1.33c-0.24-1.99,0.1-3.86,1.1-5.62c0.89-1.54,2.09-2.8,3.42-3.94
		c1.3-1.12,2.36-2.43,2.82-4.11c0.22-0.8,0.27-1.65,0.39-2.45c0.53,0.51,0.67,1.29,0.82,2.03c0.34,1.75-0.24,3.31-1.24,4.71
		c-0.52,0.73-1.18,1.37-1.79,2.02c-0.68,0.72-1.15,1.58-1.61,2.44c-0.11,0.2-0.21,0.41-0.32,0.61c-0.57,1.12-0.57,2.27-0.06,3.38
		c0.3,0.64,0.77,1.2,1.16,1.8c-0.12,0.03-0.23,0.07-0.35,0.1c0.16,0.47-0.27,0.6-0.49,0.84c-0.04,0.04-0.2,0.05-0.25,0.01
		c-0.4-0.33-0.83-0.65-0.75-1.28c0.01-0.11-0.03-0.23-0.04-0.34c-0.04-0.61-0.21-1.25-0.08-1.81c0.1-0.44-0.12-0.35-0.29-0.36
		c-0.14-0.01-0.34,0.03-0.44,0.12c-0.28,0.28-0.51,0.61-0.77,0.91c-0.12,0.13-0.25,0.3-0.4,0.33c-0.79,0.16-0.89,0.36-0.58,1.12
		C58.38,33.07,58.34,33.37,58.36,33.64z"/>
	<path class="st2" d="M67.02,74.53c-0.14,0.65-0.27,1.27-0.42,1.88c-0.03,0.1-0.19,0.24-0.3,0.24c-0.46,0.03-0.92,0.03-1.38,0.01
		c-0.26-0.01-0.34,0.09-0.39,0.33c-0.78,3.72-1.57,7.43-2.34,11.15c-0.08,0.41-0.23,0.57-0.66,0.53c-0.5-0.04-1.01-0.01-1.55-0.01
		c0.26-1.25,0.52-2.46,0.77-3.67c0.56-2.65,1.12-5.29,1.69-7.93c0.07-0.34-0.01-0.42-0.34-0.4c-0.4,0.03-0.81,0-1.21,0.01
		c-0.22,0.01-0.35-0.01-0.28-0.3c0.14-0.54,0.23-1.1,0.37-1.64c0.02-0.08,0.14-0.19,0.21-0.19C63.12,74.53,65.05,74.53,67.02,74.53z
		"/>
	<path class="st1" d="M58.36,33.64c-0.02-0.27,0.02-0.57-0.08-0.82c-0.31-0.76-0.21-0.96,0.58-1.12c0.15-0.03,0.29-0.2,0.4-0.33
		c0.26-0.3,0.49-0.62,0.77-0.91c0.09-0.1,0.29-0.14,0.44-0.12c0.17,0.02,0.4-0.08,0.29,0.36c-0.13,0.57,0.03,1.21,0.08,1.81
		c0.01,0.11,0.05,0.23,0.04,0.34c-0.08,0.62,0.35,0.94,0.75,1.28c0.05,0.04,0.21,0.04,0.25-0.01c0.22-0.24,0.65-0.38,0.49-0.84
		c0.12-0.03,0.23-0.07,0.35-0.1c0.69,0.6,1.45,1.05,2.34,1.31c1.34,0.39,2.61,0.22,3.82-0.43c0.07-0.04,0.16-0.06,0.24-0.09
		c-0.08,0.11-0.14,0.26-0.25,0.33c-0.28,0.17-0.31,0.3,0.17,0.48c-0.31,0-0.44-0.01-0.58,0c-0.14,0.02-0.27,0.06-0.49,0.11
		c0.43,0.23,0.18,0.44,0.04,0.64c-0.22,0.31-0.46,0.6-0.69,0.9c-0.06,0.08-0.07,0.19-0.12,0.27c-0.08,0.15-0.17,0.3-0.27,0.44
		c-0.16,0.21-0.51,0.33-0.34,0.7c-0.4,0.09-0.79,0.24-1.19,0.27c-0.59,0.05-1.19,0.05-1.78,0c-1.13-0.1-2.17-0.51-3.05-1.22
		c-0.99-0.8-1.74-1.8-2.17-3.01C58.38,33.81,58.38,33.73,58.36,33.64z"/>
	<path class="st2" d="M88.17,88.66c0.44-2.1,0.88-4.15,1.31-6.2c0.54-2.53,1.09-5.06,1.61-7.6c0.06-0.27,0.15-0.35,0.41-0.34
		c0.48,0.02,0.95,0.02,1.43,0c0.28-0.01,0.31,0.09,0.26,0.32c-0.47,2.19-0.94,4.39-1.41,6.58c-0.35,1.66-0.71,3.32-1.07,4.98
		c-0.06,0.26-0.01,0.35,0.28,0.35c0.71-0.02,1.41,0,2.12-0.01c0.19,0,0.3,0.01,0.24,0.26c-0.12,0.47-0.2,0.96-0.33,1.43
		c-0.02,0.09-0.14,0.22-0.22,0.22C91.27,88.66,89.73,88.66,88.17,88.66z"/>
	<path class="st2" d="M77.49,70.11c-0.12,0.59-0.22,1.14-0.35,1.68c-0.02,0.09-0.16,0.21-0.25,0.21c-1.51,0.01-3.03,0.01-4.57,0.01
		c0.48-2.27,0.95-4.5,1.43-6.74c0.48-2.25,0.96-4.5,1.42-6.76c0.07-0.36,0.18-0.52,0.57-0.48c0.37,0.04,0.75,0.03,1.12,0
		c0.37-0.03,0.49,0.03,0.39,0.45c-0.67,3.05-1.32,6.1-1.97,9.16c-0.15,0.72-0.3,1.44-0.46,2.15c-0.05,0.23-0.02,0.32,0.26,0.32
		C75.87,70.1,76.65,70.11,77.49,70.11z"/>
	<path class="st1" d="M74.39,49.9c1.43-0.43,2.87-0.82,4.28-1.31c0.63-0.22,1.23-0.58,1.76-0.99c0.88-0.67,0.84-1.47-0.05-2.13
		c-0.9-0.66-1.94-1.06-3.01-1.37c-0.41-0.12-0.84-0.22-1.24-0.37c-0.18-0.07-0.32-0.24-0.48-0.36c0.17-0.12,0.32-0.3,0.5-0.35
		c0.34-0.1,0.7-0.15,1.06-0.19c2.4-0.26,4.67,0.14,6.8,1.28c0.32,0.17,0.61,0.38,0.89,0.6c0.89,0.68,0.91,1.6,0.05,2.33
		c-0.87,0.74-1.92,1.15-2.97,1.55c-2.34,0.88-4.8,1.29-7.24,1.75c-0.08,0.02-0.17,0-0.26,0c-0.08-0.03-0.16-0.09-0.23-0.08
		c-0.47,0.06-0.95,0.14-1.42,0.21c-0.15,0.02-0.29,0.02-0.44,0.02c0.31-0.15,0.63-0.18,0.94-0.26
		C73.69,50.15,74.04,50.02,74.39,49.9z"/>
	<path class="st1" d="M52.21,43.33c-0.46,0.35-0.95,0.65-1.36,1.05c-0.59,0.58-0.49,1.25,0.26,1.62c0.72,0.35,1.48,0.64,2.26,0.82
		c1.57,0.37,3.18,0.58,4.8,0.51c0.59-0.02,1.17-0.11,1.76-0.19c0.31-0.04,0.41-0.2,0.14-0.41c-0.37-0.29-0.12-0.39,0.13-0.46
		c1.08-0.34,2.19-0.34,3.3-0.2c0.46,0.06,0.92,0.21,1.37,0.37c0.15,0.06,0.32,0.27,0.34,0.43c0.01,0.12-0.16,0.35-0.3,0.4
		c-0.63,0.22-1.27,0.48-1.93,0.58c-2.43,0.37-4.88,0.5-7.33,0.34c-2.2-0.15-4.4-0.38-6.47-1.22c-0.52-0.21-1.02-0.53-1.47-0.88
		c-0.41-0.32-0.43-0.76-0.13-1.2c0.37-0.54,0.89-0.89,1.49-1.12c0.12-0.03,0.26-0.03,0.37-0.08c1.44-0.67,2.98-1.05,4.51-1.46
		c0.17-0.05,0.36-0.08,0.53-0.11c-0.32,0.23-0.68,0.35-1.01,0.52C53.04,42.84,52.63,43.09,52.21,43.33z"/>
	<path class="st2" d="M40.35,88.66c0.47-2.23,0.93-4.42,1.39-6.61c0.51-2.39,1.03-4.78,1.53-7.18c0.06-0.27,0.14-0.36,0.41-0.35
		c0.45,0.02,0.9,0.03,1.34,0c0.35-0.03,0.4,0.08,0.33,0.4c-0.42,1.93-0.82,3.86-1.24,5.78c-0.54,2.53-1.09,5.07-1.61,7.6
		c-0.06,0.29-0.17,0.37-0.45,0.36C41.5,88.64,40.94,88.66,40.35,88.66z"/>
	<path class="st2" d="M82.95,58.06c-0.34,1.62-0.68,3.2-1.01,4.77c-0.63,2.97-1.26,5.94-1.9,8.9c-0.02,0.11-0.17,0.27-0.26,0.28
		c-0.6,0.03-1.21,0.01-1.84,0.01c0.34-1.61,0.67-3.19,1-4.76c0.62-2.94,1.26-5.88,1.87-8.82c0.06-0.3,0.17-0.4,0.48-0.39
		C81.81,58.08,82.35,58.06,82.95,58.06z"/>
	<path class="st4" d="M74.84,50.77c2.93-0.38,5.84-0.85,8.68-1.65c1.31-0.37,2.6-0.81,3.76-1.58c0.69-0.46,1.52-0.37,2.31-0.44
		c0.4-0.04,0.81-0.01,1.21,0.03c0.39,0.04,0.78,0.13,1.17,0.22c0.08,0.02,0.2,0.15,0.19,0.18c-0.06,0.13-0.13,0.31-0.24,0.36
		c-0.87,0.38-1.73,0.79-2.62,1.09c-2.37,0.78-4.83,1.19-7.29,1.54c-1.22,0.17-2.46,0.3-3.68,0.46c-0.15-0.03-0.3-0.09-0.45-0.08
		c-0.39,0.02-0.79,0.08-1.18,0.11c-1.23,0.11-2.45,0.21-3.68,0.31c-0.6,0.05-1.2,0.13-1.8,0.16c-0.61,0.03-1.22,0.01-1.83,0.01
		c1.29-0.17,2.59-0.28,3.88-0.42C73.78,50.99,74.31,50.87,74.84,50.77z"/>
	<path class="st5" d="M66.51,30.87c0.19,0,0.37-0.01,0.56,0c0.51,0.03,0.85-0.2,1.07-0.65c0.23-0.47-0.01-0.8-0.31-1.12
		c-0.04-0.04-0.07-0.09-0.1-0.14c0-0.06,0-0.12,0-0.19c0.38-0.06,0.77-0.15,1.15-0.19c0.57-0.05,1.13-0.05,1.7-0.07
		c0.09,0.28,0.23,0.56,0.25,0.84c0.02,0.41-0.05,0.83-0.08,1.24c-0.27,0-0.55-0.02-0.82,0.01c-0.34,0.04-0.86,0.01-0.97,0.2
		c-0.27,0.48-0.59,0.76-1.11,0.85c-0.03,0-0.05,0.03-0.07,0.05c-0.43,0.32-0.97,0.56-1.28,0.98c-0.41,0.54-0.8,0.25-1.21,0.17
		c-0.21-0.04-0.41-0.11-0.62-0.17c0,0,0.01,0.01,0.01,0.01c-0.33-0.5-0.33-0.49,0.2-0.81C65.42,31.55,65.97,31.21,66.51,30.87z"/>
	<path class="st4" d="M88.69,43.83c0.6,0.06,1.12,0.04,1.59,0.18c0.3,0.08,0.67,0.34,0.75,0.6c0.07,0.23-0.15,0.68-0.37,0.83
		c-0.68,0.45-1.4,0.84-2.15,1.17c-0.71,0.32-1.46,0.53-2.2,0.78c-0.06,0.02-0.13-0.01-0.2-0.02c0.05-0.08,0.07-0.17,0.14-0.23
		c0.36-0.3,0.77-0.54,1.08-0.88c0.42-0.45,0.33-0.9-0.15-1.3c-0.13-0.11-0.29-0.2-0.42-0.31c-0.09-0.08-0.15-0.19-0.23-0.28
		c0.11-0.08,0.21-0.22,0.33-0.24C87.51,44,88.15,43.91,88.69,43.83z"/>
	<path class="st6" d="M64.67,32.69c0.21,0.06,0.41,0.13,0.62,0.17c0.41,0.08,0.8,0.37,1.21-0.17c0.31-0.41,0.85-0.66,1.28-0.98
		c0.02-0.02,0.04-0.04,0.07-0.05c0.52-0.1,0.84-0.38,1.11-0.85c0.11-0.19,0.63-0.17,0.97-0.2c0.27-0.03,0.55-0.01,0.82-0.01
		c-0.05,0.19-0.1,0.37-0.16,0.56c-0.32,0.44-0.58,0.96-0.98,1.31C68.32,33.6,66.01,33.67,64.67,32.69z"/>
	<path class="st7" d="M70.6,31.15c0.05-0.19,0.11-0.37,0.16-0.56c0.03-0.41,0.1-0.83,0.08-1.24c-0.02-0.28-0.16-0.56-0.25-0.84
		c-0.04-0.62-0.2-0.79-0.62-0.78c-0.79,0.03-1.57,0.03-2.36,0.03c-0.21,0-0.44,0.23-0.34,0.41c0.13,0.22,0.3,0.41,0.46,0.61
		c0,0.06,0,0.12,0,0.19c-0.79-0.69-0.98-1.63-0.46-2.29c0.47-0.59,1.16-0.74,1.85-0.35c1.74,1,2.26,2.97,1.6,4.66
		C70.7,31.05,70.64,31.1,70.6,31.15z"/>
	<path class="st6" d="M66.51,30.87c-0.54,0.34-1.09,0.68-1.63,1.02c-0.52,0.32-0.52,0.31-0.2,0.81c-0.72-0.39-1.21-0.98-1.46-1.75
		c-0.24-0.75-0.34-1.51-0.1-2.28c0,0.46-0.02,0.93,0.02,1.39c0.06,0.83,0.16,0.88,0.83,0.44c0.04-0.02,0.07-0.06,0.11-0.07
		c0.39-0.12,0.47-0.36,0.26-0.7C64.96,30.3,65.69,30.66,66.51,30.87z"/>
	<path class="st8" d="M74.84,50.77c-0.53,0.09-1.05,0.21-1.58,0.27c-1.29,0.14-2.59,0.26-3.88,0.42c0.61,0,1.22,0.02,1.83-0.01
		c0.6-0.03,1.2-0.11,1.8-0.16c1.23-0.11,2.45-0.21,3.68-0.31c0.39-0.03,0.79-0.09,1.18-0.11c0.15-0.01,0.3,0.05,0.45,0.08
		c-1.12,0.11-2.23,0.27-3.35,0.33c-3.2,0.18-6.39,0.32-9.59,0.46c-0.85,0.04-1.7,0.01-2.58-0.04c0.13-0.04,0.25-0.12,0.38-0.13
		c2.42-0.12,4.84-0.21,7.25-0.37c1.34-0.09,2.66-0.28,4-0.43C74.55,50.78,74.69,50.78,74.84,50.77z"/>
	<path class="st9" d="M66.6,37.86c-0.17-0.37,0.18-0.49,0.34-0.7c0.1-0.14,0.19-0.29,0.27-0.44c0.05-0.09,0.06-0.2,0.12-0.27
		c0.22-0.3,0.47-0.6,0.69-0.9c0.14-0.2,0.4-0.41-0.04-0.64c0.22-0.05,0.35-0.1,0.49-0.11c0.13-0.02,0.27,0,0.58,0
		c-0.48-0.18-0.45-0.31-0.17-0.48c0.11-0.06,0.17-0.21,0.25-0.33c0.86-0.58,1.53-1.34,2.04-2.25c0.04,0.01,0.09,0.02,0.13,0.03
		c-0.07,0.48-0.08,0.97-0.21,1.43c-0.64,2.24-2.07,3.78-4.23,4.63C66.77,37.85,66.68,37.85,66.6,37.86z M70.95,32.52
		c-0.4,0.43-0.77,0.86-1.18,1.25c-0.3,0.29-0.7,0.49-0.69,1c0,0.07-0.16,0.21-0.19,0.2c-0.47-0.18-0.44,0.25-0.59,0.47
		c-0.45,0.69-0.89,1.38-1.32,2.03C68.8,36.92,70.8,34.73,70.95,32.52z"/>
	<path class="st10" d="M72.11,101.67c-0.05,0.23-0.07,0.49-0.16,0.73c-0.15,0.38-0.44,0.59-0.87,0.58
		c-0.41-0.01-0.74-0.21-0.81-0.58c-0.09-0.46-0.1-0.97-0.03-1.43c0.08-0.47,0.44-0.69,0.86-0.69c0.42,0,0.73,0.23,0.87,0.69
		C72.05,101.18,72.06,101.41,72.11,101.67z M70.63,101.62c0.04,0.24,0.05,0.46,0.13,0.66c0.05,0.12,0.22,0.28,0.32,0.27
		c0.13-0.01,0.35-0.16,0.36-0.27c0.04-0.43,0.04-0.87,0-1.31c-0.01-0.1-0.21-0.23-0.34-0.25c-0.1-0.01-0.28,0.11-0.32,0.21
		C70.69,101.15,70.67,101.4,70.63,101.62z"/>
	<path class="st10" d="M76.34,101.58c0.06-0.24,0.1-0.53,0.2-0.79c0.13-0.34,0.42-0.5,0.78-0.51c0.38-0.01,0.74,0.15,0.81,0.51
		c0.1,0.49,0.14,1.01,0.07,1.5c-0.07,0.48-0.42,0.68-0.86,0.68c-0.44,0-0.73-0.21-0.88-0.68C76.4,102.08,76.39,101.85,76.34,101.58z
		 M77.83,101.65c-0.05-0.23-0.07-0.48-0.15-0.7c-0.04-0.11-0.21-0.23-0.31-0.23c-0.13,0.01-0.34,0.14-0.35,0.23
		c-0.03,0.46-0.02,0.93,0.01,1.39c0.01,0.08,0.21,0.21,0.32,0.21c0.11,0,0.28-0.12,0.32-0.22
		C77.76,102.12,77.78,101.89,77.83,101.65z"/>
	<path class="st10" d="M54.2,101.65c0-0.03,0-0.06,0-0.09c0-1.41,0-1.41,1.43-1.26c0.09,0.01,0.17,0.16,0.25,0.24
		c-0.09,0.06-0.17,0.15-0.27,0.17c-0.15,0.03-0.32,0.02-0.47,0.01c-0.28-0.03-0.4,0.05-0.41,0.37c-0.01,0.35,0.18,0.32,0.41,0.32
		c0.12,0,0.24-0.03,0.34,0.01c0.08,0.03,0.15,0.15,0.16,0.24c0.01,0.05-0.1,0.15-0.17,0.17c-0.09,0.03-0.2,0.02-0.3,0.01
		c-0.39-0.07-0.49,0.13-0.41,0.46c0.02,0.09,0.15,0.21,0.25,0.23c0.21,0.03,0.43-0.01,0.65,0.02c0.09,0.01,0.16,0.13,0.24,0.2
		c-0.07,0.07-0.14,0.15-0.22,0.22c-0.03,0.02-0.08,0-0.13,0c-0.43-0.01-1.01,0.14-1.24-0.08c-0.23-0.21-0.09-0.81-0.11-1.24
		C54.19,101.65,54.2,101.65,54.2,101.65z"/>
	<path class="st10" d="M57.93,103.02c-0.21-0.07-0.44-0.13-0.64-0.23c-0.08-0.04-0.1-0.18-0.15-0.28c0.12-0.05,0.24-0.14,0.35-0.13
		c0.16,0.01,0.33,0.15,0.48,0.13c0.14-0.01,0.31-0.14,0.37-0.26c0.03-0.07-0.12-0.26-0.22-0.34c-0.12-0.09-0.29-0.12-0.44-0.17
		c-0.33-0.11-0.5-0.34-0.51-0.68c0-0.35,0.16-0.65,0.51-0.71c0.31-0.05,0.64,0.01,0.96,0.06c0.06,0.01,0.09,0.19,0.14,0.29
		c-0.11,0.04-0.23,0.11-0.34,0.11c-0.15,0-0.31-0.1-0.45-0.09c-0.1,0.01-0.25,0.13-0.27,0.23c-0.02,0.08,0.08,0.23,0.17,0.3
		c0.1,0.08,0.23,0.1,0.36,0.15c0.54,0.2,0.73,0.46,0.64,0.91C58.8,102.72,58.44,102.98,57.93,103.02z"/>
	<path class="st10" d="M67.84,102.51c0.31,0,0.55-0.03,0.77,0.01c0.12,0.02,0.21,0.16,0.31,0.25c-0.1,0.06-0.19,0.18-0.29,0.18
		c-0.42,0.02-0.84,0.01-1.25,0c-0.1,0-0.2-0.05-0.3-0.08c0.04-0.1,0.05-0.23,0.12-0.31c0.25-0.28,0.54-0.52,0.78-0.81
		c0.15-0.18,0.28-0.4,0.34-0.63c0.03-0.11-0.07-0.36-0.16-0.39c-0.13-0.04-0.31,0.05-0.46,0.1c-0.05,0.02-0.07,0.15-0.12,0.17
		c-0.13,0.03-0.27,0.02-0.41,0.03c0.01-0.1-0.01-0.22,0.03-0.3c0.21-0.46,0.85-0.62,1.3-0.35c0.39,0.23,0.47,0.75,0.17,1.18
		c-0.11,0.16-0.26,0.31-0.4,0.45C68.16,102.17,68.02,102.32,67.84,102.51z"/>
	<path class="st11" d="M64.34,29.72c0.21,0.35,0.12,0.58-0.26,0.7c-0.04,0.01-0.07,0.04-0.11,0.07c-0.67,0.44-0.77,0.39-0.83-0.44
		c-0.04-0.46-0.02-0.92-0.02-1.39c0.11-0.38,0.21-0.76,0.32-1.14c0.05,0,0.09,0,0.14,0C63.55,28.37,63.77,29.11,64.34,29.72z"/>
	<path class="st12" d="M74.39,49.9c-0.35,0.11-0.7,0.25-1.06,0.34c-0.31,0.08-0.63,0.11-0.94,0.26c0.15-0.01,0.3,0,0.44-0.02
		c0.47-0.07,0.95-0.15,1.42-0.21c0.07-0.01,0.15,0.05,0.23,0.08c-1.33,0.17-2.65,0.36-3.98,0.51c-0.87,0.1-1.75,0.16-2.63,0.23
		c-0.27,0.02-0.54,0-0.81-0.06C69.51,50.66,71.95,50.28,74.39,49.9z"/>
	<path class="st11" d="M60.85,101.85c0-0.14-0.01-0.29,0-0.43c0.04-0.42,0.04-0.8-0.57-0.69c-0.05,0.01-0.2-0.14-0.19-0.19
		c0.02-0.09,0.12-0.24,0.19-0.24c0.56-0.02,1.12-0.02,1.69,0c0.07,0,0.17,0.15,0.19,0.24c0.01,0.05-0.11,0.15-0.19,0.19
		c-0.06,0.03-0.14,0.01-0.21,0.01c-0.27-0.04-0.38,0.05-0.37,0.35c0.03,0.47,0.02,0.95,0,1.43c-0.01,0.18,0.14,0.44-0.26,0.45
		c-0.42,0.01-0.27-0.28-0.28-0.47C60.84,102.28,60.85,102.06,60.85,101.85z"/>
	<path class="st10" d="M74.12,101.12c-0.24,0-0.45-0.01-0.65-0.01c0.12-0.17,0.23-0.34,0.37-0.49c0.08-0.1,0.18-0.19,0.29-0.25
		c0.3-0.19,0.48-0.09,0.49,0.26c0.01,0.53,0.01,1.07,0,1.6c0,0.22,0,0.41,0.31,0.38c0.05,0,0.15,0.12,0.15,0.18
		c0,0.06-0.11,0.16-0.17,0.16c-0.37,0.02-0.75,0.02-1.12,0c-0.06,0-0.17-0.11-0.17-0.16c0-0.06,0.11-0.18,0.16-0.18
		c0.39,0.04,0.37-0.2,0.36-0.46C74.11,101.78,74.12,101.41,74.12,101.12z"/>
	<path class="st13" d="M52.21,43.33c0.42-0.24,0.83-0.49,1.26-0.71c0.33-0.17,0.69-0.29,1.01-0.52c-0.18,0.04-0.36,0.06-0.53,0.11
		c-1.53,0.41-3.07,0.79-4.51,1.46c-0.11,0.05-0.25,0.06-0.37,0.08c0.96-0.38,1.89-0.82,2.87-1.12c1.12-0.35,2.28-0.58,3.42-0.85
		c0.09-0.02,0.2,0.03,0.31,0.05c-0.09,0.07-0.17,0.17-0.27,0.21C54.34,42.48,53.27,42.91,52.21,43.33z"/>
	<path class="st0" d="M87.16,77.01c-0.26,1.25-0.49,2.36-0.72,3.47c-0.37,1.73-0.74,3.46-1.12,5.18c-0.05,0.25-0.16,0.49-0.27,0.72
		c-0.17,0.33-0.48,0.48-0.84,0.36c-0.35-0.12-0.37-0.46-0.31-0.76c0.15-0.82,0.33-1.63,0.5-2.45c0.42-1.98,0.84-3.96,1.28-5.94
		c0.07-0.3,0.19-0.6,0.34-0.87c0.17-0.28,0.5-0.43,0.78-0.26C86.99,76.57,87.07,76.87,87.16,77.01z"/>
	<path class="st0" d="M80.36,77c-0.22,1.07-0.42,2.01-0.62,2.95c-0.39,1.84-0.78,3.68-1.18,5.52c-0.07,0.33-0.19,0.66-0.35,0.96
		c-0.16,0.3-0.46,0.41-0.78,0.31c-0.33-0.09-0.38-0.39-0.33-0.67c0.15-0.86,0.33-1.72,0.52-2.58c0.43-2.04,0.86-4.08,1.3-6.11
		c0.05-0.22,0.14-0.44,0.26-0.63c0.19-0.29,0.49-0.48,0.81-0.31C80.17,76.56,80.26,76.85,80.36,77z"/>
	<path class="st14" d="M64.08,61.5c-0.06,0.59-0.19,1.29-0.58,1.91c-0.28,0.44-0.65,0.73-1.17,0.8c-0.16,0.02-0.31,0.04-0.25-0.23
		c0.27-1.24,0.52-2.48,0.8-3.71c0.02-0.08,0.2-0.19,0.29-0.18C63.82,60.15,64.09,60.55,64.08,61.5z"/>
	<path class="st15" d="M48.93,78.81c-0.07,0.94-0.14,1.88-0.21,2.83c-0.04,0.56-0.11,1.12-0.14,1.68c-0.01,0.21-0.08,0.27-0.28,0.26
		c-0.29-0.01-0.58-0.01-0.86,0c-0.19,0-0.3,0-0.21-0.26c0.52-1.47,1.02-2.95,1.53-4.43c0.01-0.04,0.05-0.06,0.08-0.09
		C48.87,78.8,48.9,78.8,48.93,78.81z"/>
	<path class="st15" d="M54.38,67c0.56-1.62,1.1-3.19,1.64-4.75c0.03,0,0.07,0.01,0.1,0.01c0,0.1,0.01,0.21,0,0.31
		c-0.11,1.38-0.22,2.76-0.32,4.14c-0.02,0.25-0.1,0.31-0.34,0.3C55.12,66.98,54.77,67,54.38,67z"/>
	<path class="st14" d="M73.63,78.18c-0.09,0.35-0.23,1.05-0.45,1.73c-0.21,0.64-0.73,0.95-1.39,0.96c-0.21,0-0.29-0.04-0.24-0.26
		c0.27-1.25,0.53-2.5,0.81-3.75c0.02-0.09,0.22-0.2,0.33-0.19C73.43,76.73,73.66,77.03,73.63,78.18z"/>
	<path class="st14" d="M50.31,61.63c-0.1,0.39-0.24,1.11-0.48,1.8c-0.21,0.6-0.71,0.87-1.35,0.89c-0.21,0.01-0.29-0.03-0.24-0.26
		c0.27-1.22,0.53-2.45,0.78-3.67c0.05-0.22,0.16-0.26,0.36-0.24C50.07,60.21,50.33,60.53,50.31,61.63z"/>
	<path class="st10" d="M67.73,28.77c-0.16-0.2-0.33-0.39-0.46-0.61c-0.1-0.17,0.13-0.41,0.34-0.41c0.79,0,1.57,0,2.36-0.03
		c0.42-0.01,0.58,0.16,0.62,0.78c-0.57,0.02-1.14,0.03-1.7,0.07C68.49,28.62,68.11,28.71,67.73,28.77z"/>
	<path class="st16" d="M70.95,32.52c-0.15,2.21-2.16,4.4-3.96,4.95c0.42-0.65,0.87-1.34,1.32-2.03c0.14-0.22,0.12-0.64,0.59-0.47
		c0.04,0.01,0.2-0.13,0.19-0.2c-0.01-0.51,0.38-0.71,0.69-1C70.18,33.39,70.55,32.95,70.95,32.52z"/>
	<path class="st17" d="M70.63,101.62c0.04-0.22,0.07-0.46,0.15-0.68c0.04-0.1,0.22-0.22,0.32-0.21c0.13,0.02,0.33,0.15,0.34,0.25
		c0.04,0.43,0.04,0.87,0,1.31c-0.01,0.11-0.23,0.26-0.36,0.27c-0.1,0.01-0.27-0.15-0.32-0.27
		C70.68,102.08,70.67,101.86,70.63,101.62z"/>
	<path class="st17" d="M77.83,101.65c-0.05,0.24-0.07,0.47-0.16,0.68c-0.04,0.11-0.21,0.22-0.32,0.22c-0.11,0-0.32-0.13-0.32-0.21
		c-0.04-0.46-0.04-0.93-0.01-1.39c0.01-0.09,0.22-0.22,0.35-0.23c0.1-0.01,0.27,0.12,0.31,0.23
		C77.76,101.17,77.78,101.42,77.83,101.65z"/>
</g>
</svg>
