<?xml version="1.0" encoding="utf-8"?>
<!-- Generator: Adobe Illustrator 23.0.1, SVG Export Plug-In . SVG Version: 6.00 Build 0)  -->
<svg version="1.1" id="Layer_1" xmlns="http://www.w3.org/2000/svg" xmlns:xlink="http://www.w3.org/1999/xlink" x="0px" y="0px"
	 viewBox="0 0 260 260" style="enable-background:new 0 0 260 260;" xml:space="preserve">
<style type="text/css">
	.st0{fill:#222222;}
	.st1{fill:#2BACE2;}
	.st2{fill:#FFFFFF;}
	.st3{fill:#1D99CF;}
	.st4{fill:#2DABE2;}
	.st5{fill:#57A8D6;}
	.st6{fill:#1E99CE;}
	.st7{fill:#1896C9;}
	.st8{fill:#45B8DC;}
	.st9{fill:#2AAAE2;}
	.st10{fill:#2DAAE0;}
	.st11{fill:#26A2D6;}
	.st12{fill:#28A0D4;}
	.st13{fill:#222323;}
	.st14{fill:#232323;}
	.st15{fill:#2FABE2;}
	.st16{fill:#232324;}
</style>
<g>
	<g>
		<path class="st0" d="M232.72,131.8c0,21.14,0,42.28,0.02,63.42c0,0.77-0.2,1.18-0.9,1.57c-20.98,12.07-41.96,24.18-62.91,36.27
			c-14.98,8.66-30.01,17.27-44.95,26.03c-2.04,1.2-3.45,1.22-5.5,0c-13.07-7.69-26.24-15.23-39.39-22.81
			c-14.94-8.62-29.89-17.27-44.81-25.89c-7.95-4.59-15.9-9.17-23.87-13.74c-0.51-0.31-0.71-0.61-0.71-1.22
			C9.71,153,9.71,110.55,9.67,68.13c0-0.8,0.41-1.04,0.94-1.37c25.83-14.9,51.64-29.81,77.45-44.71
			C98.74,15.9,109.4,9.74,120.06,3.56c0.82-0.47,1.45-0.45,2.26,0.02c14.96,8.66,29.93,17.29,44.89,25.91
			c15.05,8.68,30.09,17.39,45.12,26.07c6.52,3.77,13.05,7.54,19.61,11.29c0.57,0.33,0.73,0.67,0.73,1.3
			C232.72,89.39,232.72,110.59,232.72,131.8z M117.49,59.71c-1.16-1.24-1.63-2.75-1.57-4.46c-0.1,0-0.18,0-0.29,0
			c-0.22,0.77-0.43,1.55-0.65,2.32c-0.49,1.57-0.29,3.12,0.2,4.65c0.51,1.57,1.51,2.79,2.98,3.57l-0.02-0.02
			c2.73,2,7.42,1.86,10.07-0.45c0.82-0.71,1.35-1.77,2-2.67c0.08-0.12,0.2-0.22,0.27-0.35c1.35-3.42,0.29-7.46-3.26-9.5
			c-1.41-0.82-2.81-0.49-3.77,0.71c-1.06,1.33-0.69,3.24,0.94,4.67c0.06,0.1,0.12,0.18,0.2,0.29c0.61,0.65,1.1,1.33,0.63,2.28
			c-0.45,0.92-1.14,1.39-2.18,1.33c-0.39-0.02-0.75,0-1.14,0C120.24,61.63,118.76,60.89,117.49,59.71z M138.9,102.62
			c-0.29,0.02-0.59,0.02-0.88,0.04c-2.71,0.29-5.42,0.69-8.15,0.88c-4.93,0.33-9.87,0.49-14.78,0.75c-0.27,0.02-0.51,0.16-0.77,0.27
			c1.79,0.1,3.53,0.16,5.26,0.08c6.52-0.29,13.03-0.57,19.55-0.94c2.28-0.12,4.57-0.45,6.83-0.67c2.51-0.31,5.02-0.57,7.5-0.94
			c5.02-0.71,10.03-1.53,14.86-3.14c1.83-0.61,3.59-1.45,5.34-2.22c0.24-0.1,0.39-0.47,0.49-0.73c0.02-0.06-0.22-0.33-0.39-0.37
			c-0.8-0.18-1.59-0.37-2.39-0.45c-0.82-0.08-1.65-0.12-2.47-0.06c-1.59,0.14-3.3-0.04-4.71,0.9c-2.36,1.57-4.97,2.47-7.67,3.22
			C150.78,100.91,144.85,101.87,138.9,102.62z M86.36,88.33c-1.22,0.49-2.3,1.18-3.04,2.28c-0.61,0.9-0.57,1.79,0.27,2.45
			c0.92,0.71,1.92,1.37,3,1.79c4.22,1.71,8.68,2.18,13.19,2.49c4.99,0.33,9.99,0.06,14.94-0.69c1.35-0.2,2.65-0.71,3.93-1.18
			c0.29-0.1,0.65-0.57,0.61-0.82c-0.04-0.33-0.39-0.75-0.69-0.88c-0.9-0.33-1.83-0.63-2.79-0.75c-2.26-0.29-4.53-0.27-6.73,0.41
			c-0.51,0.16-1.02,0.35-0.27,0.94c0.55,0.43,0.35,0.77-0.29,0.84c-1.2,0.14-2.39,0.33-3.59,0.39c-3.3,0.14-6.58-0.29-9.79-1.04
			c-1.57-0.37-3.14-0.96-4.61-1.67c-1.53-0.75-1.73-2.12-0.53-3.3c0.82-0.82,1.83-1.45,2.77-2.14c2.16-0.86,4.34-1.73,6.48-2.61
			c0.2-0.08,0.37-0.29,0.55-0.43c-0.2-0.04-0.43-0.16-0.63-0.1c-2.32,0.55-4.69,1.02-6.97,1.73C90.21,86.66,88.32,87.56,86.36,88.33
			z M137.98,100.85c-4.97,0.77-9.95,1.55-14.92,2.3c0.53,0.14,1.1,0.16,1.65,0.12c1.79-0.14,3.57-0.27,5.36-0.47
			c2.71-0.33,5.4-0.69,8.11-1.04c0.18,0,0.35,0.04,0.53,0c4.97-0.94,9.99-1.75,14.76-3.57c2.14-0.82,4.28-1.65,6.05-3.16
			c1.75-1.49,1.69-3.34-0.1-4.75c-0.57-0.45-1.18-0.88-1.81-1.22c-4.34-2.32-8.99-3.16-13.86-2.61c-0.73,0.08-1.47,0.18-2.16,0.39
			c-0.39,0.1-0.69,0.47-1.02,0.71c0.33,0.24,0.61,0.59,0.98,0.73c0.82,0.31,1.69,0.51,2.53,0.75c2.18,0.63,4.3,1.43,6.14,2.79
			c1.81,1.35,1.9,2.98,0.1,4.34c-1.08,0.84-2.3,1.57-3.59,2.02C143.83,99.2,140.9,99.99,137.98,100.85z M122.1,76.3
			c0.16-0.02,0.37,0,0.51-0.06c4.4-1.75,7.32-4.87,8.62-9.44c0.27-0.94,0.29-1.94,0.43-2.92c-0.08-0.02-0.18-0.04-0.27-0.06
			c-1.04,1.86-2.41,3.4-4.16,4.59c-0.16,0.06-0.33,0.1-0.49,0.18c-2.49,1.33-5.06,1.67-7.79,0.88c-1.81-0.53-3.36-1.45-4.77-2.67
			c-0.8-1.22-1.75-2.36-2.36-3.67c-1.04-2.26-1.04-4.61,0.12-6.89c0.2-0.41,0.43-0.84,0.65-1.24c0.94-1.75,1.9-3.51,3.28-4.97
			c1.26-1.35,2.59-2.63,3.65-4.12c2.04-2.85,3.22-6.01,2.53-9.6c-0.31-1.53-0.57-3.1-1.67-4.14c-0.24,1.63-0.35,3.36-0.8,4.99
			c-0.94,3.42-3.1,6.1-5.75,8.38c-2.71,2.34-5.16,4.89-6.97,8.03c-2.06,3.57-2.73,7.4-2.24,11.46c0.1,0.92,0.45,1.81,0.67,2.71
			c0.04,0.16,0.04,0.35,0.1,0.51c0.88,2.49,2.41,4.51,4.42,6.14c1.79,1.45,3.89,2.3,6.22,2.49c1.2,0.1,2.43,0.08,3.63,0
			C120.49,76.77,121.28,76.49,122.1,76.3z M106.16,103.19c4.51-0.22,8.95-0.31,13.35-0.71c4.38-0.41,8.75-1.06,13.09-1.71
			c3.16-0.47,6.24-1.37,9.19-2.61c1.47-0.61,2.87-1.37,3.87-2.67c0.86-1.1,0.77-2.14-0.35-2.96c-0.67-0.49-1.45-0.96-2.24-1.18
			c-2.28-0.61-4.59-1.14-6.91-1.61c-2-0.39-4.02-0.84-6.05-0.92c-2.89-0.1-5.81,0.06-8.73,0.27c-1.26,0.1-2.53,0.53-3.73,0.96
			c-0.92,0.33-0.92,0.96-0.04,1.41c0.61,0.31,1.33,0.47,2,0.65c1.73,0.51,3.53,0.86,5.2,1.51c1.18,0.47,1.2,1.37,0.18,2.14
			c-0.47,0.35-0.96,0.73-1.51,0.88c-2.12,0.59-4.24,1.18-6.38,1.61c-4.83,0.94-9.72,0.98-14.6,0.61c-4.71-0.37-9.4-1.04-14.09-1.69
			c-2.32-0.33-4.61-0.94-6.63-2.22c-1.98-1.26-2.26-3.14-0.63-4.81c1.77-1.81,4.08-2.73,6.4-3.57c0.29-0.1,0.51-0.33,0.75-0.49
			c-0.31-0.08-0.63-0.24-0.92-0.2c-1.3,0.22-2.61,0.45-3.89,0.8c-2.73,0.77-5.48,1.51-8.15,2.49c-2.28,0.84-4.53,1.83-6.2,3.75
			c-1.35,1.55-1.28,3.04,0.27,4.36c1.69,1.45,3.77,2.18,5.87,2.71c3.59,0.94,7.2,1.71,10.91,1.83c0.55,0.02,1.1,0.08,1.67,0.14
			c1.67,0.2,3.32,0.51,4.99,0.61C97.33,102.85,101.77,103.01,106.16,103.19z M90.58,179.87c1.22,0,2.36,0.02,3.51-0.02
			c0.16,0,0.41-0.33,0.47-0.53c0.71-3.26,1.41-6.54,2.1-9.81c0.43-1.98,0.84-3.96,1.26-5.93c0.24,0.49,0.31,0.96,0.33,1.45
			c0.31,4.79,0.59,9.58,0.92,14.35c0.02,0.16,0.31,0.45,0.49,0.47c0.88,0.04,1.77,0,2.65,0.04c0.51,0.02,0.67-0.12,0.77-0.65
			c1.08-5.18,2.18-10.34,3.28-15.49c0.86-4.02,1.69-8.03,2.57-12.05c0.12-0.55,0.02-0.65-0.51-0.63c-0.8,0.04-1.59,0.06-2.39,0
			c-0.69-0.06-0.94,0.18-1.08,0.86c-1.04,4.99-2.1,9.99-3.18,14.98c-0.04,0.16-0.12,0.31-0.2,0.45c-0.41-4.57-0.67-9.09-0.96-13.62
			c-0.06-0.88,0.14-2.14-0.33-2.51c-0.57-0.45-1.75-0.08-2.65-0.16c-0.77-0.08-1.04,0.2-1.18,0.94c-1.49,7.11-3.02,14.23-4.53,21.37
			C91.5,175.48,91.05,177.65,90.58,179.87z M159.67,129.88c0.08,0,0.16,0,0.24,0c0.18,2.73,0.35,5.46,0.53,8.18
			c0.14,2.41,0.33,4.81,0.45,7.22c0.02,0.55,0.2,0.69,0.73,0.65c0.8-0.04,1.59-0.06,2.39,0c0.53,0.04,0.71-0.16,0.82-0.63
			c1.92-9.09,3.83-18.21,5.79-27.3c0.12-0.57-0.1-0.57-0.51-0.55c-0.82,0.02-1.65,0.06-2.47-0.02c-0.65-0.06-0.84,0.22-0.96,0.8
			c-0.75,3.71-1.55,7.4-2.34,11.11c-0.31,1.41-0.61,2.79-0.92,4.2c-0.24-0.37-0.29-0.69-0.31-1.04c-0.27-4.44-0.51-8.87-0.77-13.31
			c-0.1-1.73-0.12-1.73-1.83-1.73c-0.41,0-0.84,0.04-1.24-0.02c-0.63-0.08-0.84,0.18-0.96,0.77c-0.75,3.73-1.57,7.46-2.36,11.19
			c-1.12,5.3-2.26,10.62-3.4,15.92c-0.1,0.49,0.02,0.61,0.49,0.59c0.88-0.04,1.77-0.04,2.65,0c0.47,0.02,0.63-0.12,0.73-0.61
			c0.73-3.57,1.49-7.11,2.26-10.68C159,133.08,159.35,131.49,159.67,129.88z M168.21,156.2c0.02-3.1-1.08-4.81-3-5.28
			c-1.3-0.33-2.59-0.27-3.81,0.24c-2.71,1.12-4.06,3.36-4.67,6.1c-1.02,4.61-2,9.24-2.96,13.86c-0.33,1.57-0.65,3.18-0.71,4.77
			c-0.08,2.08,1.1,3.71,2.81,4.12c1.96,0.47,3.79,0.2,5.44-1.04c1.75-1.33,2.75-3.12,3.2-5.22c0.9-4.1,1.77-8.2,2.63-12.31
			C167.56,159.48,167.93,157.52,168.21,156.2z M149.87,150.61c-0.8,0.18-1.63,0.27-2.39,0.57c-2.55,1.04-3.91,3.14-4.53,5.69
			c-0.84,3.57-1.57,7.16-2.3,10.74c-0.53,2.53-1.1,5.06-1.47,7.6c-0.33,2.3,0.9,4.28,2.77,4.75c2.16,0.53,4.14,0.14,5.85-1.35
			c1.61-1.39,2.47-3.18,2.89-5.22c0.82-3.75,1.61-7.5,2.41-11.27c0.45-2.12,0.94-4.24,1.18-6.4
			C154.64,152.71,152.8,150.74,149.87,150.61z M113.05,139.87c-0.1,0-0.2,0-0.33,0c0,1.77,0.02,3.53-0.02,5.3
			c-0.02,0.59,0.1,0.84,0.75,0.8c0.88-0.06,1.77-0.06,2.65,0c0.67,0.04,0.84-0.16,0.84-0.82c0.02-3.63,0.12-7.24,0.16-10.87
			c0-1.24,0.24-2.2,1.2-3.22c2.36-2.57,3.06-5.85,2.83-9.26c-0.16-2.47-1.41-3.77-3.83-4.12c-1.86-0.24-3.75-0.16-5.63-0.16
			c-0.18,0-0.47,0.37-0.51,0.61c-1.06,4.89-2.12,9.81-3.16,14.72c-0.88,4.14-1.75,8.26-2.63,12.4c-0.12,0.57-0.02,0.77,0.61,0.73
			c0.92-0.06,1.83-0.04,2.73,0c0.61,0.04,0.77-0.18,0.88-0.77c0.71-3.57,1.51-7.11,2.22-10.68c0.12-0.61,0.41-0.57,0.84-0.59
			c0.65-0.02,0.41,0.45,0.41,0.73C113.05,136.4,113.05,138.14,113.05,139.87z M61.84,169.08c0.37,0,0.67,0.04,1,0
			c0.59-0.08,0.69,0.14,0.55,0.69c-0.2,0.77-0.29,1.55-0.49,2.32c-0.31,1.18-0.61,2.39-1.04,3.53c-0.24,0.67-0.92,0.9-1.63,0.71
			c-0.69-0.18-0.69-0.8-0.69-1.37c0-0.22,0.02-0.47,0.06-0.69c1.22-5.77,2.45-11.54,3.71-17.29c0.12-0.61,0.45-1.24,0.88-1.67
			c0.31-0.29,0.98-0.39,1.43-0.29c0.22,0.04,0.45,0.67,0.51,1.06c0.06,0.43-0.04,0.88-0.12,1.3c-0.22,1.14-0.47,2.3-0.73,3.45
			c-0.1,0.43,0,0.59,0.45,0.57c1.06-0.02,2.12,0.02,3.18-0.02c0.2,0,0.53-0.24,0.57-0.43c0.37-1.65,0.82-3.32,1-4.99
			c0.39-3.61-2.06-5.77-5.63-5.12c-3.1,0.57-4.73,2.73-5.59,5.5c-0.61,1.98-0.94,4.06-1.37,6.1c-0.9,4.16-1.79,8.32-2.63,12.48
			c-0.71,3.55,1.61,5.97,4.89,5.1c0.9-0.24,1.71-0.84,2.61-1.3c-0.18,1.41,0.82,1.18,1.73,1.14c0.14,0,0.31-0.02,0.45,0
			c0.43,0.04,0.61-0.08,0.69-0.55c0.2-1.22,0.49-2.41,0.75-3.61c0.67-3.16,1.35-6.32,2.02-9.46c0.1-0.47,0.12-0.75-0.55-0.73
			c-1.55,0.06-3.12,0.04-4.67,0c-0.45,0-0.63,0.16-0.71,0.55C62.24,167.04,62.04,168.02,61.84,169.08z M127.42,133.08
			c0.02,0.2,0.06,0.39,0.06,0.55c0.1,3.87,0.2,7.77,0.27,11.64c0,0.53,0.12,0.71,0.67,0.67c0.86-0.06,1.71-0.06,2.55,0
			c0.69,0.04,0.88-0.14,0.86-0.86c-0.12-5.83-0.22-11.64-0.29-17.47c0-0.47,0.14-1,0.39-1.39c1.61-2.65,3.28-5.28,4.91-7.93
			c0.16-0.24,0.31-0.51,0.51-0.84c-1.24,0-2.3,0.04-3.34-0.02c-0.55-0.02-0.84,0.18-1.1,0.65c-1.47,2.61-2.98,5.18-4.49,7.77
			c-0.29,0.49-0.59,0.98-0.9,1.49c-0.06-0.02-0.1-0.04-0.16-0.06c0.69-3.24,1.39-6.48,2.1-9.83c-1.18,0-2.3,0.04-3.4-0.02
			c-0.65-0.04-0.84,0.2-0.96,0.8c-0.71,3.51-1.49,6.99-2.22,10.5c-1.18,5.55-2.34,11.07-3.53,16.62c-0.1,0.49,0.02,0.61,0.49,0.59
			c1.02-0.04,2.06,0.02,3.08-0.04c0.2-0.02,0.55-0.29,0.59-0.49c0.51-2.2,1.02-4.4,1.41-6.63
			C125.26,136.69,125.93,134.75,127.42,133.08z M175.98,144.76c-0.18,1.24,0.63,1.26,1.55,1.18c0.2-0.02,0.45,0.06,0.61-0.02
			c0.24-0.1,0.59-0.31,0.63-0.51c0.94-4.36,1.83-8.73,2.77-13.09c0.12-0.57-0.08-0.57-0.49-0.57c-0.94,0.02-1.88,0-2.83,0
			c-0.8,0-1.86-0.27-2.3,0.14c-0.51,0.45-0.47,1.51-0.63,2.3c-0.22,1.04-0.2,1.06,0.86,1.06c0.47,0,0.59,0.08,0.47,0.59
			c-0.37,1.49-0.61,3-0.98,4.46c-0.14,0.57-0.39,1.22-0.77,1.63c-0.31,0.31-0.98,0.51-1.39,0.39c-0.31-0.08-0.53-0.73-0.65-1.16
			c-0.08-0.29,0.02-0.63,0.08-0.96c0.67-3.22,1.35-6.42,2.04-9.64c0.57-2.63,1.12-5.28,1.75-7.89c0.27-1.1,1.14-1.67,1.9-1.47
			c0.69,0.18,0.94,0.96,0.69,2.12c-0.27,1.2-0.51,2.41-0.8,3.61c-0.1,0.47-0.12,0.77,0.55,0.73c1-0.06,2,0,3-0.04
			c0.2,0,0.53-0.2,0.57-0.35c0.35-2.02,0.86-4.04,0.94-6.08c0.1-2.32-1.45-3.91-3.65-4.08c-1-0.06-2.1,0.02-3.02,0.39
			c-2.63,1.02-3.96,3.22-4.57,5.85c-0.75,3.26-1.43,6.54-2.1,9.81c-0.57,2.75-1.28,5.5-1.65,8.28c-0.47,3.59,1.96,5.34,5.02,4.51
			C174.39,145.82,175.12,145.23,175.98,144.76z M74.74,179.87c1.24,0,2.39-0.02,3.53,0c0.47,0.02,0.65-0.14,0.8-0.59
			c0.51-1.59,1.04-3.16,1.63-4.73c0.08-0.24,0.45-0.51,0.69-0.53c1-0.06,2-0.02,3-0.04c0.41,0,0.55,0.08,0.51,0.55
			c-0.14,1.57-0.22,3.16-0.37,4.75c-0.04,0.51,0.1,0.59,0.55,0.59c0.94-0.02,1.88-0.04,2.81,0c0.63,0.04,0.77-0.18,0.82-0.77
			c0.1-2.45,0.24-4.87,0.41-7.32c0.41-6.73,0.82-13.43,1.24-20.16c0.04-0.51-0.12-0.59-0.55-0.57c-1.24,0.02-2.47,0.04-3.71,0
			c-0.65-0.02-0.96,0.16-1.18,0.8c-2.43,6.75-4.87,13.5-7.32,20.22C76.64,174.65,75.7,177.24,74.74,179.87z M89.58,145.94
			c1.24,0,2.34-0.02,3.47,0c0.45,0.02,0.65-0.12,0.8-0.57c0.49-1.53,1.06-3.04,1.53-4.59c0.16-0.57,0.43-0.71,0.98-0.69
			c0.86,0.04,1.71,0.06,2.57,0c0.69-0.06,0.75,0.22,0.69,0.82c-0.14,1.49-0.22,3-0.35,4.49c-0.04,0.43,0.04,0.57,0.49,0.55
			c0.82-0.04,1.65-0.06,2.47,0c0.86,0.08,1.12-0.16,1.16-1.06c0.2-4.44,0.53-8.87,0.8-13.29c0.27-4.49,0.53-8.99,0.8-13.48
			c0.04-0.49-0.06-0.67-0.59-0.65c-1.24,0.04-2.47,0.04-3.71,0c-0.59-0.02-0.86,0.14-1.06,0.73c-1.49,4.16-3.02,8.32-4.53,12.48
			C93.27,135.71,91.44,140.79,89.58,145.94z M133.45,151.12c0-0.02,0-0.04,0-0.06c-0.65,0-1.3,0.06-1.94-0.02
			c-0.77-0.1-0.98,0.24-1.12,0.92c-0.9,4.36-1.83,8.73-2.77,13.09c-1,4.73-2,9.46-3.02,14.21c-0.12,0.53,0.04,0.65,0.55,0.63
			c0.98-0.04,1.94-0.04,2.92,0c0.55,0.02,0.71-0.16,0.84-0.69c0.69-3.38,1.43-6.77,2.12-10.15c0.1-0.47,0.24-0.65,0.75-0.69
			c2.02-0.14,3.85-0.82,5.3-2.26c2.79-2.79,3.87-6.28,3.63-10.13c-0.18-2.81-1.79-4.38-4.55-4.79
			C135.29,151,134.37,151.12,133.45,151.12z M182.59,171.39c-0.37,0.04-0.77,0.08-1.16,0.14c-1,0.16-2.41,0-2.89,0.59
			c-0.59,0.71-0.49,2.06-0.55,3.14c-0.14,2.22,0.73,3.83,2.36,4.51c2.73,1.12,6.24,0.24,7.91-2.16c2.04-2.92,2.87-6.12,1.57-9.58
			c-0.92-2.41-2.02-4.73-3.04-7.09c-0.8-1.83-0.86-3.67,0.2-5.38c0.27-0.43,0.98-0.86,1.47-0.84c0.71,0,0.9,0.77,0.92,1.41
			c0,0.73-0.12,1.47-0.14,2.18c0,0.14,0.24,0.41,0.37,0.41c1.08-0.06,2.18-0.12,3.24-0.27c0.22-0.02,0.55-0.35,0.57-0.57
			c0.12-0.98,0.22-2,0.2-2.98c-0.06-2.63-1.51-4.06-4.12-4.14c-2.85-0.1-5.36,1.59-6.65,4.38c-1.28,2.79-1.2,5.59-0.08,8.38
			c0.86,2.14,1.86,4.24,2.79,6.36c0.8,1.86,0.71,3.67-0.31,5.4c-0.41,0.69-1.02,1.2-1.88,1c-0.9-0.2-1.04-1-1.02-1.73
			C182.36,173.51,182.5,172.49,182.59,171.39z M77.09,145.94c1.22,0,2.34-0.04,3.47,0.02c0.59,0.02,0.8-0.18,0.92-0.75
			c0.67-3.3,1.41-6.61,2.06-9.91c0.12-0.65,0.41-0.8,0.98-0.82c1.69-0.08,3.26-0.63,4.53-1.75c3.36-2.96,4.53-6.79,4.02-11.11
			c-0.24-2.16-1.67-3.67-3.91-3.96c-1.73-0.22-3.53-0.14-5.28-0.2c-0.51-0.02-0.73,0.1-0.86,0.67c-0.8,3.93-1.65,7.87-2.49,11.78
			C79.35,135.24,78.23,140.54,77.09,145.94z M64.12,141.3c0.06,2.06,0.41,3.65,2.22,4.49c2.18,1,5.46,0.53,7.18-1.18
			c2.18-2.2,3.24-4.97,2.81-8.01c-0.27-1.94-1.1-3.79-1.79-5.67c-0.57-1.53-1.35-3-1.94-4.53c-0.65-1.67-0.39-3.3,0.63-4.77
			c0.24-0.35,0.86-0.61,1.26-0.55c0.33,0.04,0.77,0.57,0.82,0.94c0.1,0.8,0.08,1.63-0.06,2.43c-0.12,0.65,0.12,0.65,0.61,0.61
			c1-0.12,2-0.18,2.98-0.33c0.22-0.04,0.55-0.33,0.57-0.53c0.12-1.02,0.29-2.06,0.22-3.06c-0.14-2.14-1.04-3.47-2.73-3.73
			c-1.18-0.18-2.49-0.2-3.63,0.12c-3.34,0.94-5.73,5.32-5.2,9.05c0.33,2.24,1.22,4.26,2.14,6.3c0.65,1.41,1.28,2.83,1.75,4.3
			c0.53,1.67,0.12,3.28-1,4.63c-0.31,0.37-1.06,0.61-1.55,0.53c-0.35-0.06-0.84-0.71-0.86-1.12c-0.08-1,0.04-2.04,0.12-3.04
			c0.02-0.33,0.1-0.57-0.39-0.53c-1.08,0.12-2.16,0.18-3.24,0.33c-0.2,0.02-0.51,0.31-0.53,0.51
			C64.34,139.48,64.22,140.54,64.12,141.3z M122.96,151.06c-4,0-7.93,0-11.89,0.02c-0.14,0-0.39,0.22-0.43,0.39
			c-0.27,1.1-0.47,2.24-0.75,3.34c-0.16,0.59,0.12,0.63,0.57,0.61c0.82-0.02,1.65,0.04,2.47-0.02c0.67-0.04,0.84,0.12,0.69,0.82
			c-1.16,5.38-2.3,10.78-3.45,16.17c-0.53,2.47-1.04,4.93-1.57,7.48c1.1,0,2.14-0.06,3.16,0.02c0.88,0.08,1.16-0.24,1.35-1.08
			c1.57-7.58,3.18-15.15,4.77-22.73c0.1-0.49,0.27-0.69,0.8-0.67c0.94,0.04,1.88,0.04,2.81-0.02c0.22-0.02,0.55-0.29,0.61-0.49
			C122.4,153.65,122.65,152.39,122.96,151.06z M166.07,179.87c3.2,0,6.34,0,9.48-0.02c0.16,0,0.39-0.27,0.45-0.45
			c0.24-0.96,0.43-1.96,0.67-2.92c0.12-0.49-0.1-0.53-0.49-0.53c-1.45,0.02-2.89-0.02-4.32,0.02c-0.59,0.02-0.69-0.18-0.57-0.71
			c0.73-3.38,1.47-6.77,2.18-10.15c0.96-4.46,1.9-8.95,2.87-13.41c0.1-0.47,0.04-0.69-0.53-0.65c-0.98,0.04-1.94,0.04-2.92,0
			c-0.53-0.02-0.73,0.12-0.84,0.69c-1.06,5.16-2.18,10.34-3.28,15.49C167.85,171.41,166.97,175.59,166.07,179.87z M144.3,142.05
			c-1.71,0-3.3-0.02-4.89,0.02c-0.55,0.02-0.63-0.18-0.53-0.65c0.33-1.47,0.63-2.94,0.94-4.38c1.33-6.22,2.65-12.46,4.02-18.67
			c0.18-0.86-0.06-0.98-0.8-0.92c-0.75,0.06-1.53,0.08-2.28,0c-0.8-0.08-1.02,0.24-1.16,0.98c-0.94,4.61-1.94,9.19-2.89,13.78
			c-0.96,4.57-1.94,9.11-2.92,13.74c3.14,0,6.24,0,9.32-0.02c0.18,0,0.45-0.24,0.51-0.43C143.85,144.37,144.06,143.25,144.3,142.05z
			 M68.58,179.87c1.2,0,2.34-0.04,3.49,0.02c0.57,0.02,0.8-0.14,0.92-0.73c1.08-5.18,2.18-10.34,3.28-15.49
			c0.84-3.93,1.65-7.87,2.53-11.78c0.14-0.65,0.04-0.88-0.67-0.82c-0.92,0.06-1.83,0.04-2.73,0c-0.55-0.02-0.73,0.16-0.84,0.71
			c-1.02,4.89-2.08,9.77-3.12,14.64C70.48,170.86,69.54,175.32,68.58,179.87z M155.43,117.48c-1.22,0-2.32,0.04-3.4-0.02
			c-0.63-0.04-0.84,0.18-0.98,0.8c-1.24,5.99-2.55,11.99-3.81,17.98c-0.67,3.2-1.35,6.42-2.04,9.7c1.28,0,2.53,0.02,3.75-0.02
			c0.18,0,0.47-0.35,0.53-0.57c1.3-6.05,2.59-12.09,3.87-18.14C154.04,123.99,154.74,120.79,155.43,117.48z M167.13,88.47
			c-1.12,0.16-2.43,0.35-3.73,0.59c-0.24,0.04-0.45,0.33-0.67,0.49c0.16,0.18,0.29,0.41,0.47,0.57c0.27,0.22,0.57,0.41,0.86,0.63
			c1,0.82,1.16,1.73,0.31,2.65c-0.63,0.69-1.47,1.2-2.2,1.79c-0.12,0.1-0.18,0.31-0.29,0.47c0.14,0.02,0.29,0.08,0.41,0.04
			c1.51-0.51,3.04-0.96,4.49-1.59c1.51-0.67,3-1.47,4.38-2.39c0.47-0.31,0.9-1.22,0.75-1.69c-0.16-0.53-0.92-1.06-1.53-1.22
			C169.42,88.56,168.38,88.6,167.13,88.47z M133.33,206.39c-0.08-0.51-0.12-1-0.27-1.43c-0.29-0.94-0.92-1.41-1.77-1.41
			c-0.86,0-1.61,0.45-1.75,1.41c-0.16,0.96-0.12,1.98,0.06,2.92c0.14,0.75,0.8,1.16,1.65,1.18c0.88,0.02,1.47-0.41,1.77-1.18
			C133.19,207.39,133.23,206.86,133.33,206.39z M141.96,206.21c0.1,0.57,0.12,1.04,0.27,1.47c0.29,0.96,0.9,1.39,1.79,1.39
			c0.9,0,1.61-0.43,1.75-1.39c0.14-1,0.06-2.08-0.14-3.06c-0.16-0.73-0.88-1.06-1.65-1.04c-0.73,0.02-1.33,0.35-1.59,1.04
			C142.16,205.13,142.08,205.72,141.96,206.21z M96.82,206.35c-0.02,0-0.02,0-0.04,0c0.04,0.88-0.22,2.08,0.22,2.53
			c0.47,0.45,1.65,0.14,2.53,0.16c0.08,0,0.2,0.04,0.27,0c0.16-0.14,0.31-0.31,0.45-0.45c-0.16-0.14-0.31-0.39-0.49-0.41
			c-0.43-0.06-0.9,0.02-1.33-0.04c-0.2-0.04-0.47-0.27-0.51-0.47c-0.16-0.65,0.04-1.08,0.84-0.94c0.2,0.04,0.43,0.04,0.61-0.02
			c0.14-0.04,0.37-0.24,0.35-0.35c-0.02-0.18-0.16-0.43-0.33-0.49c-0.2-0.08-0.47-0.02-0.69-0.02c-0.45,0.02-0.84,0.06-0.84-0.65
			c0.02-0.65,0.27-0.82,0.84-0.75c0.33,0.04,0.65,0.04,0.96-0.02c0.2-0.04,0.37-0.22,0.55-0.35c-0.16-0.16-0.33-0.47-0.51-0.49
			c-2.92-0.31-2.92-0.31-2.92,2.57C96.82,206.23,96.82,206.29,96.82,206.35z M104.42,209.14c1.04-0.08,1.77-0.61,1.94-1.45
			c0.18-0.92-0.2-1.47-1.3-1.86c-0.24-0.08-0.53-0.14-0.73-0.31c-0.18-0.14-0.39-0.43-0.35-0.61c0.04-0.2,0.35-0.45,0.55-0.47
			c0.31-0.04,0.61,0.16,0.92,0.18c0.22,0,0.47-0.14,0.69-0.22c-0.1-0.2-0.16-0.57-0.29-0.59c-0.65-0.1-1.33-0.22-1.96-0.12
			c-0.71,0.12-1.04,0.75-1.04,1.45c0,0.67,0.37,1.16,1.04,1.39c0.31,0.1,0.65,0.16,0.9,0.35c0.22,0.16,0.53,0.57,0.45,0.69
			c-0.12,0.24-0.47,0.51-0.75,0.53c-0.31,0.02-0.65-0.24-0.98-0.27c-0.22-0.02-0.47,0.16-0.71,0.27c0.1,0.2,0.14,0.49,0.31,0.57
			C103.53,208.88,104,209,104.42,209.14z M124.63,208.1c0.37-0.39,0.65-0.67,0.92-0.98c0.29-0.31,0.57-0.59,0.82-0.92
			c0.59-0.88,0.43-1.92-0.35-2.41c-0.92-0.55-2.22-0.22-2.65,0.71c-0.08,0.18-0.04,0.41-0.06,0.61c0.29-0.02,0.57,0,0.84-0.06
			c0.1-0.02,0.14-0.31,0.24-0.35c0.31-0.12,0.67-0.31,0.94-0.2c0.18,0.06,0.39,0.57,0.33,0.8c-0.14,0.45-0.39,0.92-0.69,1.28
			c-0.49,0.59-1.08,1.08-1.59,1.65c-0.14,0.16-0.16,0.41-0.24,0.63c0.2,0.06,0.41,0.16,0.61,0.16c0.86,0.02,1.71,0.04,2.55,0
			c0.2-0.02,0.41-0.24,0.59-0.37c-0.2-0.18-0.41-0.47-0.63-0.51C125.75,208.04,125.26,208.1,124.63,208.1z M110.38,206.76
			c0,0.45-0.02,0.88,0,1.33c0.04,0.39-0.29,0.98,0.57,0.96c0.82-0.02,0.51-0.55,0.53-0.92c0.04-0.98,0.06-1.94,0-2.92
			c-0.04-0.61,0.18-0.8,0.75-0.71c0.14,0.02,0.33,0.06,0.43-0.02c0.16-0.08,0.41-0.29,0.39-0.39c-0.04-0.18-0.24-0.49-0.39-0.49
			c-1.14-0.04-2.28-0.04-3.45,0c-0.14,0-0.35,0.31-0.39,0.49c-0.02,0.1,0.27,0.41,0.39,0.39c1.24-0.22,1.24,0.53,1.16,1.41
			C110.36,206.17,110.38,206.45,110.38,206.76z M137.43,205.27c0,0.59-0.02,1.35,0,2.1c0.02,0.53,0.06,1.04-0.73,0.94
			c-0.1-0.02-0.33,0.24-0.33,0.37s0.22,0.33,0.35,0.33c0.75,0.04,1.53,0.04,2.28,0c0.12,0,0.35-0.2,0.35-0.33
			c0-0.12-0.2-0.39-0.31-0.37c-0.63,0.04-0.63-0.33-0.63-0.77c0.02-1.08,0.02-2.18,0-3.26c0-0.71-0.39-0.92-1-0.53
			c-0.22,0.14-0.43,0.33-0.59,0.51c-0.27,0.33-0.49,0.67-0.75,1C136.51,205.27,136.94,205.27,137.43,205.27z"/>
		<path class="st1" d="M106.16,103.19c-4.38-0.2-8.83-0.37-13.25-0.61c-1.67-0.1-3.32-0.41-4.99-0.61c-0.55-0.06-1.1-0.12-1.67-0.14
			c-3.71-0.12-7.34-0.92-10.91-1.83c-2.1-0.55-4.16-1.26-5.87-2.71c-1.55-1.33-1.61-2.81-0.27-4.36c1.67-1.92,3.91-2.92,6.2-3.75
			c2.67-0.98,5.42-1.71,8.15-2.49c1.26-0.37,2.59-0.57,3.89-0.8c0.29-0.04,0.61,0.12,0.92,0.2c-0.24,0.16-0.49,0.39-0.75,0.49
			c-2.34,0.84-4.65,1.77-6.4,3.57c-1.63,1.67-1.35,3.55,0.63,4.81c2.02,1.28,4.3,1.9,6.63,2.22c4.69,0.65,9.38,1.35,14.09,1.69
			c4.87,0.37,9.77,0.33,14.6-0.61c2.14-0.43,4.26-1.02,6.38-1.61c0.55-0.14,1.04-0.53,1.51-0.88c1.02-0.77,1-1.67-0.18-2.14
			c-1.67-0.65-3.47-1.02-5.2-1.51c-0.67-0.18-1.37-0.35-2-0.65c-0.88-0.45-0.86-1.08,0.04-1.41c1.2-0.43,2.47-0.88,3.73-0.96
			c2.89-0.22,5.81-0.37,8.73-0.27c2.02,0.06,4.06,0.51,6.05,0.92c2.32,0.47,4.63,1,6.91,1.61c0.8,0.22,1.57,0.69,2.24,1.18
			c1.14,0.82,1.22,1.86,0.35,2.96c-1.02,1.28-2.41,2.06-3.87,2.67c-2.96,1.24-6.03,2.14-9.19,2.61c-4.36,0.65-8.71,1.33-13.09,1.71
			C115.11,102.89,110.64,102.97,106.16,103.19z"/>
		<path class="st2" d="M90.58,179.87c0.47-2.22,0.92-4.38,1.37-6.52c1.51-7.11,3.04-14.23,4.53-21.37c0.14-0.73,0.41-1.02,1.18-0.94
			c0.9,0.08,2.08-0.29,2.65,0.16c0.47,0.37,0.27,1.63,0.33,2.51c0.29,4.53,0.55,9.05,0.96,13.62c0.06-0.14,0.16-0.29,0.2-0.45
			c1.06-4.99,2.14-9.99,3.18-14.98c0.14-0.67,0.39-0.92,1.08-0.86c0.8,0.08,1.59,0.04,2.39,0c0.51-0.02,0.63,0.08,0.51,0.63
			c-0.88,4.02-1.71,8.03-2.57,12.05c-1.1,5.16-2.22,10.34-3.28,15.49c-0.1,0.51-0.29,0.67-0.77,0.65c-0.88-0.04-1.77,0.02-2.65-0.04
			c-0.18,0-0.49-0.29-0.49-0.47c-0.33-4.79-0.61-9.58-0.92-14.35c-0.02-0.49-0.08-0.96-0.33-1.45c-0.43,1.98-0.84,3.96-1.26,5.93
			c-0.69,3.26-1.39,6.54-2.1,9.81c-0.04,0.2-0.29,0.53-0.47,0.53C92.95,179.89,91.8,179.87,90.58,179.87z"/>
		<path class="st2" d="M159.67,129.88c-0.35,1.59-0.67,3.18-1.02,4.77c-0.75,3.57-1.53,7.11-2.26,10.68
			c-0.1,0.49-0.27,0.63-0.73,0.61c-0.88-0.04-1.77-0.04-2.65,0c-0.47,0.02-0.59-0.08-0.49-0.59c1.14-5.3,2.26-10.62,3.4-15.92
			c0.8-3.73,1.59-7.46,2.36-11.19c0.12-0.61,0.33-0.88,0.96-0.77c0.41,0.06,0.82,0.02,1.24,0.02c1.71,0,1.73,0,1.83,1.73
			c0.27,4.44,0.51,8.87,0.77,13.31c0.02,0.35,0.06,0.67,0.31,1.04c0.31-1.41,0.61-2.79,0.92-4.2c0.8-3.71,1.59-7.4,2.34-11.11
			c0.12-0.57,0.29-0.86,0.96-0.8c0.82,0.08,1.65,0.02,2.47,0.02c0.41,0,0.63-0.02,0.51,0.55c-1.96,9.09-3.87,18.18-5.79,27.3
			c-0.1,0.47-0.29,0.67-0.82,0.63c-0.8-0.06-1.59-0.04-2.39,0c-0.53,0.04-0.71-0.12-0.73-0.65c-0.12-2.41-0.29-4.81-0.45-7.22
			c-0.16-2.73-0.35-5.46-0.53-8.18C159.83,129.9,159.75,129.9,159.67,129.88z"/>
		<path class="st2" d="M168.21,156.2c-0.27,1.33-0.65,3.28-1.06,5.24c-0.88,4.1-1.73,8.22-2.63,12.31c-0.47,2.1-1.45,3.89-3.2,5.22
			c-1.65,1.24-3.49,1.51-5.44,1.04c-1.71-0.41-2.89-2.02-2.81-4.12c0.06-1.59,0.39-3.2,0.71-4.77c0.96-4.63,1.94-9.26,2.96-13.86
			c0.61-2.73,1.96-4.97,4.67-6.1c1.22-0.51,2.51-0.55,3.81-0.24C167.13,151.39,168.21,153.08,168.21,156.2z M164.01,156.12
			c-0.16-0.29-0.35-0.88-0.73-1.12c-0.59-0.35-1.24-0.06-1.59,0.53c-0.33,0.53-0.57,1.16-0.69,1.77c-0.9,4.04-1.75,8.07-2.61,12.11
			c-0.35,1.67-0.71,3.32-1.02,4.99c-0.1,0.61-0.06,1.33,0.63,1.55c0.71,0.24,1.35-0.06,1.71-0.73c0.24-0.47,0.45-0.96,0.55-1.47
			c0.77-3.53,1.53-7.05,2.28-10.56C163.02,160.93,163.48,158.67,164.01,156.12z"/>
		<path class="st2" d="M149.87,150.61c2.94,0.12,4.77,2.1,4.42,5.14c-0.24,2.14-0.75,4.28-1.18,6.4c-0.77,3.77-1.59,7.52-2.41,11.27
			c-0.43,2.04-1.28,3.83-2.89,5.22c-1.71,1.49-3.69,1.88-5.85,1.35c-1.88-0.47-3.12-2.45-2.77-4.75c0.37-2.55,0.94-5.08,1.47-7.6
			c0.75-3.59,1.47-7.18,2.3-10.74c0.61-2.57,1.98-4.65,4.53-5.69C148.23,150.88,149.07,150.8,149.87,150.61z M150.15,156.1
			c-0.2-0.31-0.39-0.9-0.77-1.12c-0.65-0.35-1.26,0.04-1.65,0.63c-0.24,0.39-0.43,0.84-0.53,1.28c-0.9,4.16-1.77,8.3-2.65,12.46
			c-0.37,1.75-0.73,3.49-1.06,5.26c-0.1,0.55,0.02,1.16,0.67,1.37c0.65,0.18,1.28-0.04,1.59-0.63c0.33-0.61,0.57-1.28,0.71-1.96
			c0.84-3.75,1.61-7.5,2.41-11.25C149.29,160.19,149.68,158.28,150.15,156.1z"/>
		<path class="st2" d="M113.05,139.87c0-1.73,0-3.47,0-5.2c0-0.29,0.24-0.75-0.41-0.73c-0.43,0-0.71-0.02-0.84,0.59
			c-0.71,3.57-1.51,7.11-2.22,10.68c-0.12,0.57-0.29,0.8-0.88,0.77c-0.92-0.04-1.83-0.06-2.73,0c-0.61,0.04-0.73-0.16-0.61-0.73
			c0.9-4.14,1.75-8.26,2.63-12.4c1.04-4.91,2.1-9.81,3.16-14.72c0.06-0.24,0.33-0.61,0.51-0.61c1.88,0,3.79-0.08,5.63,0.16
			c2.43,0.33,3.67,1.65,3.83,4.12c0.22,3.4-0.49,6.69-2.83,9.26c-0.96,1.04-1.18,1.98-1.2,3.22c-0.02,3.63-0.12,7.24-0.16,10.87
			c0,0.65-0.16,0.88-0.84,0.82c-0.88-0.06-1.77-0.06-2.65,0c-0.65,0.04-0.75-0.2-0.75-0.8c0.04-1.77,0.02-3.53,0.02-5.3
			C112.84,139.87,112.95,139.87,113.05,139.87z M116.96,124.5c0.02-1.96-0.55-2.77-1.86-2.85c-0.2-0.02-0.57,0.2-0.59,0.37
			c-0.57,2.51-1.08,5.04-1.63,7.56c-0.12,0.55,0.16,0.51,0.51,0.47c1.06-0.14,1.83-0.73,2.39-1.63
			C116.59,127.13,116.86,125.7,116.96,124.5z"/>
		<path class="st2" d="M61.84,169.08c0.2-1.06,0.41-2.04,0.59-3.02c0.08-0.41,0.27-0.57,0.71-0.55c1.55,0.04,3.12,0.04,4.67,0
			c0.65-0.02,0.65,0.27,0.55,0.73c-0.67,3.16-1.35,6.32-2.02,9.46c-0.27,1.2-0.55,2.41-0.75,3.61c-0.08,0.47-0.27,0.59-0.69,0.55
			c-0.14-0.02-0.29,0-0.45,0c-0.9,0.04-1.92,0.24-1.73-1.14c-0.9,0.45-1.71,1.06-2.61,1.3c-3.28,0.88-5.61-1.55-4.89-5.1
			c0.84-4.16,1.75-8.32,2.63-12.48c0.43-2.04,0.75-4.1,1.37-6.1c0.86-2.77,2.49-4.91,5.59-5.5c3.57-0.67,6.01,1.51,5.63,5.12
			c-0.18,1.69-0.63,3.34-1,4.99c-0.04,0.18-0.37,0.43-0.57,0.43c-1.06,0.04-2.12,0-3.18,0.02c-0.47,0.02-0.55-0.14-0.45-0.57
			c0.27-1.14,0.51-2.28,0.73-3.45c0.08-0.43,0.18-0.88,0.12-1.3c-0.06-0.39-0.27-1.02-0.53-1.08c-0.45-0.1-1.12-0.02-1.43,0.29
			c-0.43,0.43-0.73,1.06-0.88,1.67c-1.26,5.75-2.49,11.52-3.71,17.29c-0.04,0.22-0.06,0.47-0.06,0.69c0,0.57,0,1.18,0.69,1.37
			c0.69,0.18,1.37-0.04,1.63-0.71c0.43-1.14,0.73-2.34,1.04-3.53c0.2-0.75,0.31-1.55,0.49-2.32c0.14-0.53,0.04-0.75-0.55-0.69
			C62.51,169.12,62.18,169.08,61.84,169.08z"/>
		<path class="st2" d="M127.42,133.08c-1.49,1.67-2.14,3.61-2.51,5.73c-0.39,2.22-0.9,4.42-1.41,6.63c-0.06,0.2-0.39,0.47-0.59,0.49
			c-1.02,0.06-2.06,0-3.08,0.04c-0.47,0.02-0.59-0.1-0.49-0.59c1.18-5.52,2.34-11.07,3.53-16.62c0.73-3.51,1.51-6.99,2.22-10.5
			c0.12-0.59,0.31-0.84,0.96-0.8c1.1,0.06,2.22,0.02,3.4,0.02c-0.71,3.32-1.41,6.58-2.1,9.83c0.06,0.02,0.1,0.04,0.16,0.06
			c0.31-0.49,0.61-0.98,0.9-1.49c1.49-2.59,3-5.18,4.49-7.77c0.27-0.45,0.53-0.67,1.1-0.65c1.06,0.06,2.12,0.02,3.34,0.02
			c-0.2,0.35-0.35,0.59-0.51,0.84c-1.65,2.65-3.3,5.28-4.91,7.93c-0.24,0.39-0.39,0.92-0.39,1.39c0.08,5.83,0.16,11.66,0.29,17.47
			c0.02,0.69-0.18,0.9-0.86,0.86c-0.86-0.06-1.71-0.06-2.55,0c-0.55,0.04-0.67-0.14-0.67-0.67c-0.06-3.87-0.16-7.77-0.27-11.64
			C127.46,133.47,127.44,133.28,127.42,133.08z"/>
		<path class="st2" d="M175.98,144.76c-0.86,0.47-1.61,1.06-2.45,1.28c-3.06,0.84-5.5-0.94-5.02-4.51c0.37-2.79,1.08-5.52,1.65-8.28
			c0.69-3.28,1.37-6.54,2.1-9.81c0.61-2.63,1.94-4.83,4.57-5.85c0.92-0.37,2.02-0.45,3.02-0.39c2.22,0.16,3.75,1.75,3.65,4.08
			c-0.08,2.04-0.59,4.06-0.94,6.08c-0.02,0.14-0.37,0.35-0.57,0.35c-1,0.04-2-0.02-3,0.04c-0.65,0.04-0.65-0.29-0.55-0.73
			c0.27-1.2,0.53-2.41,0.8-3.61c0.24-1.16,0-1.94-0.69-2.12c-0.75-0.2-1.61,0.37-1.9,1.47c-0.63,2.63-1.18,5.26-1.75,7.89
			c-0.69,3.22-1.37,6.42-2.04,9.64c-0.06,0.31-0.18,0.67-0.08,0.96c0.12,0.43,0.35,1.06,0.65,1.16c0.41,0.12,1.08-0.08,1.39-0.39
			c0.41-0.41,0.63-1.04,0.77-1.63c0.37-1.49,0.61-3,0.98-4.46c0.12-0.51,0-0.59-0.47-0.59c-1.04-0.02-1.06-0.04-0.86-1.06
			c0.16-0.8,0.12-1.88,0.63-2.3c0.45-0.41,1.51-0.14,2.3-0.14c0.94-0.02,1.88,0,2.83,0c0.43,0,0.61,0,0.49,0.57
			c-0.94,4.36-1.83,8.73-2.77,13.09c-0.04,0.2-0.39,0.39-0.63,0.51c-0.16,0.08-0.41,0-0.61,0.02
			C176.61,146.05,175.8,146.01,175.98,144.76z"/>
		<path class="st2" d="M74.74,179.87c0.96-2.63,1.9-5.22,2.83-7.79c2.45-6.75,4.91-13.48,7.32-20.22c0.22-0.65,0.53-0.84,1.18-0.8
			c1.22,0.06,2.47,0.04,3.71,0c0.45,0,0.59,0.08,0.55,0.57c-0.43,6.73-0.84,13.43-1.24,20.16c-0.14,2.45-0.31,4.87-0.41,7.32
			c-0.02,0.59-0.18,0.82-0.82,0.77c-0.94-0.06-1.88-0.04-2.81,0c-0.45,0.02-0.61-0.08-0.55-0.59c0.14-1.57,0.22-3.16,0.37-4.75
			c0.04-0.47-0.08-0.55-0.51-0.55c-1,0.02-2-0.02-3,0.04c-0.24,0.02-0.61,0.29-0.69,0.53c-0.57,1.57-1.12,3.14-1.63,4.73
			c-0.14,0.45-0.35,0.59-0.8,0.59C77.13,179.85,75.96,179.87,74.74,179.87z M86.08,159.79c-0.06,0-0.12-0.02-0.18-0.02
			c-0.06,0.06-0.12,0.12-0.16,0.18c-1.04,3.02-2.06,6.01-3.12,9.03c-0.18,0.53,0.04,0.53,0.43,0.53c0.59-0.02,1.18-0.02,1.75,0
			c0.41,0.02,0.55-0.12,0.57-0.53c0.06-1.14,0.18-2.28,0.29-3.42C85.79,163.62,85.93,161.7,86.08,159.79z"/>
		<path class="st2" d="M89.58,145.94c1.88-5.16,3.71-10.23,5.55-15.29c1.51-4.16,3.04-8.3,4.53-12.48c0.2-0.57,0.47-0.75,1.06-0.73
			c1.24,0.04,2.47,0.04,3.71,0c0.53-0.02,0.63,0.14,0.59,0.65c-0.29,4.49-0.53,8.99-0.8,13.48c-0.27,4.42-0.59,8.87-0.8,13.29
			c-0.04,0.92-0.31,1.14-1.16,1.06c-0.82-0.08-1.65-0.04-2.47,0c-0.45,0.02-0.53-0.14-0.49-0.55c0.12-1.49,0.2-3,0.35-4.49
			c0.06-0.59,0-0.86-0.69-0.82c-0.86,0.06-1.71,0.04-2.57,0c-0.55-0.02-0.82,0.12-0.98,0.69c-0.47,1.55-1.04,3.04-1.53,4.59
			c-0.14,0.45-0.35,0.59-0.8,0.57C91.93,145.92,90.81,145.94,89.58,145.94z M97.19,135.71c0.82,0,1.51-0.02,2.22,0.02
			c0.47,0.02,0.65-0.1,0.69-0.61c0.2-2.81,0.43-5.63,0.65-8.44c0.02-0.2,0-0.43,0-0.63c-0.06,0-0.14-0.02-0.2-0.02
			C99.43,129.21,98.33,132.39,97.19,135.71z"/>
		<path class="st2" d="M133.45,151.12c0.92,0,1.83-0.1,2.73,0.02c2.75,0.41,4.36,1.98,4.55,4.79c0.24,3.83-0.84,7.34-3.63,10.13
			c-1.45,1.45-3.28,2.14-5.3,2.26c-0.53,0.04-0.67,0.22-0.75,0.69c-0.69,3.38-1.45,6.77-2.12,10.15c-0.1,0.53-0.27,0.73-0.84,0.69
			c-0.98-0.04-1.94-0.04-2.92,0c-0.51,0.02-0.65-0.1-0.55-0.63c1.02-4.73,2.02-9.46,3.02-14.21c0.92-4.36,1.86-8.73,2.77-13.09
			c0.14-0.67,0.35-1.02,1.12-0.92c0.63,0.08,1.28,0.02,1.94,0.02C133.45,151.08,133.45,151.1,133.45,151.12z M136.43,158.5
			c0.08-2.34-0.41-2.94-1.92-3.08c-0.22-0.02-0.63,0.22-0.67,0.39c-0.57,2.55-1.1,5.1-1.65,7.65c-0.1,0.45,0.06,0.53,0.49,0.53
			c1.35-0.02,2.41-0.65,2.83-1.96C135.96,160.64,136.25,159.2,136.43,158.5z"/>
		<path class="st2" d="M182.59,171.39c-0.08,1.08-0.22,2.1-0.22,3.12c0,0.73,0.12,1.53,1.02,1.73c0.88,0.2,1.47-0.31,1.88-1
			c1.02-1.73,1.12-3.55,0.31-5.4c-0.92-2.12-1.92-4.2-2.79-6.36c-1.12-2.77-1.2-5.59,0.08-8.38c1.28-2.79,3.79-4.49,6.65-4.38
			c2.63,0.08,4.08,1.51,4.12,4.14c0.02,1-0.08,2-0.2,2.98c-0.02,0.22-0.37,0.55-0.57,0.57c-1.08,0.14-2.16,0.22-3.24,0.27
			c-0.12,0-0.37-0.27-0.37-0.41c0.02-0.73,0.16-1.47,0.14-2.18c0-0.63-0.2-1.41-0.92-1.41c-0.51,0-1.2,0.41-1.47,0.84
			c-1.06,1.71-1,3.55-0.2,5.38c1.02,2.36,2.14,4.69,3.04,7.09c1.3,3.45,0.47,6.67-1.57,9.58c-1.69,2.41-5.2,3.28-7.91,2.16
			c-1.63-0.67-2.51-2.28-2.36-4.51c0.06-1.08-0.04-2.43,0.55-3.14c0.49-0.59,1.9-0.43,2.89-0.59
			C181.83,171.47,182.22,171.45,182.59,171.39z"/>
		<path class="st2" d="M77.09,145.94c1.14-5.4,2.26-10.7,3.38-16c0.84-3.93,1.69-7.85,2.49-11.78c0.12-0.57,0.35-0.69,0.86-0.67
			c1.75,0.08,3.55-0.02,5.28,0.2c2.24,0.29,3.67,1.77,3.91,3.96c0.51,4.32-0.65,8.15-4.02,11.11c-1.26,1.12-2.83,1.67-4.53,1.75
			c-0.57,0.02-0.86,0.16-0.98,0.82c-0.65,3.3-1.39,6.61-2.06,9.91c-0.12,0.55-0.31,0.77-0.92,0.75
			C79.43,145.9,78.31,145.94,77.09,145.94z M88.89,124.76c0.04-2.24-0.49-2.89-1.88-3.02c-0.41-0.04-0.65,0.04-0.73,0.49
			c-0.51,2.51-1.04,4.99-1.59,7.48c-0.1,0.47,0.06,0.53,0.49,0.53c1.3-0.04,2.32-0.59,2.75-1.81
			C88.4,127.03,88.69,125.56,88.89,124.76z"/>
		<path class="st2" d="M64.12,141.3c0.1-0.75,0.22-1.81,0.41-2.85c0.04-0.2,0.33-0.49,0.53-0.51c1.08-0.14,2.16-0.2,3.24-0.33
			c0.49-0.06,0.41,0.2,0.39,0.53c-0.08,1.02-0.2,2.04-0.12,3.04c0.04,0.41,0.51,1.06,0.86,1.12c0.49,0.08,1.22-0.16,1.55-0.53
			c1.12-1.33,1.53-2.96,1-4.63c-0.45-1.47-1.1-2.89-1.75-4.3c-0.92-2.04-1.83-4.04-2.14-6.3c-0.53-3.73,1.86-8.11,5.2-9.05
			c1.14-0.33,2.45-0.31,3.63-0.12c1.67,0.27,2.57,1.59,2.73,3.73c0.06,1.02-0.1,2.06-0.22,3.06c-0.02,0.2-0.37,0.49-0.57,0.53
			c-0.98,0.14-1.98,0.2-2.98,0.33c-0.49,0.06-0.71,0.04-0.61-0.61c0.14-0.8,0.16-1.63,0.06-2.43c-0.04-0.37-0.51-0.9-0.82-0.94
			c-0.41-0.04-1.02,0.22-1.26,0.55c-1.02,1.45-1.28,3.1-0.63,4.77c0.59,1.53,1.37,2.98,1.94,4.53c0.69,1.86,1.53,3.73,1.79,5.67
			c0.41,3.06-0.63,5.81-2.81,8.01c-1.69,1.71-4.97,2.18-7.18,1.18C64.53,144.95,64.18,143.36,64.12,141.3z"/>
		<path class="st3" d="M105.3,67.7c-0.22-0.9-0.57-1.79-0.67-2.71c-0.49-4.06,0.2-7.87,2.24-11.46c1.81-3.14,4.26-5.71,6.97-8.03
			c2.65-2.28,4.81-4.95,5.75-8.38c0.45-1.63,0.55-3.36,0.8-4.99c1.08,1.04,1.37,2.63,1.67,4.14c0.69,3.57-0.49,6.75-2.53,9.6
			c-1.06,1.49-2.41,2.79-3.65,4.12c-1.39,1.47-2.34,3.22-3.28,4.97c-0.22,0.41-0.43,0.84-0.65,1.24c-1.16,2.28-1.16,4.63-0.12,6.89
			c0.61,1.3,1.57,2.45,2.36,3.67c-0.24,0.06-0.47,0.14-0.71,0.2c0.33,0.96-0.55,1.22-1,1.71c-0.08,0.08-0.41,0.1-0.51,0.02
			c-0.82-0.67-1.69-1.33-1.53-2.61c0.02-0.22-0.06-0.47-0.08-0.69c-0.08-1.24-0.43-2.55-0.16-3.69c0.2-0.9-0.24-0.71-0.59-0.73
			c-0.29-0.02-0.69,0.06-0.9,0.24c-0.57,0.57-1.04,1.24-1.57,1.86c-0.24,0.27-0.51,0.61-0.82,0.67c-1.61,0.33-1.81,0.73-1.18,2.28
			C105.34,66.54,105.26,67.15,105.3,67.7z"/>
		<path class="st2" d="M122.96,151.06c-0.29,1.33-0.55,2.59-0.86,3.83c-0.06,0.2-0.39,0.49-0.61,0.49
			c-0.94,0.06-1.88,0.06-2.81,0.02c-0.53-0.02-0.69,0.18-0.8,0.67c-1.59,7.58-3.2,15.15-4.77,22.73c-0.16,0.84-0.47,1.16-1.35,1.08
			c-1.02-0.08-2.06-0.02-3.16-0.02c0.53-2.55,1.06-5.02,1.57-7.48c1.14-5.4,2.28-10.78,3.45-16.17c0.14-0.69-0.02-0.86-0.69-0.82
			c-0.82,0.06-1.65,0-2.47,0.02c-0.45,0.02-0.71-0.02-0.57-0.61c0.29-1.1,0.47-2.24,0.75-3.34c0.04-0.16,0.29-0.39,0.43-0.39
			C115,151.06,118.94,151.06,122.96,151.06z"/>
		<path class="st1" d="M105.3,67.7c-0.04-0.55,0.04-1.16-0.16-1.67c-0.63-1.55-0.43-1.96,1.18-2.28c0.31-0.06,0.59-0.41,0.82-0.67
			c0.53-0.61,1-1.26,1.57-1.86c0.18-0.2,0.59-0.29,0.9-0.24c0.35,0.04,0.82-0.16,0.59,0.73c-0.27,1.16,0.06,2.47,0.16,3.69
			c0.02,0.22,0.1,0.47,0.08,0.69c-0.16,1.26,0.71,1.92,1.53,2.61c0.1,0.08,0.43,0.08,0.51-0.02c0.45-0.49,1.33-0.77,1-1.71
			c0.24-0.06,0.47-0.14,0.71-0.2c1.41,1.22,2.96,2.14,4.77,2.67c2.73,0.8,5.32,0.45,7.79-0.88c0.14-0.08,0.33-0.12,0.49-0.18
			c-0.16,0.22-0.29,0.53-0.51,0.67c-0.57,0.35-0.63,0.61,0.35,0.98c-0.63,0-0.9-0.02-1.18,0c-0.29,0.04-0.55,0.12-1,0.22
			c0.88,0.47,0.37,0.9,0.08,1.3c-0.45,0.63-0.94,1.22-1.41,1.83c-0.12,0.16-0.14,0.39-0.24,0.55c-0.16,0.31-0.35,0.61-0.55,0.9
			c-0.33,0.43-1.04,0.67-0.69,1.43c-0.82,0.18-1.61,0.49-2.43,0.55c-1.2,0.1-2.43,0.1-3.63,0c-2.3-0.2-4.42-1.04-6.22-2.49
			c-2.02-1.63-3.55-3.67-4.42-6.14C105.34,68.05,105.34,67.88,105.3,67.7z"/>
		<path class="st2" d="M166.07,179.87c0.9-4.28,1.79-8.46,2.67-12.64c1.1-5.16,2.22-10.32,3.28-15.49c0.12-0.55,0.31-0.71,0.84-0.69
			c0.98,0.04,1.94,0.04,2.92,0c0.57-0.02,0.63,0.18,0.53,0.65c-0.96,4.46-1.92,8.95-2.87,13.41c-0.71,3.38-1.45,6.77-2.18,10.15
			c-0.12,0.53-0.02,0.71,0.57,0.71c1.45-0.04,2.87,0,4.32-0.02c0.39,0,0.61,0.02,0.49,0.53c-0.24,0.96-0.41,1.96-0.67,2.92
			c-0.04,0.18-0.29,0.45-0.45,0.45C172.39,179.87,169.25,179.87,166.07,179.87z"/>
		<path class="st2" d="M144.3,142.05c-0.24,1.2-0.45,2.32-0.71,3.42c-0.04,0.18-0.33,0.43-0.51,0.43c-3.08,0.02-6.18,0.02-9.32,0.02
			c0.98-4.63,1.94-9.17,2.92-13.74c0.98-4.59,1.96-9.17,2.89-13.78c0.14-0.73,0.37-1.06,1.16-0.98c0.75,0.08,1.53,0.06,2.28,0
			c0.75-0.06,1,0.06,0.8,0.92c-1.37,6.22-2.69,12.44-4.02,18.67c-0.31,1.47-0.61,2.94-0.94,4.38c-0.1,0.47-0.04,0.65,0.53,0.65
			C141,142.03,142.59,142.05,144.3,142.05z"/>
		<path class="st1" d="M137.98,100.85c2.92-0.88,5.85-1.67,8.73-2.67c1.28-0.45,2.51-1.18,3.59-2.02c1.79-1.37,1.71-3-0.1-4.34
			c-1.83-1.35-3.96-2.16-6.14-2.79c-0.84-0.24-1.71-0.45-2.53-0.75c-0.37-0.14-0.65-0.49-0.98-0.73c0.35-0.24,0.65-0.61,1.02-0.71
			c0.69-0.2,1.43-0.31,2.16-0.39c4.89-0.53,9.52,0.29,13.86,2.61c0.65,0.35,1.24,0.77,1.81,1.22c1.81,1.39,1.86,3.26,0.1,4.75
			c-1.77,1.51-3.91,2.34-6.05,3.16c-4.77,1.79-9.79,2.63-14.76,3.57c-0.16,0.04-0.35,0-0.53,0c-0.16-0.06-0.33-0.18-0.47-0.16
			c-0.96,0.12-1.94,0.29-2.89,0.43c-0.31,0.04-0.59,0.04-0.9,0.04c0.63-0.31,1.28-0.37,1.92-0.53
			C136.55,101.36,137.27,101.09,137.98,100.85z"/>
		<path class="st1" d="M92.76,87.45c-0.94,0.71-1.94,1.33-2.77,2.14c-1.2,1.18-1,2.55,0.53,3.3c1.47,0.71,3.02,1.3,4.61,1.67
			c3.2,0.75,6.48,1.18,9.79,1.04c1.2-0.04,2.39-0.22,3.59-0.39c0.63-0.08,0.84-0.41,0.29-0.84c-0.75-0.59-0.24-0.8,0.27-0.94
			c2.2-0.69,4.46-0.69,6.73-0.41c0.94,0.12,1.88,0.43,2.79,0.75c0.31,0.12,0.65,0.55,0.69,0.88c0.02,0.24-0.33,0.71-0.61,0.82
			c-1.28,0.45-2.59,0.98-3.93,1.18c-4.95,0.75-9.95,1.02-14.94,0.69c-4.49-0.31-8.97-0.77-13.19-2.49c-1.06-0.43-2.08-1.08-3-1.79
			c-0.84-0.65-0.88-1.55-0.27-2.45c0.75-1.1,1.81-1.81,3.04-2.28c0.24-0.06,0.53-0.06,0.75-0.16c2.94-1.37,6.08-2.14,9.19-2.98
			c0.35-0.1,0.73-0.16,1.08-0.22c-0.65,0.47-1.39,0.71-2.06,1.06C94.45,86.46,93.62,86.97,92.76,87.45z"/>
		<path class="st2" d="M68.58,179.87c0.96-4.55,1.9-9.01,2.83-13.48c1.04-4.87,2.1-9.74,3.12-14.64c0.12-0.55,0.29-0.73,0.84-0.71
			c0.92,0.04,1.83,0.06,2.73,0c0.71-0.06,0.82,0.16,0.67,0.82c-0.86,3.93-1.67,7.87-2.53,11.78c-1.1,5.16-2.22,10.34-3.28,15.49
			c-0.12,0.59-0.35,0.75-0.92,0.73C70.93,179.83,69.79,179.87,68.58,179.87z"/>
		<path class="st2" d="M155.43,117.48c-0.69,3.3-1.39,6.52-2.06,9.72c-1.28,6.05-2.57,12.11-3.87,18.14
			c-0.04,0.22-0.35,0.55-0.53,0.57c-1.22,0.06-2.47,0.02-3.75,0.02c0.69-3.28,1.37-6.5,2.04-9.7c1.26-5.99,2.57-11.99,3.81-17.98
			c0.12-0.61,0.35-0.82,0.98-0.8C153.11,117.53,154.21,117.48,155.43,117.48z"/>
		<path class="st4" d="M138.9,102.62c5.97-0.77,11.91-1.73,17.7-3.36c2.67-0.75,5.3-1.65,7.67-3.22c1.41-0.94,3.1-0.75,4.71-0.9
			c0.82-0.08,1.65-0.02,2.47,0.06c0.8,0.08,1.59,0.27,2.39,0.45c0.16,0.04,0.41,0.31,0.39,0.37c-0.12,0.27-0.27,0.63-0.49,0.73
			c-1.77,0.77-3.53,1.61-5.34,2.22c-4.83,1.59-9.85,2.43-14.86,3.14c-2.49,0.35-5.02,0.61-7.5,0.94c-0.31-0.06-0.61-0.18-0.92-0.16
			c-0.8,0.04-1.61,0.16-2.41,0.22c-2.51,0.22-4.99,0.43-7.5,0.63c-1.22,0.1-2.45,0.27-3.67,0.33c-1.24,0.06-2.49,0.02-3.73,0.02
			c2.63-0.35,5.28-0.57,7.91-0.86C136.74,103.07,137.82,102.83,138.9,102.62z"/>
		<path class="st5" d="M121.92,62.05c0.39,0,0.75-0.02,1.14,0c1.04,0.06,1.73-0.41,2.18-1.33c0.47-0.96-0.02-1.63-0.63-2.28
			c-0.08-0.08-0.14-0.18-0.2-0.29c0-0.12,0-0.24,0-0.39c0.77-0.12,1.57-0.31,2.34-0.39c1.16-0.1,2.3-0.1,3.47-0.14
			c0.18,0.57,0.47,1.14,0.51,1.71c0.04,0.84-0.1,1.69-0.16,2.53c-0.55,0-1.12-0.04-1.67,0.02c-0.69,0.08-1.75,0.02-1.98,0.41
			c-0.55,0.98-1.2,1.55-2.26,1.73c-0.06,0-0.1,0.06-0.14,0.1c-0.88,0.65-1.98,1.14-2.61,2c-0.84,1.1-1.63,0.51-2.47,0.35
			c-0.43-0.08-0.84-0.22-1.26-0.35l0.02,0.02c-0.67-1.02-0.67-1,0.41-1.65C119.69,63.44,120.81,62.75,121.92,62.05z"/>
		<path class="st4" d="M167.13,88.47c1.22,0.12,2.28,0.08,3.24,0.37c0.61,0.16,1.37,0.69,1.53,1.22c0.14,0.47-0.31,1.39-0.75,1.69
			c-1.39,0.92-2.85,1.71-4.38,2.39c-1.45,0.65-2.98,1.08-4.49,1.59c-0.12,0.04-0.27-0.02-0.41-0.04c0.1-0.16,0.14-0.35,0.29-0.47
			c0.73-0.61,1.57-1.1,2.2-1.79c0.86-0.92,0.67-1.83-0.31-2.65c-0.27-0.22-0.59-0.41-0.86-0.63c-0.18-0.16-0.31-0.39-0.47-0.57
			c0.22-0.16,0.43-0.45,0.67-0.49C164.73,88.82,166.03,88.64,167.13,88.47z"/>
		<path class="st6" d="M118.16,65.76c0.43,0.12,0.84,0.27,1.26,0.35c0.84,0.16,1.63,0.75,2.47-0.35c0.63-0.84,1.73-1.35,2.61-2
			c0.04-0.04,0.08-0.08,0.14-0.1c1.06-0.2,1.71-0.77,2.26-1.73c0.22-0.39,1.28-0.35,1.98-0.41c0.55-0.06,1.12-0.02,1.67-0.02
			c-0.1,0.39-0.2,0.75-0.33,1.14c-0.65,0.9-1.18,1.96-2,2.67C125.61,67.62,120.9,67.76,118.16,65.76z"/>
		<path class="st6" d="M130.25,62.62c0.1-0.39,0.22-0.75,0.33-1.14c0.06-0.84,0.2-1.69,0.16-2.53c-0.04-0.57-0.33-1.14-0.51-1.71
			c-0.08-1.26-0.41-1.61-1.26-1.59c-1.61,0.06-3.2,0.06-4.81,0.06c-0.43,0-0.9,0.47-0.69,0.84c0.27,0.45,0.61,0.84,0.94,1.24
			c0,0.12,0,0.24,0,0.39c-1.61-1.41-2-3.32-0.94-4.67c0.96-1.2,2.36-1.51,3.77-0.71c3.55,2.04,4.61,6.05,3.26,9.5
			C130.46,62.42,130.34,62.52,130.25,62.62z"/>
		<path class="st6" d="M121.92,62.05c-1.1,0.69-2.22,1.39-3.32,2.08c-1.06,0.65-1.06,0.63-0.41,1.65c-1.47-0.8-2.47-2-2.98-3.57
			c-0.49-1.53-0.69-3.08-0.2-4.65c0,0.94-0.04,1.9,0.04,2.83c0.12,1.69,0.33,1.79,1.69,0.9c0.08-0.04,0.14-0.12,0.22-0.14
			c0.8-0.24,0.96-0.73,0.53-1.43C118.76,60.89,120.24,61.63,121.92,62.05z"/>
		<path class="st7" d="M138.9,102.62c-1.08,0.18-2.14,0.43-3.22,0.55c-2.63,0.29-5.28,0.53-7.91,0.86c1.24,0,2.49,0.04,3.73-0.02
			c1.22-0.06,2.45-0.22,3.67-0.33c2.51-0.22,4.99-0.43,7.5-0.63c0.8-0.06,1.61-0.18,2.41-0.22c0.31-0.02,0.61,0.1,0.92,0.16
			c-2.28,0.22-4.55,0.55-6.83,0.67c-6.52,0.37-13.03,0.65-19.55,0.94c-1.73,0.08-3.47,0.02-5.26-0.08c0.27-0.08,0.51-0.24,0.77-0.27
			c4.93-0.24,9.87-0.43,14.78-0.75c2.73-0.18,5.42-0.57,8.15-0.88C138.31,102.64,138.59,102.64,138.9,102.62z"/>
		<path class="st8" d="M122.1,76.3c-0.35-0.75,0.37-1,0.69-1.43c0.2-0.29,0.39-0.59,0.55-0.9c0.1-0.18,0.12-0.41,0.24-0.55
			c0.45-0.61,0.96-1.22,1.41-1.83c0.29-0.41,0.82-0.84-0.08-1.3c0.45-0.1,0.71-0.2,1-0.22c0.27-0.04,0.55,0,1.18,0
			c-0.98-0.37-0.92-0.63-0.35-0.98c0.22-0.12,0.35-0.43,0.51-0.67c1.75-1.18,3.12-2.73,4.16-4.59c0.08,0.02,0.18,0.04,0.27,0.06
			c-0.14,0.98-0.16,1.98-0.43,2.92c-1.3,4.57-4.22,7.71-8.62,9.44C122.45,76.28,122.26,76.28,122.1,76.3z M130.97,65.42
			c-0.82,0.88-1.57,1.75-2.41,2.55c-0.61,0.59-1.43,1-1.41,2.04c0,0.14-0.33,0.43-0.39,0.41c-0.96-0.37-0.9,0.51-1.2,0.96
			c-0.92,1.41-1.81,2.81-2.69,4.14C126.58,74.39,130.66,69.92,130.97,65.42z"/>
		<path class="st9" d="M133.33,206.39c-0.1,0.47-0.14,1-0.33,1.49c-0.31,0.77-0.9,1.2-1.77,1.18c-0.84-0.02-1.51-0.43-1.65-1.18
			c-0.18-0.94-0.2-1.98-0.06-2.92c0.16-0.96,0.9-1.41,1.75-1.41c0.86,0,1.49,0.47,1.77,1.41
			C133.21,205.39,133.23,205.86,133.33,206.39z M130.31,206.29c0.08,0.49,0.1,0.94,0.27,1.35c0.1,0.24,0.45,0.57,0.65,0.55
			c0.27-0.02,0.71-0.33,0.73-0.55c0.08-0.88,0.08-1.77,0-2.67c-0.02-0.2-0.43-0.47-0.69-0.51c-0.2-0.02-0.57,0.22-0.65,0.43
			C130.44,205.33,130.4,205.84,130.31,206.29z"/>
		<path class="st9" d="M141.96,206.21c0.12-0.49,0.2-1.08,0.41-1.61c0.27-0.69,0.86-1.02,1.59-1.04c0.77-0.02,1.51,0.31,1.65,1.04
			c0.2,1,0.29,2.06,0.14,3.06c-0.14,0.98-0.86,1.39-1.75,1.39s-1.49-0.43-1.79-1.39C142.08,207.23,142.06,206.76,141.96,206.21z
			 M144.99,206.35c-0.1-0.47-0.14-0.98-0.31-1.43c-0.08-0.22-0.43-0.47-0.63-0.47c-0.27,0.02-0.69,0.29-0.71,0.47
			c-0.06,0.94-0.04,1.9,0.02,2.83c0.02,0.16,0.43,0.43,0.65,0.43s0.57-0.24,0.65-0.45C144.85,207.31,144.89,206.84,144.99,206.35z"
			/>
		<path class="st9" d="M96.82,206.35c0-0.06,0-0.12,0-0.18c0-2.87,0-2.87,2.92-2.57c0.18,0.02,0.35,0.33,0.51,0.49
			c-0.18,0.12-0.35,0.31-0.55,0.35c-0.31,0.06-0.65,0.04-0.96,0.02c-0.57-0.06-0.82,0.1-0.84,0.75c-0.02,0.71,0.37,0.65,0.84,0.65
			c0.24,0,0.49-0.06,0.69,0.02c0.16,0.06,0.31,0.31,0.33,0.49c0.02,0.1-0.2,0.31-0.35,0.35c-0.18,0.06-0.41,0.04-0.61,0.02
			c-0.8-0.14-1,0.27-0.84,0.94c0.04,0.18,0.31,0.43,0.51,0.47c0.43,0.06,0.88-0.02,1.33,0.04c0.18,0.02,0.33,0.27,0.49,0.41
			c-0.14,0.14-0.29,0.31-0.45,0.45c-0.06,0.04-0.16,0-0.27,0c-0.88-0.02-2.06,0.29-2.53-0.16
			C96.57,208.45,96.86,207.23,96.82,206.35C96.8,206.35,96.82,206.35,96.82,206.35z"/>
		<path class="st9" d="M104.42,209.14c-0.43-0.14-0.9-0.27-1.3-0.47c-0.16-0.08-0.2-0.37-0.31-0.57c0.24-0.1,0.49-0.29,0.71-0.27
			c0.33,0.02,0.67,0.31,0.98,0.27c0.29-0.02,0.63-0.29,0.75-0.53c0.06-0.14-0.24-0.53-0.45-0.69c-0.24-0.18-0.59-0.24-0.9-0.35
			c-0.67-0.22-1.02-0.69-1.04-1.39c0-0.71,0.33-1.33,1.04-1.45c0.63-0.1,1.3,0.02,1.96,0.12c0.12,0.02,0.18,0.39,0.29,0.59
			c-0.22,0.08-0.47,0.22-0.69,0.22c-0.31,0-0.63-0.2-0.92-0.18c-0.2,0.02-0.51,0.27-0.55,0.47c-0.04,0.16,0.16,0.47,0.35,0.61
			c0.2,0.16,0.47,0.2,0.73,0.31c1.1,0.41,1.49,0.94,1.3,1.86C106.2,208.53,105.46,209.06,104.42,209.14z"/>
		<path class="st9" d="M124.63,208.1c0.63,0,1.12-0.06,1.57,0.02c0.24,0.04,0.43,0.33,0.63,0.51c-0.2,0.12-0.39,0.37-0.59,0.37
			c-0.86,0.04-1.71,0.02-2.55,0c-0.2,0-0.41-0.1-0.61-0.16c0.08-0.2,0.1-0.47,0.24-0.63c0.51-0.57,1.1-1.06,1.59-1.65
			c0.31-0.37,0.57-0.82,0.69-1.28c0.06-0.22-0.14-0.73-0.33-0.8c-0.27-0.08-0.63,0.1-0.94,0.2c-0.1,0.04-0.14,0.31-0.24,0.35
			c-0.27,0.06-0.55,0.04-0.84,0.06c0.02-0.2-0.02-0.45,0.06-0.61c0.43-0.94,1.73-1.26,2.65-0.71c0.8,0.47,0.96,1.53,0.35,2.41
			c-0.22,0.33-0.53,0.63-0.82,0.92C125.28,207.41,124.99,207.72,124.63,208.1z"/>
		<path class="st10" d="M117.49,59.71c0.43,0.71,0.24,1.18-0.53,1.43c-0.08,0.02-0.14,0.08-0.22,0.14c-1.37,0.9-1.57,0.8-1.69-0.9
			c-0.08-0.94-0.04-1.88-0.04-2.83c0.22-0.77,0.43-1.55,0.65-2.32c0.1,0,0.18,0,0.29,0C115.88,56.96,116.33,58.47,117.49,59.71z"/>
		<path class="st11" d="M137.98,100.85c-0.71,0.22-1.43,0.51-2.16,0.69c-0.63,0.16-1.28,0.22-1.92,0.53c0.31-0.02,0.61,0,0.9-0.04
			c0.96-0.14,1.94-0.31,2.89-0.43c0.14-0.02,0.31,0.1,0.47,0.16c-2.71,0.35-5.4,0.73-8.11,1.04c-1.77,0.2-3.57,0.33-5.36,0.47
			c-0.55,0.04-1.1,0-1.65-0.12C128.03,102.4,133.01,101.62,137.98,100.85z"/>
		<path class="st10" d="M110.38,206.76c0-0.29-0.02-0.59,0-0.88c0.08-0.86,0.08-1.63-1.16-1.41c-0.1,0.02-0.41-0.29-0.39-0.39
			c0.04-0.18,0.24-0.49,0.39-0.49c1.14-0.04,2.28-0.04,3.45,0c0.14,0,0.35,0.31,0.39,0.49c0.02,0.1-0.22,0.31-0.39,0.39
			c-0.12,0.06-0.29,0.02-0.43,0.02c-0.55-0.08-0.77,0.1-0.75,0.71c0.06,0.96,0.04,1.94,0,2.92c-0.02,0.37,0.29,0.9-0.53,0.92
			c-0.86,0.02-0.55-0.57-0.57-0.96C110.36,207.63,110.38,207.19,110.38,206.76z"/>
		<path class="st9" d="M137.43,205.27c-0.49,0-0.92-0.02-1.33-0.02c0.24-0.35,0.47-0.69,0.75-1c0.16-0.2,0.37-0.39,0.59-0.51
			c0.61-0.39,0.98-0.18,1,0.53c0.02,1.08,0.02,2.18,0,3.26c0,0.45,0,0.84,0.63,0.77c0.1,0,0.31,0.24,0.31,0.37s-0.22,0.33-0.35,0.33
			c-0.75,0.04-1.53,0.04-2.28,0c-0.12,0-0.35-0.22-0.35-0.33c0-0.12,0.22-0.37,0.33-0.37c0.8,0.08,0.75-0.41,0.73-0.94
			C137.41,206.61,137.43,205.86,137.43,205.27z"/>
		<path class="st12" d="M92.76,87.45c0.86-0.49,1.69-1,2.57-1.45c0.67-0.35,1.41-0.59,2.06-1.06c-0.37,0.08-0.73,0.12-1.08,0.22
			c-3.12,0.84-6.26,1.61-9.19,2.98c-0.22,0.1-0.51,0.12-0.75,0.16c1.96-0.77,3.85-1.67,5.85-2.28c2.28-0.71,4.65-1.18,6.97-1.73
			c0.18-0.04,0.41,0.06,0.63,0.1c-0.18,0.14-0.35,0.35-0.55,0.43C97.11,85.72,94.92,86.6,92.76,87.45z"/>
		<path class="st0" d="M164.01,156.12c-0.53,2.55-1,4.81-1.47,7.07c-0.75,3.53-1.51,7.05-2.28,10.56c-0.1,0.51-0.33,1-0.55,1.47
			c-0.35,0.67-0.98,0.98-1.71,0.73c-0.71-0.24-0.75-0.94-0.63-1.55c0.31-1.67,0.67-3.32,1.02-4.99c0.86-4.04,1.71-8.07,2.61-12.11
			c0.14-0.61,0.39-1.22,0.69-1.77c0.35-0.57,1.02-0.88,1.59-0.53C163.67,155.22,163.83,155.83,164.01,156.12z"/>
		<path class="st0" d="M150.15,156.1c-0.45,2.18-0.86,4.1-1.26,6.01c-0.8,3.75-1.59,7.5-2.41,11.25c-0.14,0.67-0.39,1.35-0.71,1.96
			c-0.33,0.61-0.94,0.84-1.59,0.63c-0.67-0.18-0.77-0.8-0.67-1.37c0.31-1.75,0.67-3.51,1.06-5.26c0.88-4.16,1.75-8.32,2.65-12.46
			c0.1-0.45,0.29-0.9,0.53-1.28c0.39-0.59,1-0.98,1.65-0.63C149.76,155.2,149.95,155.79,150.15,156.1z"/>
		<path class="st13" d="M116.96,124.5c-0.12,1.2-0.39,2.63-1.18,3.89c-0.57,0.9-1.33,1.49-2.39,1.63c-0.33,0.04-0.63,0.08-0.51-0.47
			c0.55-2.53,1.06-5.06,1.63-7.56c0.04-0.16,0.41-0.39,0.59-0.37C116.43,121.75,116.98,122.56,116.96,124.5z"/>
		<path class="st14" d="M86.08,159.79c-0.14,1.92-0.29,3.83-0.43,5.77c-0.08,1.14-0.22,2.28-0.29,3.42
			c-0.02,0.43-0.16,0.55-0.57,0.53c-0.59-0.02-1.18-0.02-1.75,0c-0.39,0-0.61,0-0.43-0.53c1.06-3,2.08-6.01,3.12-9.03
			c0.02-0.08,0.1-0.12,0.16-0.18C85.95,159.77,86.01,159.77,86.08,159.79z"/>
		<path class="st14" d="M97.19,135.71c1.14-3.3,2.24-6.5,3.34-9.68c0.06,0,0.14,0.02,0.2,0.02c0,0.2,0.02,0.43,0,0.63
			c-0.22,2.81-0.45,5.63-0.65,8.44c-0.04,0.51-0.2,0.63-0.69,0.61C98.7,135.67,97.98,135.71,97.19,135.71z"/>
		<path class="st13" d="M136.43,158.5c-0.18,0.71-0.47,2.14-0.92,3.53c-0.43,1.3-1.49,1.94-2.83,1.96c-0.43,0-0.59-0.08-0.49-0.53
			c0.55-2.55,1.08-5.1,1.65-7.65c0.04-0.18,0.45-0.41,0.67-0.39C136.02,155.55,136.49,156.16,136.43,158.5z"/>
		<path class="st13" d="M88.89,124.76c-0.2,0.8-0.49,2.26-0.98,3.67c-0.43,1.22-1.45,1.77-2.75,1.81c-0.43,0.02-0.59-0.06-0.49-0.53
			c0.55-2.49,1.08-4.99,1.59-7.48c0.1-0.45,0.33-0.53,0.73-0.49C88.4,121.87,88.93,122.52,88.89,124.76z"/>
		<path class="st9" d="M124.4,57.77c-0.33-0.41-0.67-0.8-0.94-1.24c-0.2-0.35,0.27-0.84,0.69-0.84c1.61,0,3.2,0,4.81-0.06
			c0.86-0.02,1.18,0.33,1.26,1.59c-1.16,0.04-2.32,0.06-3.47,0.14C125.95,57.47,125.18,57.65,124.4,57.77z"/>
		<path class="st15" d="M130.97,65.42c-0.31,4.51-4.4,8.97-8.07,10.09c0.86-1.33,1.77-2.73,2.69-4.14c0.29-0.45,0.24-1.3,1.2-0.96
			c0.08,0.02,0.41-0.27,0.39-0.41c-0.02-1.04,0.77-1.45,1.41-2.04C129.4,67.19,130.15,66.29,130.97,65.42z"/>
		<path class="st16" d="M130.31,206.29c0.08-0.45,0.14-0.94,0.31-1.39c0.08-0.2,0.45-0.45,0.65-0.43c0.27,0.04,0.67,0.31,0.69,0.51
			c0.08,0.88,0.08,1.77,0,2.67c-0.02,0.22-0.47,0.53-0.73,0.55c-0.2,0.02-0.55-0.31-0.65-0.55
			C130.42,207.23,130.4,206.78,130.31,206.29z"/>
		<path class="st16" d="M144.99,206.35c-0.1,0.49-0.14,0.96-0.33,1.39c-0.08,0.22-0.43,0.45-0.65,0.45s-0.65-0.27-0.65-0.43
			c-0.08-0.94-0.08-1.9-0.02-2.83c0.02-0.18,0.45-0.45,0.71-0.47c0.2-0.02,0.55,0.24,0.63,0.47
			C144.85,205.37,144.89,205.88,144.99,206.35z"/>
	</g>
</g>
</svg>
