<?xml version="1.0" encoding="utf-8"?>
<!-- Generator: Adobe Illustrator 23.0.1, SVG Export Plug-In . SVG Version: 6.00 Build 0)  -->
<svg version="1.1" id="Layer_1" xmlns="http://www.w3.org/2000/svg" xmlns:xlink="http://www.w3.org/1999/xlink" x="0px" y="0px"
	 viewBox="0 0 520 520" style="enable-background:new 0 0 520 520;" xml:space="preserve">
<style type="text/css">
	.st0{fill:#222222;}
	.st1{fill:#2BACE2;}
	.st2{fill:#FFFFFF;}
	.st3{fill:#1C99D0;}
	.st4{fill:#30ABE2;}
	.st5{fill:#57A8D6;}
	.st6{fill:#1D99CF;}
	.st7{fill:#1C96C9;}
	.st8{fill:#47B8DD;}
	.st9{fill:#2FAAE1;}
	.st10{fill:#29A2D6;}
	.st11{fill:#2CA0D4;}
	.st12{fill:#222323;}
	.st13{fill:#232323;}
	.st14{fill:#31AAE1;}
	.st15{fill:#232425;}
</style>
<g>
	<g>
		<g>
			<path class="st0" d="M474.69,260.39c0,42.81,0,85.62,0.04,128.43c0,1.56-0.4,2.39-1.82,3.18
				c-42.49,24.44-84.97,48.97-127.4,73.45c-30.34,17.54-60.77,34.97-91.03,52.71c-4.13,2.43-6.99,2.47-11.14,0
				c-26.47-15.57-53.14-30.84-79.77-46.19c-30.25-17.46-60.53-34.97-90.74-52.43c-16.1-9.3-32.2-18.57-48.34-27.82
				c-1.03-0.63-1.44-1.24-1.44-2.47c0.02-85.92,0.02-171.89-0.06-257.79c0-1.62,0.83-2.11,1.9-2.77
				c52.31-30.17,104.58-60.37,156.84-90.54c21.63-12.45,43.22-24.93,64.8-37.44c1.66-0.95,2.94-0.91,4.58,0.04
				c30.3,17.54,60.61,35.01,90.91,52.47c30.48,17.58,60.93,35.22,91.37,52.79c13.2,7.63,26.43,15.27,39.71,22.86
				c1.15,0.67,1.48,1.36,1.48,2.63C474.69,174.51,474.69,217.44,474.69,260.39z M241.34,114.4c-2.35-2.51-3.3-5.57-3.18-9.03
				c-0.2,0-0.36,0-0.59,0c-0.45,1.56-0.87,3.14-1.32,4.7c-0.99,3.18-0.59,6.32,0.41,9.42c1.03,3.18,3.06,5.65,6.03,7.23l-0.04-0.04
				c5.53,4.05,15.03,3.77,20.39-0.91c1.66-1.44,2.73-3.58,4.05-5.41c0.16-0.24,0.4-0.45,0.55-0.71c2.73-6.93,0.59-15.11-6.6-19.24
				c-2.86-1.66-5.69-0.99-7.63,1.44c-2.15,2.69-1.4,6.56,1.9,9.46c0.12,0.2,0.24,0.36,0.41,0.59c1.24,1.32,2.23,2.69,1.28,4.62
				c-0.91,1.86-2.31,2.81-4.41,2.69c-0.79-0.04-1.52,0-2.31,0C246.91,118.29,243.92,116.79,241.34,114.4z M284.7,201.3
				c-0.59,0.04-1.19,0.04-1.78,0.08c-5.49,0.59-10.98,1.4-16.5,1.78c-9.98,0.67-19.99,0.99-29.93,1.52
				c-0.55,0.04-1.03,0.32-1.56,0.55c3.62,0.2,7.15,0.32,10.65,0.16c13.2-0.59,26.39-1.15,39.59-1.9c4.62-0.24,9.25-0.91,13.83-1.36
				c5.08-0.63,10.17-1.15,15.19-1.9c10.17-1.44,20.31-3.1,30.09-6.36c3.71-1.24,7.27-2.94,10.81-4.5c0.49-0.2,0.79-0.95,0.99-1.48
				c0.04-0.12-0.45-0.67-0.79-0.75c-1.62-0.36-3.22-0.75-4.84-0.91c-1.66-0.16-3.34-0.24-5-0.12c-3.22,0.28-6.68-0.08-9.54,1.82
				c-4.78,3.18-10.06,5-15.53,6.52C308.76,197.84,296.75,199.78,284.7,201.3z M178.3,172.36c-2.47,0.99-4.66,2.39-6.16,4.62
				c-1.24,1.82-1.15,3.62,0.55,4.96c1.86,1.44,3.89,2.77,6.08,3.62c8.55,3.46,17.58,4.41,26.71,5.04
				c10.11,0.67,20.23,0.12,30.25-1.4c2.73-0.41,5.37-1.44,7.96-2.39c0.59-0.2,1.32-1.15,1.24-1.66c-0.08-0.67-0.79-1.52-1.4-1.78
				c-1.82-0.67-3.71-1.28-5.65-1.52c-4.58-0.59-9.17-0.55-13.63,0.83c-1.03,0.32-2.07,0.71-0.55,1.9c1.11,0.87,0.71,1.56-0.59,1.7
				c-2.43,0.28-4.84,0.67-7.27,0.79c-6.68,0.28-13.33-0.59-19.83-2.11c-3.18-0.75-6.36-1.94-9.34-3.38c-3.1-1.52-3.5-4.29-1.07-6.68
				c1.66-1.66,3.71-2.94,5.61-4.33c4.37-1.74,8.79-3.5,13.12-5.29c0.41-0.16,0.75-0.59,1.11-0.87c-0.4-0.08-0.87-0.32-1.28-0.2
				c-4.7,1.11-9.5,2.07-14.11,3.5C186.1,168.98,182.27,170.8,178.3,172.36z M282.84,197.71c-10.06,1.56-20.15,3.14-30.21,4.66
				c1.07,0.28,2.23,0.32,3.34,0.24c3.62-0.28,7.23-0.55,10.85-0.95c5.49-0.67,10.94-1.4,16.42-2.11c0.36,0,0.71,0.08,1.07,0
				c10.06-1.9,20.23-3.54,29.89-7.23c4.33-1.66,8.67-3.34,12.25-6.4c3.54-3.02,3.42-6.76-0.2-9.62c-1.15-0.91-2.39-1.78-3.67-2.47
				c-8.79-4.7-18.21-6.4-28.07-5.29c-1.48,0.16-2.98,0.36-4.37,0.79c-0.79,0.2-1.4,0.95-2.07,1.44c0.67,0.49,1.24,1.19,1.98,1.48
				c1.66,0.63,3.42,1.03,5.12,1.52c4.41,1.28,8.71,2.9,12.43,5.65c3.67,2.73,3.85,6.03,0.2,8.79c-2.19,1.7-4.66,3.18-7.27,4.09
				C294.68,194.37,288.75,195.97,282.84,197.71z M250.68,148c0.32-0.04,0.75,0,1.03-0.12c8.91-3.54,14.82-9.86,17.46-19.12
				c0.55-1.9,0.59-3.93,0.87-5.91c-0.16-0.04-0.36-0.08-0.55-0.12c-2.11,3.77-4.88,6.89-8.42,9.3c-0.32,0.12-0.67,0.2-0.99,0.36
				c-5.04,2.69-10.25,3.38-15.78,1.78c-3.67-1.07-6.8-2.94-9.66-5.41c-1.62-2.47-3.54-4.78-4.78-7.43
				c-2.11-4.58-2.11-9.34,0.24-13.95c0.41-0.83,0.87-1.7,1.32-2.51c1.9-3.54,3.85-7.11,6.64-10.06c2.55-2.73,5.24-5.33,7.39-8.34
				c4.13-5.77,6.52-12.17,5.12-19.44c-0.63-3.1-1.15-6.28-3.38-8.38c-0.49,3.3-0.71,6.8-1.62,10.11
				c-1.9,6.93-6.28,12.35-11.64,16.97c-5.49,4.74-10.45,9.9-14.11,16.26c-4.17,7.23-5.53,14.99-4.54,23.21
				c0.2,1.86,0.91,3.67,1.36,5.49c0.08,0.32,0.08,0.71,0.2,1.03c1.78,5.04,4.88,9.13,8.95,12.43c3.62,2.94,7.88,4.66,12.6,5.04
				c2.43,0.2,4.92,0.16,7.35,0C247.42,148.95,249.02,148.38,250.68,148z M218.4,202.45c9.13-0.45,18.12-0.63,27.03-1.44
				c8.87-0.83,17.72-2.15,26.51-3.46c6.4-0.95,12.64-2.77,18.61-5.29c2.98-1.24,5.81-2.77,7.84-5.41c1.74-2.23,1.56-4.33-0.71-5.99
				c-1.36-0.99-2.94-1.94-4.54-2.39c-4.62-1.24-9.3-2.31-13.99-3.26c-4.05-0.79-8.14-1.7-12.25-1.86
				c-5.85-0.2-11.77,0.12-17.68,0.55c-2.55,0.2-5.12,1.07-7.55,1.94c-1.86,0.67-1.86,1.94-0.08,2.86c1.24,0.63,2.69,0.95,4.05,1.32
				c3.5,1.03,7.15,1.74,10.53,3.06c2.39,0.95,2.43,2.77,0.36,4.33c-0.95,0.71-1.94,1.48-3.06,1.78c-4.29,1.19-8.59,2.39-12.92,3.26
				c-9.78,1.9-19.68,1.98-29.57,1.24c-9.54-0.75-19.04-2.11-28.53-3.42c-4.7-0.67-9.34-1.9-13.43-4.5
				c-4.01-2.55-4.58-6.36-1.28-9.74c3.58-3.67,8.26-5.53,12.96-7.23c0.59-0.2,1.03-0.67,1.52-0.99c-0.63-0.16-1.28-0.49-1.86-0.41
				c-2.63,0.45-5.29,0.91-7.88,1.62c-5.53,1.56-11.1,3.06-16.5,5.04c-4.62,1.7-9.17,3.71-12.56,7.59c-2.73,3.14-2.59,6.16,0.55,8.83
				c3.42,2.94,7.63,4.41,11.89,5.49c7.27,1.9,14.58,3.46,22.09,3.71c1.11,0.04,2.23,0.16,3.38,0.28c3.38,0.41,6.72,1.03,10.11,1.24
				C200.52,201.76,209.51,202.09,218.4,202.45z M186.85,357.74c2.47,0,4.78,0.04,7.11-0.04c0.32,0,0.83-0.67,0.95-1.07
				c1.44-6.6,2.86-13.24,4.25-19.87c0.87-4.01,1.7-8.02,2.55-12.01c0.49,0.99,0.63,1.94,0.67,2.94c0.63,9.7,1.19,19.4,1.86,29.06
				c0.04,0.32,0.63,0.91,0.99,0.95c1.78,0.08,3.58,0,5.37,0.08c1.03,0.04,1.36-0.24,1.56-1.32c2.19-10.49,4.41-20.94,6.64-31.37
				c1.74-8.14,3.42-16.26,5.2-24.4c0.24-1.11,0.04-1.32-1.03-1.28c-1.62,0.08-3.22,0.12-4.84,0c-1.4-0.12-1.9,0.36-2.19,1.74
				c-2.11,10.11-4.25,20.23-6.44,30.34c-0.08,0.32-0.24,0.63-0.4,0.91c-0.83-9.25-1.36-18.41-1.94-27.58
				c-0.12-1.78,0.28-4.33-0.67-5.08c-1.15-0.91-3.54-0.16-5.37-0.32c-1.56-0.16-2.11,0.41-2.39,1.9
				c-3.02,14.4-6.12,28.82-9.17,43.28C188.71,348.85,187.8,353.24,186.85,357.74z M326.76,256.5c0.16,0,0.32,0,0.49,0
				c0.36,5.53,0.71,11.06,1.07,16.57c0.28,4.88,0.67,9.74,0.91,14.62c0.04,1.11,0.4,1.4,1.48,1.32c1.62-0.08,3.22-0.12,4.84,0
				c1.07,0.08,1.44-0.32,1.66-1.28c3.89-18.41,7.76-36.88,11.73-55.28c0.24-1.15-0.2-1.15-1.03-1.11c-1.66,0.04-3.34,0.12-5-0.04
				c-1.32-0.12-1.7,0.45-1.94,1.62c-1.52,7.51-3.14,14.99-4.74,22.5c-0.63,2.86-1.24,5.65-1.86,8.51c-0.49-0.75-0.59-1.4-0.63-2.11
				c-0.55-8.99-1.03-17.96-1.56-26.95c-0.2-3.5-0.24-3.5-3.71-3.5c-0.83,0-1.7,0.08-2.51-0.04c-1.28-0.16-1.7,0.36-1.94,1.56
				c-1.52,7.55-3.18,15.11-4.78,22.66c-2.27,10.73-4.58,21.51-6.89,32.24c-0.2,0.99,0.04,1.24,0.99,1.19c1.78-0.08,3.58-0.08,5.37,0
				c0.95,0.04,1.28-0.24,1.48-1.24c1.48-7.23,3.02-14.4,4.58-21.63C325.4,262.98,326.11,259.76,326.76,256.5z M344.06,309.8
				c0.04-6.28-2.19-9.74-6.08-10.69c-2.63-0.67-5.24-0.55-7.72,0.49c-5.49,2.27-8.22,6.8-9.46,12.35
				c-2.07,9.34-4.05,18.71-5.99,28.07c-0.67,3.18-1.32,6.44-1.44,9.66c-0.16,4.21,2.23,7.51,5.69,8.34
				c3.97,0.95,7.68,0.4,11.02-2.11c3.54-2.69,5.57-6.32,6.48-10.57c1.82-8.3,3.58-16.61,5.33-24.93
				C342.74,316.44,343.49,312.47,344.06,309.8z M306.92,298.48c-1.62,0.36-3.3,0.55-4.84,1.15c-5.16,2.11-7.92,6.36-9.17,11.52
				c-1.7,7.23-3.18,14.5-4.66,21.75c-1.07,5.12-2.23,10.25-2.98,15.39c-0.67,4.66,1.82,8.67,5.61,9.62
				c4.37,1.07,8.38,0.28,11.85-2.73c3.26-2.81,5-6.44,5.85-10.57c1.66-7.59,3.26-15.19,4.88-22.82c0.91-4.29,1.9-8.59,2.39-12.96
				C316.58,302.73,312.85,298.74,306.92,298.48z M232.35,276.73c-0.2,0-0.4,0-0.67,0c0,3.58,0.04,7.15-0.04,10.73
				c-0.04,1.19,0.2,1.7,1.52,1.62c1.78-0.12,3.58-0.12,5.37,0c1.36,0.08,1.7-0.32,1.7-1.66c0.04-7.35,0.24-14.66,0.32-22.01
				c0-2.51,0.49-4.46,2.43-6.52c4.78-5.2,6.2-11.85,5.73-18.75c-0.32-5-2.86-7.63-7.76-8.34c-3.77-0.49-7.59-0.32-11.4-0.32
				c-0.36,0-0.95,0.75-1.03,1.24c-2.15,9.9-4.29,19.87-6.4,29.81c-1.78,8.38-3.54,16.73-5.33,25.11c-0.24,1.15-0.04,1.56,1.24,1.48
				c1.86-0.12,3.71-0.08,5.53,0c1.24,0.08,1.56-0.36,1.78-1.56c1.44-7.23,3.06-14.4,4.5-21.63c0.24-1.24,0.83-1.15,1.7-1.19
				c1.32-0.04,0.83,0.91,0.83,1.48C232.35,269.71,232.35,273.23,232.35,276.73z M128.65,335.88c0.75,0,1.36,0.08,2.03,0
				c1.19-0.16,1.4,0.28,1.11,1.4c-0.41,1.56-0.59,3.14-0.99,4.7c-0.63,2.39-1.24,4.84-2.11,7.15c-0.49,1.36-1.86,1.82-3.3,1.44
				c-1.4-0.36-1.4-1.62-1.4-2.77c0-0.45,0.04-0.95,0.12-1.4c2.47-11.68,4.96-23.37,7.51-35.01c0.24-1.24,0.91-2.51,1.78-3.38
				c0.63-0.59,1.98-0.79,2.9-0.59c0.45,0.08,0.91,1.36,1.03,2.15c0.12,0.87-0.08,1.78-0.24,2.63c-0.45,2.31-0.95,4.66-1.48,6.99
				c-0.2,0.87,0,1.19,0.91,1.15c2.15-0.04,4.29,0.04,6.44-0.04c0.41,0,1.07-0.49,1.15-0.87c0.75-3.34,1.66-6.72,2.03-10.11
				c0.79-7.31-4.17-11.68-11.4-10.37c-6.28,1.15-9.58,5.53-11.32,11.14c-1.24,4.01-1.9,8.22-2.77,12.35
				c-1.82,8.42-3.62,16.85-5.33,25.27c-1.44,7.19,3.26,12.09,9.9,10.33c1.82-0.49,3.46-1.7,5.29-2.63c-0.36,2.86,1.66,2.39,3.5,2.31
				c0.28,0,0.63-0.04,0.91,0c0.87,0.08,1.24-0.16,1.4-1.11c0.41-2.47,0.99-4.88,1.52-7.31c1.36-6.4,2.73-12.8,4.09-19.16
				c0.2-0.95,0.24-1.52-1.11-1.48c-3.14,0.12-6.32,0.08-9.46,0c-0.91,0-1.28,0.32-1.44,1.11
				C129.46,331.75,129.05,333.74,128.65,335.88z M261.45,262.98c0.04,0.4,0.12,0.79,0.12,1.11c0.2,7.84,0.4,15.73,0.55,23.57
				c0,1.07,0.24,1.44,1.36,1.36c1.74-0.12,3.46-0.12,5.16,0c1.4,0.08,1.78-0.28,1.74-1.74c-0.24-11.81-0.45-23.57-0.59-35.38
				c0-0.95,0.28-2.03,0.79-2.81c3.26-5.37,6.64-10.69,9.94-16.06c0.32-0.49,0.63-1.03,1.03-1.7c-2.51,0-4.66,0.08-6.76-0.04
				c-1.11-0.04-1.7,0.36-2.23,1.32c-2.98,5.29-6.03,10.49-9.09,15.73c-0.59,0.99-1.19,1.98-1.82,3.02c-0.12-0.04-0.2-0.08-0.32-0.12
				c1.4-6.56,2.81-13.12,4.25-19.91c-2.39,0-4.66,0.08-6.89-0.04c-1.32-0.08-1.7,0.41-1.94,1.62c-1.44,7.11-3.02,14.16-4.5,21.26
				c-2.39,11.24-4.74,22.42-7.15,33.66c-0.2,0.99,0.04,1.24,0.99,1.19c2.07-0.08,4.17,0.04,6.24-0.08c0.41-0.04,1.11-0.59,1.19-0.99
				c1.03-4.46,2.07-8.91,2.86-13.43C257.08,270.29,258.44,266.36,261.45,262.98z M359.79,286.63c-0.36,2.51,1.28,2.55,3.14,2.39
				c0.4-0.04,0.91,0.12,1.24-0.04c0.49-0.2,1.19-0.63,1.28-1.03c1.9-8.83,3.71-17.68,5.61-26.51c0.24-1.15-0.16-1.15-0.99-1.15
				c-1.9,0.04-3.81,0-5.73,0c-1.62,0-3.77-0.55-4.66,0.28c-1.03,0.91-0.95,3.06-1.28,4.66c-0.45,2.11-0.4,2.15,1.74,2.15
				c0.95,0,1.19,0.16,0.95,1.19c-0.75,3.02-1.24,6.08-1.98,9.03c-0.28,1.15-0.79,2.47-1.56,3.3c-0.63,0.63-1.98,1.03-2.81,0.79
				c-0.63-0.16-1.07-1.48-1.32-2.35c-0.16-0.59,0.04-1.28,0.16-1.94c1.36-6.52,2.73-13,4.13-19.52c1.15-5.33,2.27-10.69,3.54-15.98
				c0.55-2.23,2.31-3.38,3.85-2.98c1.4,0.36,1.9,1.94,1.4,4.29c-0.55,2.43-1.03,4.88-1.62,7.31c-0.2,0.95-0.24,1.56,1.11,1.48
				c2.03-0.12,4.05,0,6.08-0.08c0.4,0,1.07-0.41,1.15-0.71c0.71-4.09,1.74-8.18,1.9-12.31c0.2-4.7-2.94-7.92-7.39-8.26
				c-2.03-0.12-4.25,0.04-6.12,0.79c-5.33,2.07-8.02,6.52-9.25,11.85c-1.52,6.6-2.9,13.24-4.25,19.87
				c-1.15,5.57-2.59,11.14-3.34,16.77c-0.95,7.27,3.97,10.81,10.17,9.13C356.57,288.78,358.05,287.59,359.79,286.63z M154.77,357.74
				c2.51,0,4.84-0.04,7.15,0c0.95,0.04,1.32-0.28,1.62-1.19c1.03-3.22,2.11-6.4,3.3-9.58c0.16-0.49,0.91-1.03,1.4-1.07
				c2.03-0.12,4.05-0.04,6.08-0.08c0.83,0,1.11,0.16,1.03,1.11c-0.28,3.18-0.45,6.4-0.75,9.62c-0.08,1.03,0.2,1.19,1.11,1.19
				c1.9-0.04,3.81-0.08,5.69,0c1.28,0.08,1.56-0.36,1.66-1.56c0.2-4.96,0.49-9.86,0.83-14.82c0.83-13.63,1.66-27.2,2.51-40.83
				c0.08-1.03-0.24-1.19-1.11-1.15c-2.51,0.04-5,0.08-7.51,0c-1.32-0.04-1.94,0.32-2.39,1.62c-4.92,13.67-9.86,27.34-14.82,40.95
				C158.62,347.16,156.72,352.41,154.77,357.74z M184.82,289.02c2.51,0,4.74-0.04,7.03,0c0.91,0.04,1.32-0.24,1.62-1.15
				c0.99-3.1,2.15-6.16,3.1-9.3c0.32-1.15,0.87-1.44,1.98-1.4c1.74,0.08,3.46,0.12,5.2,0c1.4-0.12,1.52,0.45,1.4,1.66
				c-0.28,3.02-0.45,6.08-0.71,9.09c-0.08,0.87,0.08,1.15,0.99,1.11c1.66-0.08,3.34-0.12,5,0c1.74,0.16,2.27-0.32,2.35-2.15
				c0.41-8.99,1.07-17.96,1.62-26.91c0.55-9.09,1.07-18.21,1.62-27.3c0.08-0.99-0.12-1.36-1.19-1.32c-2.51,0.08-5,0.08-7.51,0
				c-1.19-0.04-1.74,0.28-2.15,1.48c-3.02,8.42-6.12,16.85-9.17,25.27C192.3,268.31,188.59,278.6,184.82,289.02z M273.66,299.51
				c0-0.04,0-0.08,0-0.12c-1.32,0-2.63,0.12-3.93-0.04c-1.56-0.2-1.98,0.49-2.27,1.86c-1.82,8.83-3.71,17.68-5.61,26.51
				c-2.03,9.58-4.05,19.16-6.12,28.78c-0.24,1.07,0.08,1.32,1.11,1.28c1.98-0.08,3.93-0.08,5.91,0c1.11,0.04,1.44-0.32,1.7-1.4
				c1.4-6.84,2.9-13.71,4.29-20.55c0.2-0.95,0.49-1.32,1.52-1.4c4.09-0.28,7.8-1.66,10.73-4.58c5.65-5.65,7.84-12.72,7.35-20.51
				c-0.36-5.69-3.62-8.87-9.21-9.7C277.39,299.27,275.53,299.51,273.66,299.51z M373.18,340.56c-0.75,0.08-1.56,0.16-2.35,0.28
				c-2.03,0.32-4.88,0-5.85,1.19c-1.19,1.44-0.99,4.17-1.11,6.36c-0.28,4.5,1.48,7.76,4.78,9.13c5.53,2.27,12.64,0.49,16.02-4.37
				c4.13-5.91,5.81-12.39,3.18-19.4c-1.86-4.88-4.09-9.58-6.16-14.36c-1.62-3.71-1.74-7.43,0.41-10.89c0.55-0.87,1.98-1.74,2.98-1.7
				c1.44,0,1.82,1.56,1.86,2.86c0,1.48-0.24,2.98-0.28,4.41c0,0.28,0.49,0.83,0.75,0.83c2.19-0.12,4.41-0.24,6.56-0.55
				c0.45-0.04,1.11-0.71,1.15-1.15c0.24-1.98,0.45-4.05,0.4-6.03c-0.12-5.33-3.06-8.22-8.34-8.38c-5.77-0.2-10.85,3.22-13.47,8.87
				c-2.59,5.65-2.43,11.32-0.16,16.97c1.74,4.33,3.77,8.59,5.65,12.88c1.62,3.77,1.44,7.43-0.63,10.94
				c-0.83,1.4-2.07,2.43-3.81,2.03c-1.82-0.41-2.11-2.03-2.07-3.5C372.71,344.86,372.99,342.79,373.18,340.56z M159.53,289.02
				c2.47,0,4.74-0.08,7.03,0.04c1.19,0.04,1.62-0.36,1.86-1.52c1.36-6.68,2.86-13.39,4.17-20.07c0.24-1.32,0.83-1.62,1.98-1.66
				c3.42-0.16,6.6-1.28,9.17-3.54c6.8-5.99,9.17-13.75,8.14-22.5c-0.49-4.37-3.38-7.43-7.92-8.02c-3.5-0.45-7.15-0.28-10.69-0.41
				c-1.03-0.04-1.48,0.2-1.74,1.36c-1.62,7.96-3.34,15.94-5.04,23.86C164.11,267.36,161.84,278.09,159.53,289.02z M133.27,279.63
				c0.12,4.17,0.83,7.39,4.5,9.09c4.41,2.03,11.06,1.07,14.54-2.39c4.41-4.46,6.56-10.06,5.69-16.22
				c-0.55-3.93-2.23-7.68-3.62-11.48c-1.15-3.1-2.73-6.08-3.93-9.17c-1.32-3.38-0.79-6.68,1.28-9.66c0.49-0.71,1.74-1.24,2.55-1.11
				c0.67,0.08,1.56,1.15,1.66,1.9c0.2,1.62,0.16,3.3-0.12,4.92c-0.24,1.32,0.24,1.32,1.24,1.24c2.03-0.24,4.05-0.36,6.03-0.67
				c0.45-0.08,1.11-0.67,1.15-1.07c0.24-2.07,0.59-4.17,0.45-6.2c-0.28-4.33-2.11-7.03-5.53-7.55c-2.39-0.36-5.04-0.4-7.35,0.24
				c-6.76,1.9-11.6,10.77-10.53,18.33c0.67,4.54,2.47,8.63,4.33,12.76c1.32,2.86,2.59,5.73,3.54,8.71c1.07,3.38,0.24,6.64-2.03,9.38
				c-0.63,0.75-2.15,1.24-3.14,1.07c-0.71-0.12-1.7-1.44-1.74-2.27c-0.16-2.03,0.08-4.13,0.24-6.16c0.04-0.67,0.2-1.15-0.79-1.07
				c-2.19,0.24-4.37,0.36-6.56,0.67c-0.41,0.04-1.03,0.63-1.07,1.03C133.71,275.94,133.47,278.09,133.27,279.63z M252.42,299.39
				c-8.1,0-16.06,0-24.08,0.04c-0.28,0-0.79,0.45-0.87,0.79c-0.55,2.23-0.95,4.54-1.52,6.76c-0.32,1.19,0.24,1.28,1.15,1.24
				c1.66-0.04,3.34,0.08,5-0.04c1.36-0.08,1.7,0.24,1.4,1.66c-2.35,10.89-4.66,21.83-6.99,32.75c-1.07,5-2.11,9.98-3.18,15.15
				c2.23,0,4.33-0.12,6.4,0.04c1.78,0.16,2.35-0.49,2.73-2.19c3.18-15.35,6.44-30.68,9.66-46.03c0.2-0.99,0.55-1.4,1.62-1.36
				c1.9,0.08,3.81,0.08,5.69-0.04c0.45-0.04,1.11-0.59,1.24-0.99C251.29,304.64,251.79,302.09,252.42,299.39z M339.72,357.74
				c6.48,0,12.84,0,19.2-0.04c0.32,0,0.79-0.55,0.91-0.91c0.49-1.94,0.87-3.97,1.36-5.91c0.24-0.99-0.2-1.07-0.99-1.07
				c-2.94,0.04-5.85-0.04-8.75,0.04c-1.19,0.04-1.4-0.36-1.15-1.44c1.48-6.84,2.98-13.71,4.41-20.55
				c1.94-9.03,3.85-18.12,5.81-27.16c0.2-0.95,0.08-1.4-1.07-1.32c-1.98,0.08-3.93,0.08-5.91,0c-1.07-0.04-1.48,0.24-1.7,1.4
				c-2.15,10.45-4.41,20.94-6.64,31.37C343.33,340.6,341.54,349.07,339.72,357.74z M295.64,281.15c-3.46,0-6.68-0.04-9.9,0.04
				c-1.11,0.04-1.28-0.36-1.07-1.32c0.67-2.98,1.28-5.95,1.9-8.87c2.69-12.6,5.37-25.23,8.14-37.81c0.36-1.74-0.12-1.98-1.62-1.86
				c-1.52,0.12-3.1,0.16-4.62,0c-1.62-0.16-2.07,0.49-2.35,1.98c-1.9,9.34-3.93,18.61-5.85,27.91c-1.94,9.25-3.93,18.45-5.91,27.82
				c6.36,0,12.64,0,18.87-0.04c0.36,0,0.91-0.49,1.03-0.87C294.73,285.85,295.15,283.58,295.64,281.15z M142.3,357.74
				c2.43,0,4.74-0.08,7.07,0.04c1.15,0.04,1.62-0.28,1.86-1.48c2.19-10.49,4.41-20.94,6.64-31.37c1.7-7.96,3.34-15.94,5.12-23.86
				c0.28-1.32,0.08-1.78-1.36-1.66c-1.86,0.12-3.71,0.08-5.53,0c-1.11-0.04-1.48,0.32-1.7,1.44c-2.07,9.9-4.21,19.79-6.32,29.65
				C146.15,339.49,144.24,348.52,142.3,357.74z M318.18,231.39c-2.47,0-4.7,0.08-6.89-0.04c-1.28-0.08-1.7,0.36-1.98,1.62
				c-2.51,12.13-5.16,24.28-7.72,36.41c-1.36,6.48-2.73,13-4.13,19.64c2.59,0,5.12,0.04,7.59-0.04c0.36,0,0.95-0.71,1.07-1.15
				c2.63-12.25,5.24-24.48,7.84-36.73C315.36,244.57,316.78,238.09,318.18,231.39z M341.87,172.64c-2.27,0.32-4.92,0.71-7.55,1.19
				c-0.49,0.08-0.91,0.67-1.36,0.99c0.32,0.36,0.59,0.83,0.95,1.15c0.55,0.45,1.15,0.83,1.74,1.28c2.03,1.66,2.35,3.5,0.63,5.37
				c-1.28,1.4-2.98,2.43-4.46,3.62c-0.24,0.2-0.36,0.63-0.59,0.95c0.28,0.04,0.59,0.16,0.83,0.08c3.06-1.03,6.16-1.94,9.09-3.22
				c3.06-1.36,6.08-2.98,8.87-4.84c0.95-0.63,1.82-2.47,1.52-3.42c-0.32-1.07-1.86-2.15-3.1-2.47
				C346.51,172.83,344.4,172.91,341.87,172.64z M273.42,411.44c-0.16-1.03-0.24-2.03-0.55-2.9c-0.59-1.9-1.86-2.86-3.58-2.86
				c-1.74,0-3.26,0.91-3.54,2.86c-0.32,1.94-0.24,4.01,0.12,5.91c0.28,1.52,1.62,2.35,3.34,2.39c1.78,0.04,2.98-0.83,3.58-2.39
				C273.14,413.47,273.22,412.39,273.42,411.44z M290.9,411.08c0.2,1.15,0.24,2.11,0.55,2.98c0.59,1.94,1.82,2.81,3.62,2.81
				c1.82,0,3.26-0.87,3.54-2.81c0.28-2.03,0.12-4.21-0.28-6.2c-0.32-1.48-1.78-2.15-3.34-2.11c-1.48,0.04-2.69,0.71-3.22,2.11
				C291.3,408.89,291.14,410.08,290.9,411.08z M199.49,411.36c-0.04,0-0.04,0-0.08,0c0.08,1.78-0.45,4.21,0.45,5.12
				c0.95,0.91,3.34,0.28,5.12,0.32c0.16,0,0.41,0.08,0.55,0c0.32-0.28,0.63-0.63,0.91-0.91c-0.32-0.28-0.63-0.79-0.99-0.83
				c-0.87-0.12-1.82,0.04-2.69-0.08c-0.41-0.08-0.95-0.55-1.03-0.95c-0.32-1.32,0.08-2.19,1.7-1.9c0.41,0.08,0.87,0.08,1.24-0.04
				c0.28-0.08,0.75-0.49,0.71-0.71c-0.04-0.36-0.32-0.87-0.67-0.99c-0.41-0.16-0.95-0.04-1.4-0.04c-0.91,0.04-1.7,0.12-1.7-1.32
				c0.04-1.32,0.55-1.66,1.7-1.52c0.67,0.08,1.32,0.08,1.94-0.04c0.4-0.08,0.75-0.45,1.11-0.71c-0.32-0.32-0.67-0.95-1.03-0.99
				c-5.91-0.63-5.91-0.63-5.91,5.2C199.49,411.12,199.49,411.24,199.49,411.36z M214.88,417.01c2.11-0.16,3.58-1.24,3.93-2.94
				c0.36-1.86-0.41-2.98-2.63-3.77c-0.49-0.16-1.07-0.28-1.48-0.63c-0.36-0.28-0.79-0.87-0.71-1.24c0.08-0.4,0.71-0.91,1.11-0.95
				c0.63-0.08,1.24,0.32,1.86,0.36c0.45,0,0.95-0.28,1.4-0.45c-0.2-0.41-0.32-1.15-0.59-1.19c-1.32-0.2-2.69-0.45-3.97-0.24
				c-1.44,0.24-2.11,1.52-2.11,2.94c0,1.36,0.75,2.35,2.11,2.81c0.63,0.2,1.32,0.32,1.82,0.71c0.45,0.32,1.07,1.15,0.91,1.4
				c-0.24,0.49-0.95,1.03-1.52,1.07c-0.63,0.04-1.32-0.49-1.98-0.55c-0.45-0.04-0.95,0.32-1.44,0.55c0.2,0.41,0.28,0.99,0.63,1.15
				C213.07,416.48,214.03,416.73,214.88,417.01z M255.8,414.9c0.75-0.79,1.32-1.36,1.86-1.98c0.59-0.63,1.15-1.19,1.66-1.86
				c1.19-1.78,0.87-3.89-0.71-4.88c-1.86-1.11-4.5-0.45-5.37,1.44c-0.16,0.36-0.08,0.83-0.12,1.24c0.59-0.04,1.15,0,1.7-0.12
				c0.2-0.04,0.28-0.63,0.49-0.71c0.63-0.24,1.36-0.63,1.9-0.4c0.36,0.12,0.79,1.15,0.67,1.62c-0.28,0.91-0.79,1.86-1.4,2.59
				c-0.99,1.19-2.19,2.19-3.22,3.34c-0.28,0.32-0.32,0.83-0.49,1.28c0.4,0.12,0.83,0.32,1.24,0.32c1.74,0.04,3.46,0.08,5.16,0
				c0.4-0.04,0.83-0.49,1.19-0.75c-0.4-0.36-0.83-0.95-1.28-1.03C258.07,414.78,257.08,414.9,255.8,414.9z M226.95,412.19
				c0,0.91-0.04,1.78,0,2.69c0.08,0.79-0.59,1.98,1.15,1.94c1.66-0.04,1.03-1.11,1.07-1.86c0.08-1.98,0.12-3.93,0-5.91
				c-0.08-1.24,0.36-1.62,1.52-1.44c0.28,0.04,0.67,0.12,0.87-0.04c0.32-0.16,0.83-0.59,0.79-0.79c-0.08-0.36-0.49-0.99-0.79-0.99
				c-2.31-0.08-4.62-0.08-6.99,0c-0.28,0-0.71,0.63-0.79,0.99c-0.04,0.2,0.55,0.83,0.79,0.79c2.51-0.45,2.51,1.07,2.35,2.86
				C226.91,410.99,226.95,411.56,226.95,412.19z M281.72,409.17c0,1.19-0.04,2.73,0,4.25c0.04,1.07,0.12,2.11-1.48,1.9
				c-0.2-0.04-0.67,0.49-0.67,0.75s0.45,0.67,0.71,0.67c1.52,0.08,3.1,0.08,4.62,0c0.24,0,0.71-0.4,0.71-0.67
				c0-0.24-0.4-0.79-0.63-0.75c-1.28,0.08-1.28-0.67-1.28-1.56c0.04-2.19,0.04-4.41,0-6.6c0-1.44-0.79-1.86-2.03-1.07
				c-0.45,0.28-0.87,0.67-1.19,1.03c-0.55,0.67-0.99,1.36-1.52,2.03C279.86,409.17,280.73,409.17,281.72,409.17z"/>
			<path class="st1" d="M218.4,202.45c-8.87-0.4-17.88-0.75-26.83-1.24c-3.38-0.2-6.72-0.83-10.11-1.24
				c-1.11-0.12-2.23-0.24-3.38-0.28c-7.51-0.24-14.86-1.86-22.09-3.71c-4.25-1.11-8.42-2.55-11.89-5.49
				c-3.14-2.69-3.26-5.69-0.55-8.83c3.38-3.89,7.92-5.91,12.56-7.59c5.41-1.98,10.98-3.46,16.5-5.04c2.55-0.75,5.24-1.15,7.88-1.62
				c0.59-0.08,1.24,0.24,1.86,0.41c-0.49,0.32-0.99,0.79-1.52,0.99c-4.74,1.7-9.42,3.58-12.96,7.23c-3.3,3.38-2.73,7.19,1.28,9.74
				c4.09,2.59,8.71,3.85,13.43,4.5c9.5,1.32,19,2.73,28.53,3.42c9.86,0.75,19.79,0.67,29.57-1.24c4.33-0.87,8.63-2.07,12.92-3.26
				c1.11-0.28,2.11-1.07,3.06-1.78c2.07-1.56,2.03-3.38-0.36-4.33c-3.38-1.32-7.03-2.07-10.53-3.06c-1.36-0.36-2.77-0.71-4.05-1.32
				c-1.78-0.91-1.74-2.19,0.08-2.86c2.43-0.87,5-1.78,7.55-1.94c5.85-0.45,11.77-0.75,17.68-0.55c4.09,0.12,8.22,1.03,12.25,1.86
				c4.7,0.95,9.38,2.03,13.99,3.26c1.62,0.45,3.18,1.4,4.54,2.39c2.31,1.66,2.47,3.77,0.71,5.99c-2.07,2.59-4.88,4.17-7.84,5.41
				c-5.99,2.51-12.21,4.33-18.61,5.29c-8.83,1.32-17.64,2.69-26.51,3.46C236.52,201.84,227.47,202.01,218.4,202.45z"/>
			<path class="st2" d="M186.85,357.74c0.95-4.5,1.86-8.87,2.77-13.2c3.06-14.4,6.16-28.82,9.17-43.28c0.28-1.48,0.83-2.07,2.39-1.9
				c1.82,0.16,4.21-0.59,5.37,0.32c0.95,0.75,0.55,3.3,0.67,5.08c0.59,9.17,1.11,18.33,1.94,27.58c0.12-0.28,0.32-0.59,0.41-0.91
				c2.15-10.11,4.33-20.23,6.44-30.34c0.28-1.36,0.79-1.86,2.19-1.74c1.62,0.16,3.22,0.08,4.84,0c1.03-0.04,1.28,0.16,1.03,1.28
				c-1.78,8.14-3.46,16.26-5.2,24.4c-2.23,10.45-4.5,20.94-6.64,31.37c-0.2,1.03-0.59,1.36-1.56,1.32
				c-1.78-0.08-3.58,0.04-5.37-0.08c-0.36,0-0.99-0.59-0.99-0.95c-0.67-9.7-1.24-19.4-1.86-29.06c-0.04-0.99-0.16-1.94-0.67-2.94
				c-0.87,4.01-1.7,8.02-2.55,12.01c-1.4,6.6-2.81,13.24-4.25,19.87c-0.08,0.41-0.59,1.07-0.95,1.07
				C191.65,357.78,189.32,357.74,186.85,357.74z"/>
			<path class="st2" d="M326.76,256.5c-0.71,3.22-1.36,6.44-2.07,9.66c-1.52,7.23-3.1,14.4-4.58,21.63
				c-0.2,0.99-0.55,1.28-1.48,1.24c-1.78-0.08-3.58-0.08-5.37,0c-0.95,0.04-1.19-0.16-0.99-1.19c2.31-10.73,4.58-21.51,6.89-32.24
				c1.62-7.55,3.22-15.11,4.78-22.66c0.24-1.24,0.67-1.78,1.94-1.56c0.83,0.12,1.66,0.04,2.51,0.04c3.46,0,3.5,0,3.71,3.5
				c0.55,8.99,1.03,17.96,1.56,26.95c0.04,0.71,0.12,1.36,0.63,2.11c0.63-2.86,1.24-5.65,1.86-8.51c1.62-7.51,3.22-14.99,4.74-22.5
				c0.24-1.15,0.59-1.74,1.94-1.62c1.66,0.16,3.34,0.04,5,0.04c0.83,0,1.28-0.04,1.03,1.11c-3.97,18.41-7.84,36.82-11.73,55.28
				c-0.2,0.95-0.59,1.36-1.66,1.28c-1.62-0.12-3.22-0.08-4.84,0c-1.07,0.08-1.44-0.24-1.48-1.32c-0.24-4.88-0.59-9.74-0.91-14.62
				c-0.32-5.53-0.71-11.06-1.07-16.57C327.09,256.54,326.92,256.54,326.76,256.5z"/>
			<path class="st2" d="M344.06,309.8c-0.55,2.69-1.32,6.64-2.15,10.61c-1.78,8.3-3.5,16.65-5.33,24.93
				c-0.95,4.25-2.94,7.88-6.48,10.57c-3.34,2.51-7.07,3.06-11.02,2.11c-3.46-0.83-5.85-4.09-5.69-8.34
				c0.12-3.22,0.79-6.48,1.44-9.66c1.94-9.38,3.93-18.75,5.99-28.07c1.24-5.53,3.97-10.06,9.46-12.35c2.47-1.03,5.08-1.11,7.72-0.49
				C341.87,300.06,344.06,303.48,344.06,309.8z M335.55,309.64c-0.32-0.59-0.71-1.78-1.48-2.27c-1.19-0.71-2.51-0.12-3.22,1.07
				c-0.67,1.07-1.15,2.35-1.4,3.58c-1.82,8.18-3.54,16.34-5.29,24.52c-0.71,3.38-1.44,6.72-2.07,10.11
				c-0.2,1.24-0.12,2.69,1.28,3.14c1.44,0.49,2.73-0.12,3.46-1.48c0.49-0.95,0.91-1.94,1.11-2.98c1.56-7.15,3.1-14.28,4.62-21.38
				C333.55,319.38,334.48,314.8,335.55,309.64z"/>
			<path class="st2" d="M306.92,298.48c5.95,0.24,9.66,4.25,8.95,10.41c-0.49,4.33-1.52,8.67-2.39,12.96
				c-1.56,7.63-3.22,15.23-4.88,22.82c-0.87,4.13-2.59,7.76-5.85,10.57c-3.46,3.02-7.47,3.81-11.85,2.73
				c-3.81-0.95-6.32-4.96-5.61-9.62c0.75-5.16,1.9-10.29,2.98-15.39c1.52-7.27,2.98-14.54,4.66-21.75c1.24-5.2,4.01-9.42,9.17-11.52
				C303.59,299.03,305.3,298.87,306.92,298.48z M307.48,309.6c-0.4-0.63-0.79-1.82-1.56-2.27c-1.32-0.71-2.55,0.08-3.34,1.28
				c-0.49,0.79-0.87,1.7-1.07,2.59c-1.82,8.42-3.58,16.81-5.37,25.23c-0.75,3.54-1.48,7.07-2.15,10.65
				c-0.2,1.11,0.04,2.35,1.36,2.77c1.32,0.36,2.59-0.08,3.22-1.28c0.67-1.24,1.15-2.59,1.44-3.97c1.7-7.59,3.26-15.19,4.88-22.78
				C305.74,317.88,306.53,314.01,307.48,309.6z"/>
			<path class="st2" d="M232.35,276.73c0-3.5,0-7.03,0-10.53c0-0.59,0.49-1.52-0.83-1.48c-0.87,0-1.44-0.04-1.7,1.19
				c-1.44,7.23-3.06,14.4-4.5,21.63c-0.24,1.15-0.59,1.62-1.78,1.56c-1.86-0.08-3.71-0.12-5.53,0c-1.24,0.08-1.48-0.32-1.24-1.48
				c1.82-8.38,3.54-16.73,5.33-25.11c2.11-9.94,4.25-19.87,6.4-29.81c0.12-0.49,0.67-1.24,1.03-1.24c3.81,0,7.68-0.16,11.4,0.32
				c4.92,0.67,7.43,3.34,7.76,8.34c0.45,6.89-0.99,13.55-5.73,18.75c-1.94,2.11-2.39,4.01-2.43,6.52
				c-0.04,7.35-0.24,14.66-0.32,22.01c0,1.32-0.32,1.78-1.7,1.66c-1.78-0.12-3.58-0.12-5.37,0c-1.32,0.08-1.52-0.4-1.52-1.62
				c0.08-3.58,0.04-7.15,0.04-10.73C231.93,276.73,232.15,276.73,232.35,276.73z M240.27,245.61c0.04-3.97-1.11-5.61-3.77-5.77
				c-0.41-0.04-1.15,0.41-1.19,0.75c-1.15,5.08-2.19,10.21-3.3,15.31c-0.24,1.11,0.32,1.03,1.03,0.95c2.15-0.28,3.71-1.48,4.84-3.3
				C239.52,250.93,240.07,248.04,240.27,245.61z"/>
			<path class="st2" d="M128.65,335.88c0.41-2.15,0.83-4.13,1.19-6.12c0.16-0.83,0.55-1.15,1.44-1.11c3.14,0.08,6.32,0.08,9.46,0
				c1.32-0.04,1.32,0.55,1.11,1.48c-1.36,6.4-2.73,12.8-4.09,19.16c-0.55,2.43-1.11,4.88-1.52,7.31c-0.16,0.95-0.55,1.19-1.4,1.11
				c-0.28-0.04-0.59,0-0.91,0c-1.82,0.08-3.89,0.49-3.5-2.31c-1.82,0.91-3.46,2.15-5.29,2.63c-6.64,1.78-11.36-3.14-9.9-10.33
				c1.7-8.42,3.54-16.85,5.33-25.27c0.87-4.13,1.52-8.3,2.77-12.35c1.74-5.61,5.04-9.94,11.32-11.14
				c7.23-1.36,12.17,3.06,11.4,10.37c-0.36,3.42-1.28,6.76-2.03,10.11c-0.08,0.36-0.75,0.87-1.15,0.87c-2.15,0.08-4.29,0-6.44,0.04
				c-0.95,0.04-1.11-0.28-0.91-1.15c0.55-2.31,1.03-4.62,1.48-6.99c0.16-0.87,0.36-1.78,0.24-2.63c-0.12-0.79-0.55-2.07-1.07-2.19
				c-0.91-0.2-2.27-0.04-2.9,0.59c-0.87,0.87-1.48,2.15-1.78,3.38c-2.55,11.64-5.04,23.33-7.51,35.01c-0.08,0.45-0.12,0.95-0.12,1.4
				c0,1.15,0,2.39,1.4,2.77c1.4,0.36,2.77-0.08,3.3-1.44c0.87-2.31,1.48-4.74,2.11-7.15c0.41-1.52,0.63-3.14,0.99-4.7
				c0.28-1.07,0.08-1.52-1.11-1.4C130.01,335.97,129.34,335.88,128.65,335.88z"/>
			<path class="st2" d="M261.45,262.98c-3.02,3.38-4.33,7.31-5.08,11.6c-0.79,4.5-1.82,8.95-2.86,13.43
				c-0.12,0.4-0.79,0.95-1.19,0.99c-2.07,0.12-4.17,0-6.24,0.08c-0.95,0.04-1.19-0.2-0.99-1.19c2.39-11.18,4.74-22.42,7.15-33.66
				c1.48-7.11,3.06-14.16,4.5-21.26c0.24-1.19,0.63-1.7,1.94-1.62c2.23,0.12,4.5,0.04,6.89,0.04c-1.44,6.72-2.86,13.33-4.25,19.91
				c0.12,0.04,0.2,0.08,0.32,0.12c0.63-0.99,1.24-1.98,1.82-3.02c3.02-5.24,6.08-10.49,9.09-15.73c0.55-0.91,1.07-1.36,2.23-1.32
				c2.15,0.12,4.29,0.04,6.76,0.04c-0.4,0.71-0.71,1.19-1.03,1.7c-3.34,5.37-6.68,10.69-9.94,16.06c-0.49,0.79-0.79,1.86-0.79,2.81
				c0.16,11.81,0.32,23.61,0.59,35.38c0.04,1.4-0.36,1.82-1.74,1.74c-1.74-0.12-3.46-0.12-5.16,0c-1.11,0.08-1.36-0.28-1.36-1.36
				c-0.12-7.84-0.32-15.73-0.55-23.57C261.53,263.77,261.49,263.39,261.45,262.98z"/>
			<path class="st2" d="M359.79,286.63c-1.74,0.95-3.26,2.15-4.96,2.59c-6.2,1.7-11.14-1.9-10.17-9.13
				c0.75-5.65,2.19-11.18,3.34-16.77c1.4-6.64,2.77-13.24,4.25-19.87c1.24-5.33,3.93-9.78,9.25-11.85c1.86-0.75,4.09-0.91,6.12-0.79
				c4.5,0.32,7.59,3.54,7.39,8.26c-0.16,4.13-1.19,8.22-1.9,12.31c-0.04,0.28-0.75,0.71-1.15,0.71c-2.03,0.08-4.05-0.04-6.08,0.08
				c-1.32,0.08-1.32-0.59-1.11-1.48c0.55-2.43,1.07-4.88,1.62-7.31c0.49-2.35,0-3.93-1.4-4.29c-1.52-0.41-3.26,0.75-3.85,2.98
				c-1.28,5.33-2.39,10.65-3.54,15.98c-1.4,6.52-2.77,13-4.13,19.52c-0.12,0.63-0.36,1.36-0.16,1.94c0.24,0.87,0.71,2.15,1.32,2.35
				c0.83,0.24,2.19-0.16,2.81-0.79c0.83-0.83,1.28-2.11,1.56-3.3c0.75-3.02,1.24-6.08,1.98-9.03c0.24-1.03,0-1.19-0.95-1.19
				c-2.11-0.04-2.15-0.08-1.74-2.15c0.32-1.62,0.24-3.81,1.28-4.66c0.91-0.83,3.06-0.28,4.66-0.28c1.9-0.04,3.81,0,5.73,0
				c0.87,0,1.24,0,0.99,1.15c-1.9,8.83-3.71,17.68-5.61,26.51c-0.08,0.4-0.79,0.79-1.28,1.03c-0.32,0.16-0.83,0-1.24,0.04
				C361.07,289.25,359.43,289.17,359.79,286.63z"/>
			<path class="st2" d="M154.77,357.74c1.94-5.33,3.85-10.57,5.73-15.78c4.96-13.67,9.94-27.3,14.82-40.95
				c0.45-1.32,1.07-1.7,2.39-1.62c2.47,0.12,5,0.08,7.51,0c0.91,0,1.19,0.16,1.11,1.15c-0.87,13.63-1.7,27.2-2.51,40.83
				c-0.28,4.96-0.63,9.86-0.83,14.82c-0.04,1.19-0.36,1.66-1.66,1.56c-1.9-0.12-3.81-0.08-5.69,0c-0.91,0.04-1.24-0.16-1.11-1.19
				c0.28-3.18,0.45-6.4,0.75-9.62c0.08-0.95-0.16-1.11-1.03-1.11c-2.03,0.04-4.05-0.04-6.08,0.08c-0.49,0.04-1.24,0.59-1.4,1.07
				c-1.15,3.18-2.27,6.36-3.3,9.58c-0.28,0.91-0.71,1.19-1.62,1.19C159.61,357.69,157.24,357.74,154.77,357.74z M177.74,317.07
				c-0.12,0-0.24-0.04-0.36-0.04c-0.12,0.12-0.24,0.24-0.32,0.36c-2.11,6.12-4.17,12.17-6.32,18.29c-0.36,1.07,0.08,1.07,0.87,1.07
				c1.19-0.04,2.39-0.04,3.54,0c0.83,0.04,1.11-0.24,1.15-1.07c0.12-2.31,0.36-4.62,0.59-6.93
				C177.15,324.83,177.43,320.94,177.74,317.07z"/>
			<path class="st2" d="M184.82,289.02c3.81-10.45,7.51-20.72,11.24-30.96c3.06-8.42,6.16-16.81,9.17-25.27
				c0.4-1.15,0.95-1.52,2.15-1.48c2.51,0.08,5,0.08,7.51,0c1.07-0.04,1.28,0.28,1.19,1.32c-0.59,9.09-1.07,18.21-1.62,27.3
				c-0.55,8.95-1.19,17.96-1.62,26.91c-0.08,1.86-0.63,2.31-2.35,2.15c-1.66-0.16-3.34-0.08-5,0c-0.91,0.04-1.07-0.28-0.99-1.11
				c0.24-3.02,0.41-6.08,0.71-9.09c0.12-1.19,0-1.74-1.4-1.66c-1.74,0.12-3.46,0.08-5.2,0c-1.11-0.04-1.66,0.24-1.98,1.4
				c-0.95,3.14-2.11,6.16-3.1,9.3c-0.28,0.91-0.71,1.19-1.62,1.15C189.58,288.98,187.31,289.02,184.82,289.02z M200.23,268.31
				c1.66,0,3.06-0.04,4.5,0.04c0.95,0.04,1.32-0.2,1.4-1.24c0.4-5.69,0.87-11.4,1.32-17.09c0.04-0.41,0-0.87,0-1.28
				c-0.12,0-0.28-0.04-0.41-0.04C204.77,255.15,202.54,261.58,200.23,268.31z"/>
			<path class="st2" d="M273.66,299.51c1.86,0,3.71-0.2,5.53,0.04c5.57,0.83,8.83,4.01,9.21,9.7c0.49,7.76-1.7,14.86-7.35,20.51
				c-2.94,2.94-6.64,4.33-10.73,4.58c-1.07,0.08-1.36,0.45-1.52,1.4c-1.4,6.84-2.94,13.71-4.29,20.55c-0.2,1.07-0.55,1.48-1.7,1.4
				c-1.98-0.08-3.93-0.08-5.91,0c-1.03,0.04-1.32-0.2-1.11-1.28c2.07-9.58,4.09-19.16,6.12-28.78c1.86-8.83,3.77-17.68,5.61-26.51
				c0.28-1.36,0.71-2.07,2.27-1.86c1.28,0.16,2.59,0.04,3.93,0.04C273.66,299.43,273.66,299.47,273.66,299.51z M279.7,314.46
				c0.16-4.74-0.83-5.95-3.89-6.24c-0.45-0.04-1.28,0.45-1.36,0.79c-1.15,5.16-2.23,10.33-3.34,15.49c-0.2,0.91,0.12,1.07,0.99,1.07
				c2.73-0.04,4.88-1.32,5.73-3.97C278.75,318.79,279.33,315.88,279.7,314.46z"/>
			<path class="st2" d="M373.18,340.56c-0.16,2.19-0.45,4.25-0.45,6.32c0,1.48,0.24,3.1,2.07,3.5c1.78,0.4,2.98-0.63,3.81-2.03
				c2.07-3.5,2.27-7.19,0.63-10.94c-1.86-4.29-3.89-8.51-5.65-12.88c-2.27-5.61-2.43-11.32,0.16-16.97
				c2.59-5.65,7.68-9.09,13.47-8.87c5.33,0.16,8.26,3.06,8.34,8.38c0.04,2.03-0.16,4.05-0.41,6.03c-0.04,0.45-0.75,1.11-1.15,1.15
				c-2.19,0.28-4.37,0.45-6.56,0.55c-0.24,0-0.75-0.55-0.75-0.83c0.04-1.48,0.32-2.98,0.28-4.41c0-1.28-0.4-2.86-1.86-2.86
				c-1.03,0-2.43,0.83-2.98,1.7c-2.15,3.46-2.03,7.19-0.4,10.89c2.07,4.78,4.33,9.5,6.16,14.36c2.63,6.99,0.95,13.51-3.18,19.4
				c-3.42,4.88-10.53,6.64-16.02,4.37c-3.3-1.36-5.08-4.62-4.78-9.13c0.12-2.19-0.08-4.92,1.11-6.36c0.99-1.19,3.85-0.87,5.85-1.19
				C371.64,340.72,372.43,340.68,373.18,340.56z"/>
			<path class="st2" d="M159.53,289.02c2.31-10.94,4.58-21.67,6.84-32.4c1.7-7.96,3.42-15.9,5.04-23.86
				c0.24-1.15,0.71-1.4,1.74-1.36c3.54,0.16,7.19-0.04,10.69,0.4c4.54,0.59,7.43,3.58,7.92,8.02c1.03,8.75-1.32,16.5-8.14,22.5
				c-2.55,2.27-5.73,3.38-9.17,3.54c-1.15,0.04-1.74,0.32-1.98,1.66c-1.32,6.68-2.81,13.39-4.17,20.07
				c-0.24,1.11-0.63,1.56-1.86,1.52C164.27,288.94,162,289.02,159.53,289.02z M183.43,246.13c0.08-4.54-0.99-5.85-3.81-6.12
				c-0.83-0.08-1.32,0.08-1.48,0.99c-1.03,5.08-2.11,10.11-3.22,15.15c-0.2,0.95,0.12,1.07,0.99,1.07c2.63-0.08,4.7-1.19,5.57-3.67
				C182.43,250.73,183.02,247.75,183.43,246.13z"/>
			<path class="st2" d="M133.27,279.63c0.2-1.52,0.45-3.67,0.83-5.77c0.08-0.41,0.67-0.99,1.07-1.03c2.19-0.28,4.37-0.4,6.56-0.67
				c0.99-0.12,0.83,0.41,0.79,1.07c-0.16,2.07-0.41,4.13-0.24,6.16c0.08,0.83,1.03,2.15,1.74,2.27c0.99,0.16,2.47-0.32,3.14-1.07
				c2.27-2.69,3.1-5.99,2.03-9.38c-0.91-2.98-2.23-5.85-3.54-8.71c-1.86-4.13-3.71-8.18-4.33-12.76
				c-1.07-7.55,3.77-16.42,10.53-18.33c2.31-0.67,4.96-0.63,7.35-0.24c3.38,0.55,5.2,3.22,5.53,7.55c0.12,2.07-0.2,4.17-0.45,6.2
				c-0.04,0.41-0.75,0.99-1.15,1.07c-1.98,0.28-4.01,0.41-6.03,0.67c-0.99,0.12-1.44,0.08-1.24-1.24c0.28-1.62,0.32-3.3,0.12-4.92
				c-0.08-0.75-1.03-1.82-1.66-1.9c-0.83-0.08-2.07,0.45-2.55,1.11c-2.07,2.94-2.59,6.28-1.28,9.66c1.19,3.1,2.77,6.03,3.93,9.17
				c1.4,3.77,3.1,7.55,3.62,11.48c0.83,6.2-1.28,11.77-5.69,16.22c-3.42,3.46-10.06,4.41-14.54,2.39
				C134.1,287.02,133.39,283.8,133.27,279.63z"/>
			<path class="st3" d="M216.66,130.58c-0.45-1.82-1.15-3.62-1.36-5.49c-0.99-8.22,0.41-15.94,4.54-23.21
				c3.67-6.36,8.63-11.56,14.11-16.26c5.37-4.62,9.74-10.02,11.64-16.97c0.91-3.3,1.11-6.8,1.62-10.11
				c2.19,2.11,2.77,5.33,3.38,8.38c1.4,7.23-0.99,13.67-5.12,19.44c-2.15,3.02-4.88,5.65-7.39,8.34c-2.81,2.98-4.74,6.52-6.64,10.06
				c-0.45,0.83-0.87,1.7-1.32,2.51c-2.35,4.62-2.35,9.38-0.24,13.95c1.24,2.63,3.18,4.96,4.78,7.43c-0.49,0.12-0.95,0.28-1.44,0.4
				c0.67,1.94-1.11,2.47-2.03,3.46c-0.16,0.16-0.83,0.2-1.03,0.04c-1.66-1.36-3.42-2.69-3.1-5.29c0.04-0.45-0.12-0.95-0.16-1.4
				c-0.16-2.51-0.87-5.16-0.32-7.47c0.41-1.82-0.49-1.44-1.19-1.48c-0.59-0.04-1.4,0.12-1.82,0.49c-1.15,1.15-2.11,2.51-3.18,3.77
				c-0.49,0.55-1.03,1.24-1.66,1.36c-3.26,0.67-3.67,1.48-2.39,4.62C216.74,128.23,216.58,129.47,216.66,130.58z"/>
			<path class="st2" d="M252.42,299.39c-0.59,2.69-1.11,5.24-1.74,7.76c-0.12,0.41-0.79,0.99-1.24,0.99
				c-1.9,0.12-3.81,0.12-5.69,0.04c-1.07-0.04-1.4,0.36-1.62,1.36c-3.22,15.35-6.48,30.68-9.66,46.03c-0.32,1.7-0.95,2.35-2.73,2.19
				c-2.07-0.16-4.17-0.04-6.4-0.04c1.07-5.16,2.15-10.17,3.18-15.15c2.31-10.94,4.62-21.83,6.99-32.75c0.28-1.4-0.04-1.74-1.4-1.66
				c-1.66,0.12-3.34,0-5,0.04c-0.91,0.04-1.44-0.04-1.15-1.24c0.59-2.23,0.95-4.54,1.52-6.76c0.08-0.32,0.59-0.79,0.87-0.79
				C236.3,299.39,244.28,299.39,252.42,299.39z"/>
			<path class="st1" d="M216.66,130.58c-0.08-1.11,0.08-2.35-0.32-3.38c-1.28-3.14-0.87-3.97,2.39-4.62
				c0.63-0.12,1.19-0.83,1.66-1.36c1.07-1.24,2.03-2.55,3.18-3.77c0.36-0.41,1.19-0.59,1.82-0.49c0.71,0.08,1.66-0.32,1.19,1.48
				c-0.55,2.35,0.12,5,0.32,7.47c0.04,0.45,0.2,0.95,0.16,1.4c-0.32,2.55,1.44,3.89,3.1,5.29c0.2,0.16,0.87,0.16,1.03-0.04
				c0.91-0.99,2.69-1.56,2.03-3.46c0.49-0.12,0.95-0.28,1.44-0.41c2.86,2.47,5.99,4.33,9.66,5.41c5.53,1.62,10.77,0.91,15.78-1.78
				c0.28-0.16,0.67-0.24,0.99-0.36c-0.32,0.45-0.59,1.07-1.03,1.36c-1.15,0.71-1.28,1.24,0.71,1.98c-1.28,0-1.82-0.04-2.39,0
				c-0.59,0.08-1.11,0.24-2.03,0.45c1.78,0.95,0.75,1.82,0.16,2.63c-0.91,1.28-1.9,2.47-2.86,3.71c-0.24,0.32-0.28,0.79-0.49,1.11
				c-0.32,0.63-0.71,1.24-1.11,1.82c-0.67,0.87-2.11,1.36-1.4,2.9c-1.66,0.36-3.26,0.99-4.92,1.11c-2.43,0.2-4.92,0.2-7.35,0
				c-4.66-0.41-8.95-2.11-12.6-5.04c-4.09-3.3-7.19-7.43-8.95-12.43C216.74,131.29,216.74,130.95,216.66,130.58z"/>
			<path class="st2" d="M339.72,357.74c1.82-8.67,3.62-17.13,5.41-25.6c2.23-10.45,4.5-20.9,6.64-31.37c0.24-1.11,0.63-1.44,1.7-1.4
				c1.98,0.08,3.93,0.08,5.91,0c1.15-0.04,1.28,0.36,1.07,1.32c-1.94,9.03-3.89,18.12-5.81,27.16c-1.44,6.84-2.94,13.71-4.41,20.55
				c-0.24,1.07-0.04,1.44,1.15,1.44c2.94-0.08,5.81,0,8.75-0.04c0.79,0,1.24,0.04,0.99,1.07c-0.49,1.94-0.83,3.97-1.36,5.91
				c-0.08,0.36-0.59,0.91-0.91,0.91C352.52,357.74,346.16,357.74,339.72,357.74z"/>
			<path class="st2" d="M295.64,281.15c-0.49,2.43-0.91,4.7-1.44,6.93c-0.08,0.36-0.67,0.87-1.03,0.87
				c-6.24,0.04-12.51,0.04-18.87,0.04c1.98-9.38,3.93-18.57,5.91-27.82c1.98-9.3,3.97-18.57,5.85-27.91
				c0.28-1.48,0.75-2.15,2.35-1.98c1.52,0.16,3.1,0.12,4.62,0c1.52-0.12,2.03,0.12,1.62,1.86c-2.77,12.6-5.45,25.19-8.14,37.81
				c-0.63,2.98-1.24,5.95-1.9,8.87c-0.2,0.95-0.08,1.32,1.07,1.32C288.95,281.11,292.17,281.15,295.64,281.15z"/>
			<path class="st1" d="M282.84,197.71c5.91-1.78,11.85-3.38,17.68-5.41c2.59-0.91,5.08-2.39,7.27-4.09
				c3.62-2.77,3.46-6.08-0.2-8.79c-3.71-2.73-8.02-4.37-12.43-5.65c-1.7-0.49-3.46-0.91-5.12-1.52c-0.75-0.28-1.32-0.99-1.98-1.48
				c0.71-0.49,1.32-1.24,2.07-1.44c1.4-0.41,2.9-0.63,4.37-0.79c9.9-1.07,19.28,0.59,28.07,5.29c1.32,0.71,2.51,1.56,3.67,2.47
				c3.67,2.81,3.77,6.6,0.2,9.62c-3.58,3.06-7.92,4.74-12.25,6.4c-9.66,3.62-19.83,5.33-29.89,7.23c-0.32,0.08-0.71,0-1.07,0
				c-0.32-0.12-0.67-0.36-0.95-0.32c-1.94,0.24-3.93,0.59-5.85,0.87c-0.63,0.08-1.19,0.08-1.82,0.08c1.28-0.63,2.59-0.75,3.89-1.07
				C279.94,198.75,281.4,198.2,282.84,197.71z"/>
			<path class="st1" d="M191.26,170.58c-1.9,1.44-3.93,2.69-5.61,4.33c-2.43,2.39-2.03,5.16,1.07,6.68
				c2.98,1.44,6.12,2.63,9.34,3.38c6.48,1.52,13.12,2.39,19.83,2.11c2.43-0.08,4.84-0.45,7.27-0.79c1.28-0.16,1.7-0.83,0.59-1.7
				c-1.52-1.19-0.49-1.62,0.55-1.9c4.46-1.4,9.03-1.4,13.63-0.83c1.9,0.24,3.81,0.87,5.65,1.52c0.63,0.24,1.32,1.11,1.4,1.78
				c0.04,0.49-0.67,1.44-1.24,1.66c-2.59,0.91-5.24,1.98-7.96,2.39c-10.02,1.52-20.15,2.07-30.25,1.4
				c-9.09-0.63-18.16-1.56-26.71-5.04c-2.15-0.87-4.21-2.19-6.08-3.62c-1.7-1.32-1.78-3.14-0.55-4.96c1.52-2.23,3.67-3.67,6.16-4.62
				c0.49-0.12,1.07-0.12,1.52-0.32c5.95-2.77,12.31-4.33,18.61-6.03c0.71-0.2,1.48-0.32,2.19-0.45c-1.32,0.95-2.81,1.44-4.17,2.15
				C194.69,168.57,193.01,169.61,191.26,170.58z"/>
			<path class="st2" d="M142.3,357.74c1.94-9.21,3.85-18.25,5.73-27.3c2.11-9.86,4.25-19.72,6.32-29.65
				c0.24-1.11,0.59-1.48,1.7-1.44c1.86,0.08,3.71,0.12,5.53,0c1.44-0.12,1.66,0.32,1.36,1.66c-1.74,7.96-3.38,15.94-5.12,23.86
				c-2.23,10.45-4.5,20.94-6.64,31.37c-0.24,1.19-0.71,1.52-1.86,1.48C147.06,357.65,144.75,357.74,142.3,357.74z"/>
			<path class="st2" d="M318.18,231.39c-1.4,6.68-2.81,13.2-4.17,19.68c-2.59,12.25-5.2,24.52-7.84,36.73
				c-0.08,0.45-0.71,1.11-1.07,1.15c-2.47,0.12-5,0.04-7.59,0.04c1.4-6.64,2.77-13.16,4.13-19.64c2.55-12.13,5.2-24.28,7.72-36.41
				c0.24-1.24,0.71-1.66,1.98-1.62C313.48,231.49,315.7,231.39,318.18,231.39z"/>
			<path class="st4" d="M284.7,201.3c12.09-1.56,24.12-3.5,35.84-6.8c5.41-1.52,10.73-3.34,15.53-6.52c2.86-1.9,6.28-1.52,9.54-1.82
				c1.66-0.16,3.34-0.04,5,0.12c1.62,0.16,3.22,0.55,4.84,0.91c0.32,0.08,0.83,0.63,0.79,0.75c-0.24,0.55-0.55,1.28-0.99,1.48
				c-3.58,1.56-7.15,3.26-10.81,4.5c-9.78,3.22-19.95,4.92-30.09,6.36c-5.04,0.71-10.17,1.24-15.19,1.9
				c-0.63-0.12-1.24-0.36-1.86-0.32c-1.62,0.08-3.26,0.32-4.88,0.45c-5.08,0.45-10.11,0.87-15.19,1.28
				c-2.47,0.2-4.96,0.55-7.43,0.67c-2.51,0.12-5.04,0.04-7.55,0.04c5.33-0.71,10.69-1.15,16.02-1.74
				C280.33,202.21,282.51,201.72,284.7,201.3z"/>
			<path class="st5" d="M250.32,119.14c0.79,0,1.52-0.04,2.31,0c2.11,0.12,3.5-0.83,4.41-2.69c0.95-1.94-0.04-3.3-1.28-4.62
				c-0.16-0.16-0.28-0.36-0.41-0.59c0-0.24,0-0.49,0-0.79c1.56-0.24,3.18-0.63,4.74-0.79c2.35-0.2,4.66-0.2,7.03-0.28
				c0.36,1.15,0.95,2.31,1.03,3.46c0.08,1.7-0.2,3.42-0.32,5.12c-1.11,0-2.27-0.08-3.38,0.04c-1.4,0.16-3.54,0.04-4.01,0.83
				c-1.11,1.98-2.43,3.14-4.58,3.5c-0.12,0-0.2,0.12-0.28,0.2c-1.78,1.32-4.01,2.31-5.29,4.05c-1.7,2.23-3.3,1.03-5,0.71
				c-0.87-0.16-1.7-0.45-2.55-0.71l0.04,0.04c-1.36-2.07-1.36-2.03,0.83-3.34C245.8,121.96,248.07,120.56,250.32,119.14z"/>
			<path class="st4" d="M341.87,172.64c2.47,0.24,4.62,0.16,6.56,0.75c1.24,0.32,2.77,1.4,3.1,2.47c0.28,0.95-0.63,2.81-1.52,3.42
				c-2.81,1.86-5.77,3.46-8.87,4.84c-2.94,1.32-6.03,2.19-9.09,3.22c-0.24,0.08-0.55-0.04-0.83-0.08c0.2-0.32,0.28-0.71,0.59-0.95
				c1.48-1.24,3.18-2.23,4.46-3.62c1.74-1.86,1.36-3.71-0.63-5.37c-0.55-0.45-1.19-0.83-1.74-1.28c-0.36-0.32-0.63-0.79-0.95-1.15
				c0.45-0.32,0.87-0.91,1.36-0.99C337.01,173.35,339.64,172.99,341.87,172.64z"/>
			<path class="st6" d="M242.7,126.65c0.87,0.24,1.7,0.55,2.55,0.71c1.7,0.32,3.3,1.52,5-0.71c1.28-1.7,3.5-2.73,5.29-4.05
				c0.08-0.08,0.16-0.16,0.28-0.2c2.15-0.41,3.46-1.56,4.58-3.5c0.45-0.79,2.59-0.71,4.01-0.83c1.11-0.12,2.27-0.04,3.38-0.04
				c-0.2,0.79-0.41,1.52-0.67,2.31c-1.32,1.82-2.39,3.97-4.05,5.41C257.79,130.42,248.25,130.7,242.7,126.65z"/>
			<path class="st6" d="M267.18,120.3c0.2-0.79,0.45-1.52,0.67-2.31c0.12-1.7,0.41-3.42,0.32-5.12c-0.08-1.15-0.67-2.31-1.03-3.46
				c-0.16-2.55-0.83-3.26-2.55-3.22c-3.26,0.12-6.48,0.12-9.74,0.12c-0.87,0-1.82,0.95-1.4,1.7c0.55,0.91,1.24,1.7,1.9,2.51
				c0,0.24,0,0.49,0,0.79c-3.26-2.86-4.05-6.72-1.9-9.46c1.94-2.43,4.78-3.06,7.63-1.44c7.19,4.13,9.34,12.25,6.6,19.24
				C267.61,119.89,267.37,120.09,267.18,120.3z"/>
			<path class="st6" d="M250.32,119.14c-2.23,1.4-4.5,2.81-6.72,4.21c-2.15,1.32-2.15,1.28-0.83,3.34c-2.98-1.62-5-4.05-6.03-7.23
				c-0.99-3.1-1.4-6.24-0.4-9.42c0,1.9-0.08,3.85,0.08,5.73c0.24,3.42,0.67,3.62,3.42,1.82c0.16-0.08,0.28-0.24,0.45-0.28
				c1.62-0.49,1.94-1.48,1.07-2.9C243.92,116.79,246.91,118.29,250.32,119.14z"/>
			<path class="st7" d="M284.7,201.3c-2.19,0.36-4.33,0.87-6.52,1.11c-5.33,0.59-10.69,1.07-16.02,1.74c2.51,0,5.04,0.08,7.55-0.04
				c2.47-0.12,4.96-0.45,7.43-0.67c5.08-0.45,10.11-0.87,15.19-1.28c1.62-0.12,3.26-0.36,4.88-0.45c0.63-0.04,1.24,0.2,1.86,0.32
				c-4.62,0.45-9.21,1.11-13.83,1.36c-13.2,0.75-26.39,1.32-39.59,1.9c-3.5,0.16-7.03,0.04-10.65-0.16
				c0.55-0.16,1.03-0.49,1.56-0.55c9.98-0.49,19.99-0.87,29.93-1.52c5.53-0.36,10.98-1.15,16.5-1.78
				C283.51,201.34,284.07,201.34,284.7,201.3z"/>
			<path class="st8" d="M250.68,148c-0.71-1.52,0.75-2.03,1.4-2.9c0.41-0.59,0.79-1.19,1.11-1.82c0.2-0.36,0.24-0.83,0.49-1.11
				c0.91-1.24,1.94-2.47,2.86-3.71c0.59-0.83,1.66-1.7-0.16-2.63c0.91-0.2,1.44-0.4,2.03-0.45c0.55-0.08,1.11,0,2.39,0
				c-1.98-0.75-1.86-1.28-0.71-1.98c0.45-0.24,0.71-0.87,1.03-1.36c3.54-2.39,6.32-5.53,8.42-9.3c0.16,0.04,0.36,0.08,0.55,0.12
				c-0.28,1.98-0.32,4.01-0.87,5.91c-2.63,9.25-8.55,15.61-17.46,19.12C251.39,147.96,251,147.96,250.68,148z M268.64,125.97
				c-1.66,1.78-3.18,3.54-4.88,5.16c-1.24,1.19-2.9,2.03-2.86,4.13c0,0.28-0.67,0.87-0.79,0.83c-1.94-0.75-1.82,1.03-2.43,1.94
				c-1.86,2.86-3.67,5.69-5.45,8.38C259.75,144.13,268.01,135.08,268.64,125.97z"/>
			<path class="st9" d="M273.42,411.44c-0.2,0.95-0.28,2.03-0.67,3.02c-0.63,1.56-1.82,2.43-3.58,2.39
				c-1.7-0.04-3.06-0.87-3.34-2.39c-0.36-1.9-0.4-4.01-0.12-5.91c0.32-1.94,1.82-2.86,3.54-2.86c1.74,0,3.02,0.95,3.58,2.86
				C273.18,409.42,273.22,410.37,273.42,411.44z M267.31,411.24c0.16,0.99,0.2,1.9,0.55,2.73c0.2,0.49,0.91,1.15,1.32,1.11
				c0.55-0.04,1.44-0.67,1.48-1.11c0.16-1.78,0.16-3.58,0-5.41c-0.04-0.4-0.87-0.95-1.4-1.03c-0.4-0.04-1.15,0.45-1.32,0.87
				C267.57,409.29,267.49,410.33,267.31,411.24z"/>
			<path class="st9" d="M290.9,411.08c0.24-0.99,0.4-2.19,0.83-3.26c0.55-1.4,1.74-2.07,3.22-2.11c1.56-0.04,3.06,0.63,3.34,2.11
				c0.41,2.03,0.59,4.17,0.28,6.2c-0.28,1.98-1.74,2.81-3.54,2.81c-1.8,0-3.02-0.87-3.62-2.81
				C291.14,413.14,291.1,412.19,290.9,411.08z M297.03,411.36c-0.2-0.95-0.28-1.98-0.63-2.9c-0.16-0.45-0.87-0.95-1.28-0.95
				c-0.55,0.04-1.4,0.59-1.44,0.95c-0.12,1.9-0.08,3.85,0.04,5.73c0.04,0.32,0.87,0.87,1.32,0.87c0.45,0,1.15-0.49,1.32-0.91
				C296.75,413.3,296.83,412.35,297.03,411.36z"/>
			<path class="st9" d="M199.49,411.36c0-0.12,0-0.24,0-0.36c0-5.81,0-5.81,5.91-5.2c0.36,0.04,0.71,0.67,1.03,0.99
				c-0.36,0.24-0.71,0.63-1.11,0.71c-0.63,0.12-1.32,0.08-1.94,0.04c-1.15-0.12-1.66,0.2-1.7,1.52c-0.04,1.44,0.75,1.32,1.7,1.32
				c0.49,0,0.99-0.12,1.4,0.04c0.32,0.12,0.63,0.63,0.67,0.99c0.04,0.2-0.41,0.63-0.71,0.71c-0.36,0.12-0.83,0.08-1.24,0.04
				c-1.62-0.28-2.03,0.55-1.7,1.9c0.08,0.36,0.63,0.87,1.03,0.95c0.87,0.12,1.78-0.04,2.69,0.08c0.36,0.04,0.67,0.55,0.99,0.83
				c-0.28,0.28-0.59,0.63-0.91,0.91c-0.12,0.08-0.32,0-0.55,0c-1.78-0.04-4.17,0.59-5.12-0.32
				C198.98,415.61,199.57,413.14,199.49,411.36C199.45,411.36,199.49,411.36,199.49,411.36z"/>
			<path class="st9" d="M214.88,417.01c-0.87-0.28-1.82-0.55-2.63-0.95c-0.32-0.16-0.41-0.75-0.63-1.15
				c0.49-0.2,0.99-0.59,1.44-0.55c0.67,0.04,1.36,0.63,1.98,0.55c0.59-0.04,1.28-0.59,1.52-1.07c0.12-0.28-0.49-1.07-0.91-1.4
				c-0.49-0.36-1.19-0.49-1.82-0.71c-1.36-0.45-2.07-1.4-2.11-2.81c0-1.44,0.67-2.69,2.11-2.94c1.28-0.2,2.63,0.04,3.97,0.24
				c0.24,0.04,0.36,0.79,0.59,1.19c-0.45,0.16-0.95,0.45-1.4,0.45c-0.63,0-1.28-0.41-1.86-0.36c-0.41,0.04-1.03,0.55-1.11,0.95
				c-0.08,0.32,0.32,0.95,0.71,1.24c0.41,0.32,0.95,0.4,1.48,0.63c2.23,0.83,3.02,1.9,2.63,3.77
				C218.48,415.77,216.98,416.85,214.88,417.01z"/>
			<path class="st9" d="M255.8,414.9c1.28,0,2.27-0.12,3.18,0.04c0.49,0.08,0.87,0.67,1.28,1.03c-0.4,0.24-0.79,0.75-1.19,0.75
				c-1.74,0.08-3.46,0.04-5.16,0c-0.4,0-0.83-0.2-1.24-0.32c0.16-0.4,0.2-0.95,0.49-1.28c1.03-1.15,2.23-2.15,3.22-3.34
				c0.63-0.75,1.15-1.66,1.4-2.59c0.12-0.45-0.28-1.48-0.67-1.62c-0.55-0.16-1.28,0.2-1.9,0.41c-0.2,0.08-0.28,0.63-0.49,0.71
				c-0.55,0.12-1.11,0.08-1.7,0.12c0.04-0.41-0.04-0.91,0.12-1.24c0.87-1.9,3.5-2.55,5.37-1.44c1.62,0.95,1.94,3.1,0.71,4.88
				c-0.45,0.67-1.07,1.28-1.66,1.86C257.12,413.51,256.53,414.13,255.8,414.9z"/>
			<path class="st9" d="M241.34,114.4c0.87,1.44,0.49,2.39-1.07,2.9c-0.16,0.04-0.28,0.16-0.45,0.28c-2.77,1.82-3.18,1.62-3.42-1.82
				c-0.16-1.9-0.08-3.81-0.08-5.73c0.45-1.56,0.87-3.14,1.32-4.7c0.2,0,0.36,0,0.59,0C238.08,108.83,238.99,111.89,241.34,114.4z"/>
			<path class="st10" d="M282.84,197.71c-1.44,0.45-2.9,1.03-4.37,1.4c-1.28,0.32-2.59,0.45-3.89,1.07c0.63-0.04,1.24,0,1.82-0.08
				c1.94-0.28,3.93-0.63,5.85-0.87c0.28-0.04,0.63,0.2,0.95,0.32c-5.49,0.71-10.94,1.48-16.42,2.11c-3.58,0.41-7.23,0.67-10.85,0.95
				c-1.11,0.08-2.23,0-3.34-0.24C262.69,200.85,272.77,199.27,282.84,197.71z"/>
			<path class="st9" d="M226.95,412.19c0-0.59-0.04-1.19,0-1.78c0.16-1.74,0.16-3.3-2.35-2.86c-0.2,0.04-0.83-0.59-0.79-0.79
				c0.08-0.36,0.49-0.99,0.79-0.99c2.31-0.08,4.62-0.08,6.99,0c0.28,0,0.71,0.63,0.79,0.99c0.04,0.2-0.45,0.63-0.79,0.79
				c-0.24,0.12-0.59,0.04-0.87,0.04c-1.11-0.16-1.56,0.2-1.52,1.44c0.12,1.94,0.08,3.93,0,5.91c-0.04,0.75,0.59,1.82-1.07,1.86
				c-1.74,0.04-1.11-1.15-1.15-1.94C226.91,413.95,226.95,413.06,226.95,412.19z"/>
			<path class="st9" d="M281.72,409.17c-0.99,0-1.86-0.04-2.69-0.04c0.49-0.71,0.95-1.4,1.52-2.03c0.32-0.4,0.75-0.79,1.19-1.03
				c1.24-0.79,1.98-0.36,2.03,1.07c0.04,2.19,0.04,4.41,0,6.6c0,0.91,0,1.7,1.28,1.56c0.2,0,0.63,0.49,0.63,0.75
				c0,0.26-0.45,0.67-0.71,0.67c-1.52,0.08-3.1,0.08-4.62,0c-0.24,0-0.71-0.45-0.71-0.67c0-0.24,0.45-0.75,0.67-0.75
				c1.62,0.16,1.52-0.83,1.48-1.9C281.68,411.89,281.72,410.37,281.72,409.17z"/>
			<path class="st11" d="M191.26,170.58c1.74-0.99,3.42-2.03,5.2-2.94c1.36-0.71,2.86-1.19,4.17-2.15
				c-0.75,0.16-1.48,0.24-2.19,0.45c-6.32,1.7-12.68,3.26-18.61,6.03c-0.45,0.2-1.03,0.24-1.52,0.32c3.97-1.56,7.8-3.38,11.85-4.62
				c4.62-1.44,9.42-2.39,14.11-3.5c0.36-0.08,0.83,0.12,1.28,0.2c-0.36,0.28-0.71,0.71-1.11,0.87
				C200.07,167.07,195.64,168.86,191.26,170.58z"/>
			<path class="st0" d="M335.55,309.64c-1.07,5.16-2.03,9.74-2.98,14.32c-1.52,7.15-3.06,14.28-4.62,21.38
				c-0.2,1.03-0.67,2.03-1.11,2.98c-0.71,1.36-1.98,1.98-3.46,1.48c-1.44-0.49-1.52-1.9-1.28-3.14c0.63-3.38,1.36-6.72,2.07-10.11
				c1.74-8.18,3.46-16.34,5.29-24.52c0.28-1.24,0.79-2.47,1.4-3.58c0.71-1.15,2.07-1.78,3.22-1.07
				C334.86,307.82,335.19,309.05,335.55,309.64z"/>
			<path class="st0" d="M307.48,309.6c-0.91,4.41-1.74,8.3-2.55,12.17c-1.62,7.59-3.22,15.19-4.88,22.78
				c-0.28,1.36-0.79,2.73-1.44,3.97c-0.67,1.24-1.9,1.7-3.22,1.28c-1.36-0.36-1.56-1.62-1.36-2.77c0.63-3.54,1.36-7.11,2.15-10.65
				c1.78-8.42,3.54-16.85,5.37-25.23c0.2-0.91,0.59-1.82,1.07-2.59c0.79-1.19,2.03-1.98,3.34-1.28
				C306.69,307.78,307.08,308.97,307.48,309.6z"/>
			<path class="st12" d="M240.27,245.61c-0.24,2.43-0.79,5.33-2.39,7.88c-1.15,1.82-2.69,3.02-4.84,3.3
				c-0.67,0.08-1.28,0.16-1.03-0.95c1.11-5.12,2.15-10.25,3.3-15.31c0.08-0.32,0.83-0.79,1.19-0.75
				C239.2,240.04,240.31,241.68,240.27,245.61z"/>
			<path class="st13" d="M177.74,317.07c-0.28,3.89-0.59,7.76-0.87,11.68c-0.16,2.31-0.45,4.62-0.59,6.93
				c-0.04,0.87-0.32,1.11-1.15,1.07c-1.19-0.04-2.39-0.04-3.54,0c-0.79,0-1.24,0-0.87-1.07c2.15-6.08,4.21-12.17,6.32-18.29
				c0.04-0.16,0.2-0.24,0.32-0.36C177.47,317.03,177.59,317.03,177.74,317.07z"/>
			<path class="st13" d="M200.23,268.31c2.31-6.68,4.54-13.16,6.76-19.6c0.12,0,0.28,0.04,0.41,0.04c0,0.41,0.04,0.87,0,1.28
				c-0.45,5.69-0.91,11.4-1.32,17.09c-0.08,1.03-0.41,1.28-1.4,1.24C203.29,268.23,201.83,268.31,200.23,268.31z"/>
			<path class="st12" d="M279.7,314.46c-0.36,1.44-0.95,4.33-1.86,7.15c-0.87,2.63-3.02,3.93-5.73,3.97c-0.87,0-1.19-0.16-0.99-1.07
				c1.11-5.16,2.19-10.33,3.34-15.49c0.08-0.36,0.91-0.83,1.36-0.79C278.87,308.49,279.82,309.72,279.7,314.46z"/>
			<path class="st12" d="M183.43,246.13c-0.41,1.62-0.99,4.58-1.98,7.43c-0.87,2.47-2.94,3.58-5.57,3.67
				c-0.87,0.04-1.19-0.12-0.99-1.07c1.11-5.04,2.19-10.11,3.22-15.15c0.2-0.91,0.67-1.07,1.48-0.99
				C182.43,240.28,183.51,241.6,183.43,246.13z"/>
			<path class="st9" d="M255.34,110.47c-0.67-0.83-1.36-1.62-1.9-2.51c-0.4-0.71,0.55-1.7,1.4-1.7c3.26,0,6.48,0,9.74-0.12
				c1.74-0.04,2.39,0.67,2.55,3.22c-2.35,0.08-4.7,0.12-7.03,0.28C258.48,109.87,256.92,110.23,255.34,110.47z"/>
			<path class="st14" d="M268.64,125.97c-0.63,9.13-8.91,18.16-16.34,20.43c1.74-2.69,3.58-5.53,5.45-8.38
				c0.59-0.91,0.49-2.63,2.43-1.94c0.16,0.04,0.83-0.55,0.79-0.83c-0.04-2.11,1.56-2.94,2.86-4.13
				C265.46,129.55,266.98,127.73,268.64,125.97z"/>
			<path class="st15" d="M267.31,411.24c0.16-0.91,0.28-1.9,0.63-2.81c0.16-0.41,0.91-0.91,1.32-0.87c0.55,0.08,1.36,0.63,1.4,1.03
				c0.16,1.78,0.16,3.58,0,5.41c-0.04,0.45-0.95,1.07-1.48,1.11c-0.4,0.04-1.11-0.63-1.32-1.11
				C267.53,413.14,267.49,412.23,267.31,411.24z"/>
			<path class="st15" d="M297.03,411.36c-0.2,0.99-0.28,1.94-0.67,2.81c-0.16,0.45-0.87,0.91-1.32,0.91c-0.45,0-1.32-0.55-1.32-0.87
				c-0.16-1.9-0.16-3.85-0.04-5.73c0.04-0.36,0.91-0.91,1.44-0.95c0.41-0.04,1.11,0.49,1.28,0.95
				C296.75,409.37,296.83,410.41,297.03,411.36z"/>
		</g>
	</g>
</g>
</svg>
